<svg style="display: none;" xmlns="http://www.w3.org/2000/svg">
    <symbol id="jefe" viewBox="0 0 256 200">
        <path id="color" style="fill:#e0c7a3"
              d="m 105.3,4.9 c 10.4,5 15.7,-6.9 39.2,2.8 38.4,-6.1 45.4,14.8 62.2,52.6 7.9,31.4
              -13.4,47.4 -11,89.3 42.3,-2.5 34.5,21.4 43,35.1 -5.3,4.1 -38.8,7.5 -114.5,5 -59.1,1.2
              -105.8,0.8 -106,-6.9 4.1,-19.4 8.9,-26.1 25.3,-34.3 -0.7,-7.2 -0.9,-14.4 3.4,-21.6
              -2.7,-12.3 -6,-24.7 -1.9,-43.6 7.8,-31.2 27.9,-61.7 60.2,-78.4 z"/>
        <path id="face" style="fill:#342821"
              d="m 63.6,65.9 c 14.9,4.2 33.5,-13.5 57.3,-21.4 -0.2,2.8 -0.5,5.7 -0.7,8.5 8.6,6.2
              9.4,6.6 13.2,15.6 19.8,-17.4 29.8,-20.5 47,0.7 4.6,-6.9 5.2,-12 7.8,-18 6.8,5.2
              11.3,7.8 15.1,15.1 -0.2,72.6 9.2,77.2 -11.9,82.6 -8.4,-11.2 -1.2,-3.8 -22.4,0.2
              -47.2,7.5 -41.1,-18.3 -60.9,-1.1 -14.7,12.3 -34.6,-18.7 -46.9,-38.6 29.1,9.5 6.7,-31.9
              2.4,-43.6 z"/>
        <path id="tongue" style="fill:#f68c8c"
              d="m 131.9,135.3 c 16.4,-13.7 34.1,-16.2 40,-10.2 1.3,7.2 -1.5,14.9 -5.3,17.9 -12.5,7.1
              -27.2,1.3 -34.7,-7.8 z"/>
        <path id="eye" style="fill:#ffffff"
              d="m 189.8,78 c 5.7,-25.6 23.1,-2.6 19.5,4.8 -4.5,15.2 -15.3,10.3 -19.5,-4.8 z m
              -106.2,1 c 19.7,-32.1 36.3,-2.6 32.3,-0.2 -5.9,23.9 -30.7,14.4 -32.3,0.2 z"/>
        <path id="ear" style="fill:#352922"
              d="m 44.1,84.2 c 14.6,-41.9 59.1,-71.4 57,-78.7 -5.8,-8 -8.1,-2.7 -12.2,-4.1 -40.6,27.2
              -18.9,-0.1 -61.4,14.3 -7.8,10 -4.9,20.9 -7,31.1 2.2,19 5.7,45.1 23.6,37.4 z M 174.3,10
              c 16.4,14.1 21.4,35.9 29.3,43.5 4.4,7.6 4.7,11.1 17.1,17.1 -1.3,-12 0.7,-22.2 1.4,-34.2
              -12.2,-5.4 -32.7,-27 -47.8,-26.4 z"/>
        <path id="paws"
              d="m 50.6,150.2 c 16.3,-0.1 34.1,11 31,24.7 0,11 -6.4,13.8 -8.4,14.4 -5.4,0.7 -5.7,0.3
              -5,-1.9 0.7,-2.2 1.1,-7.2 0.4,-9.6 -0.3,-1.1 -1.1,-1.1 -1.7,-0.4 -0.7,0.7 -1.3,2.3 -1.5,4.3
              -0.4,4 -4.1,8.5 -8.3,8.1 -3.8,-0.9 -4.4,-2.7 -4.2,-6 0.1,-1.2 0.8,-5.2 -0.1,-7.7 -0.4,-1.2
              -4.2,-3.2 -4,3.6 -0.8,6.9 -0.6,8.6 -8.5,8.6 -3,-0.2 -3.2,0.3 -5.4,-2.5 -1.5,-2 -1.3,-5.9
              -3.8,-7.3 -2.1,-1.1 -3.3,1.4 -2.2,4.7 1.2,3.3 0.2,4 -3.6,3.8 -9.9,-0.6 -5.3,-36.5
              25.4,-36.8 z m 143.7,41 c 23.4,-2.4 58.6,-1 60.5,-3.4 3.1,-4.3 -6.9,-4.5 -8.9,-4.2 -7.7,0
              -7.7,0 -8.8,-7 -1.1,-6.7 -3.7,-15.2 -10,-21 -2.2,-2.1 -7.3,-7.1 -22.6,-7.4 v 0 c -2.2,0
              -4.6,0 -7.2,0.2 -28.1,8.4 -26.9,19 -24.5,33.2 3.4,6.4 -94.9,8.9 -90.2,0.2 2.4,-14.2 3.6,-24.8
              -24.5,-33.2 -2.6,-0.2 -5,-0.2 -7.2,-0.2 -15.3,0.3 -20.3,5.3 -22.6,7.4 -6.3,5.8 -9,14.2 -10,21
              -1.1,7 -1.1,7 -8.8,7 -1.9,-0.3 -12,-0.1 -8.9,4.2 1.9,2.3 31.4,0.3 60.5,3.4 29.1,3.1 109.7,2.2
              133.1,-0.2 z m 10.7,-41.2 c 30.7,0.2 35.3,36.1 25.4,36.8 -3.9,0.2 -4.8,-0.5 -3.6,-3.8 1.2,-3.3
              -0.1,-5.8 -2.2,-4.7 -2.5,1.3 -2.2,5.3 -3.8,7.3 -2.3,2.8 -2.4,2.3 -5.4,2.5 -7.9,0 -7.7,-1.8
              -8.5,-8.6 0.1,-6.9 -3.6,-4.9 -4,-3.6 -0.9,2.5 -0.1,6.6 -0.1,7.7 0.2,3.3 -0.4,5 -4.2,6 -4.2,0.4
              -7.9,-4.1 -8.2,-8.1 -0.2,-2.1 -0.8,-3.6 -1.5,-4.3 -0.7,-0.7 -1.4,-0.7 -1.7,0.4 -0.7,2.5 -0.3,7.4
              0.4,9.6 0.7,2.2 0.4,2.5 -5,1.9 -2,-0.6 -8.4,-3.3 -8.4,-14.4 -3.1,-13.7 14.6,-24.8 31,-24.7 z"/>
        <path id="outline"
              d="m 141.7,130.4 c 9.7,-3.8 7.3,-0.4 12.5,4.8 1.6,0.9 1.2,-0.7 1.2,-0.7 v 0 c -1,-1.6 -2.4,-3.4
              -2,-5.4 2.5,-4.7 10.7,-5.2 18.7,-3.1 -9.2,-6.4 -26.6,0.7 -30.5,4.4 z m -10.6,5.2 c 9.4,9.7
              15.7,11.7 27.7,11.1 7,-1 14.1,-2.7 14.3,-20.2 1,-0.6 -1.1,-0.9 -1.1,-0.9 -0.7,9.1 -2.9,17.6
              -13.4,19.7 -13.2,1.2 -17.5,-2.1 -27.1,-10.6 -1,-0.2 -1.3,0.2 -0.5,0.8 z m 47.2,-40.1 c -2.3,3.9
              -12.5,3.3 -14.7,10.8 -1,3.1 0.7,2.9 2.4,-0.2 1.8,-3.6 15,-6.8 15,-11.1 0,-2 -1.3,-1.8 -2.7,0.5
              z m -16.4,9.1 c 1.9,0 0.3,-1.9 -4.2,-4.7 -4.9,-3 -11.6,-11.3 -15.3,-11.3 -1.4,0 14.4,16 19.5,16
              z m -5.2,-22.4 c -0.9,1 1.5,5 0.1,6.3 -1.2,1.1 -9.6,0.8 -5.3,2.5 4.9,1.9 9.1,-0.9 8,-5.3 -0.7,-3
              -2,-4.5 -2.8,-3.5 z m 11.1,2.3 c 0.9,9.4 10.2,7.3 10.2,6.1 0,-0.6 -0.9,-1 -1.9,-1 -3.6,0 -5,-1.2
              -5.7,-4.5 -0.9,-4.8 -3.1,-5.3 -2.6,-0.6 z m -73,-14.3 c -6.8,3.7 -7.3,12 -1.1,17.4 3.2,2.8 4.1,3.1
              7.6,2.6 8.7,-1.4 12.3,-5.1 11.4,-12 -1.1,-8.1 -10.3,-12.1 -17.9,-8 z m 7.2,3.4 c 0,3.7 -6.2,1.8
              -4.5,-1 1.2,-1.9 4.5,-1.1 4.5,1 z m -5.5,2.9 c 0.8,1.1 -1.2,2.4 -2.5,1.6 -1.6,-1 0.7,-4 2.5,-1.6
              z m 4.9,-25.6 c -7.2,2.1 -11.9,4.7 -19.3,10.6 -8.9,9.3 -28.8,-2.7 -19.8,7.3 6.2,7.3 15,33.1
              13.5,36.7 -3.9,9.4 -16.6,0.3 -15,3.8 0.4,8.9 23.6,19.5 11.7,9.9 -4.3,-3.3 -4.6,-5.6 -0.7,-5.6
              6.3,0 9.8,-8.3 5.4,-19.6 -0.2,-0.4 -9.3,-22.5 -8.2,-23.5 3.3,-1.8 6.8,0.5 14.5,-6 14.8,-12.1
              20,-9.2 27.1,-14.3 14,-7.8 2.2,1.6 14.2,8.4 14.6,8.9 2.4,17.1 -9.3,26.8 -0.8,0.6 0.7,-4.8 1.6,-4.8
              1.3,0 1.1,-3.3 -0.5,-7.1 -1.8,-4.3 -6.5,-8.8 -10.2,-9.8 -7.1,-1.9 -16.5,2.8 -21.5,10.6 -2.8,4.5
              -3.8,8 -2,6.9 0.4,-0.3 1.3,1.2 2,3.4 1.3,4.3 5.1,7.8 9.4,8.7 3.6,0.7 1.6,2.3 -3,2.3 -1.8,0 -3.3,0.5
              -3.3,1.1 0,1.4 7.1,0.4 15.2,-2.1 5.7,-1.8 5.7,-1.8 4.7,0.2 -2.7,5.1 1.3,1.7 18.3,-15.2 18.9,-18.8
              23.1,-21.9 30.1,-22 3.9,0 5,-1.5 1.8,-2.5 -4.3,-1.3 -13,2.5 -19.7,8.7 -3.8,3.5 -4.4,3.8 -4.4,2
              0,-11.4 -17.9,-9.5 -11.1,-19.1 1.1,-1.5 1.9,-3.3 1.4,-3.5 -6.4,-2.5 -16.9,4.6 -22.9,7.7 z m
              6.6,16.2 c 9.6,4.9 8.8,18.9 -1.3,23.7 -8.5,4.1 -19.4,-1.3 -20.4,-10.2 -0.5,-4.2 -0.2,-4.8 3.1,-8
              6.8,-6.7 12.8,-8.5 18.6,-5.5 z m -4,-45.2 c -3.6,3.4 -9.6,8.8 -13.3,12 -6.8,5.9 -11,11.7 -12.3,17.2
              -0.7,2.7 -0.6,2.9 0.9,1.6 1,-0.7 1.7,-1.7 1.7,-2.2 0,-3.1 7.3,-11.6 17,-19.9 10.6,-8.9 14,-12.4
              14,-14.2 0,-1.7 -1.8,-0.5 -8,5.5 z m 42.5,-9.3 c -0.9,1.4 5.2,11.1 9.4,26.5 3.3,11.7 3.8,12.8 5.2,12
              5,-3.2 -11.7,-43.2 -14.6,-38.5 z m 19.8,5 c 15.6,14.7 19.8,28.1 22.4,25.7 2.4,-2.4 -22.1,-33.7
              -30,-33.7 -0.5,0 2.9,3.6 7.6,8 z M 44.9,113.9 c -9.9,-53.1 54.5,-96.3 56.9,-105 4.6,-6.4 10.3,-0.9
              12.4,2.4 1.8,-0.6 -0.2,-2.1 5.2,-5.3 12.9,-6 11.2,2.7 27.8,1.7 16.8,-2.8 27.7,3.3 38.2,17.5 7.1,9.6
              22.9,40.1 22.3,42.9 -0.8,3.2 -0.9,-4.5 -19.1,-19.7 -3.4,-2.9 -5.1,-3.8 -5.9,-3 -1.7,1.7 3.2,5.1
              3.2,8.9 0,1.9 -4.1,11.5 -5.6,13.2 -0.3,0.3 -2.1,-1.2 -4.2,-3.1 -5.7,-6.7 -12.4,-3.8 -6.8,-2.8 2.8,0
              13.1,11.9 28.9,33.3 2.2,3 3.7,4.4 3.7,3.3 0,-2.2 2,-1.1 1.5,0.9 -1.7,5.3 -1.5,5.2 -2.6,3.2 -1.9,-2.8
              -15.9,-12 -20.4,-18 -16.8,-19.6 -33.2,-13.1 -50.6,0 -5.7,4.3 -12.8,9.2 -15.7,10.9 -5.3,2.9 -6.5,4.4
              -3.7,4.4 7.7,0 33.7,-25.3 41.9,-25 1.5,0.3 -1.8,0 -11.9,8.8 -4.9,4.2 -11.1,9.3 -13.9,12.2 11.5,-6.1
              18.9,-17.5 33.3,-18.1 12.2,-0.2 16.7,6.4 17.3,7.3 6.3,9.5 24.5,18.7 24.8,23.8 2.3,15.5 7.3,35.8
              -8.6,39.8 -2.2,0.5 -5.6,-5.4 -8.7,-10.4 -8.5,-14.6 -16.9,-21.2 -33.8,-15 -5.9,2.5 -5.9,2.5 -19.4,11.1
              -4.9,3.2 -30.5,18.2 -44,17.4 -25.4,-1.5 -39.5,-20.9 -42.5,-37.6 z m 69.5,32.3 c 31.5,-14.9 53.9,-40.6
              70.7,-3.2 -5.5,1.9 -18.7,7.3 -28.6,7.4 -11.9,0 -25.4,-4.5 -34.7,-8.7 -2.4,-1.9 -1.1,0.6 -0.6,0.8
              10.6,6.1 18.8,7.7 28.3,9.4 2.7,0.5 5.4,0.6 8.1,0.3 9.7,-1.1 28.3,-7.8 28.3,-7.8 2.5,2.6 5.2,7.3
              8.1,6.3 26.4,-9.1 2.6,-48.2 12.9,-55.7 6.2,-4.5 2.9,-14.8 3.3,-22.4 0.2,-3 -0.6,-6 -1.1,-9 l 4.3,4.5
              c 6.8,7.2 10,5.6 8.3,-4.3 -2.4,-13.1 8.9,-28.2 -5.8,-32.2 -5.9,-1.7 -14.1,-13.4 -24.2,-18.7 -4.5,-2.4
              -14.8,-2 -25.2,-5.7 -15.9,-6.1 -23.8,1.8 -32.5,-3.5 -11.3,-6.7 -17.7,4.4 -20.9,1.5 -1.4,-1.3
              -3.3,-1.7 -7,-1.5 -9.1,0.5 -6.3,-4.6 -14.2,-3.5 -15.7,2.3 -19.7,13.7 -27.7,12.4 -14,-2.7 -39,-5.5
              -43.8,12.8 0,1.7 -3.6,35.6 7.7,57.3 8,9.1 17,2 16.5,3.4 -3,8.3 -3.1,28.9 -0.2,36 3.2,7.6 -2.6,3.7
              -2.6,19.4 l 0.6,8 2.9,-0.2 c -1.1,-7.7 -1.8,-14.1 1.1,-20.6 0.1,-0.2 1.4,1.7 2.6,3.7 1.7,2.8 4.5,6.1
              7,8.2 7.2,5.9 7.6,7 17,10.6 14.8,5.6 23.9,3.4 41.4,-4.9 z M 98.4,4.6 c 8.6,9.2 -37.7,29.8 -47,61
              -7.8,27.4 -27,27.7 -29.4,-17 -2.7,-40.7 10,-36 44.7,-32.9 l -2.5,4.4 c -3.6,6.8 -22.7,22 -6.7,11.2
              9.3,-6.2 11,-19 25.9,-25.8 4.8,-2.3 11.7,-4.5 15,-0.9 z m 80,7.7 4,0.7 c 19.5,3.5 36,32.6 33.2,22.7
              -0.4,-1.9 7.8,-2.7 3.8,14.9 -3.7,16.1 2.2,16.7 0,17.8 -7.9,-1.3 -9.2,-13.1 -9.5,-18.3 -0.8,-12.8
              -2.5,-17.4 -7.9,-21.1 -13.9,-9.5 2.5,4.5 3.7,8.9 1.1,3.6 2.6,21.4 1.7,20.5 -0.3,-0.3 -3.6,-6.5
              -7.3,-13.7 -5.8,-11.8 -13.1,-22.6 -21.7,-32.4 z m 11.3,42.3 c 1.6,1.7 15.7,11.4 8,10 -3.2,0 -6.7,3.8
              -8.2,8.9 l -1.2,4.2 c -2.1,-3 -4.3,-6 -6.4,-9 9.5,-9.9 4.9,-17.4 7.8,-14.1 z m 6.5,17.9 c 2.2,-0.4
              3,2.3 1.4,3.8 -3.6,3.5 -5.8,-3.1 -1.4,-3.8 z m 1.9,17.7 c -1.5,-1.5 -1.4,-1.6 0.9,-1.6 7.9,0 7.5,-12
              5.6,-14.6 -3.1,-4.1 -7,-4.5 -11.2,-2.9 -2.9,1.1 1.7,-4.4 5.1,-4.4 0.8,0 9.3,1.7 9.4,10.7 0.2,11
              -6.2,16.4 -9.8,12.8 z"/>
    </symbol>

    <symbol id="paw" viewBox="0 0 224 210">
        <path id="color" style="fill:#342821"
              d="m 205,65 c 18,8 27,55 -4,75 -10,7 -36,6 -36,-28 0,-12 17,-52 40,-47 z M 52,93 C 68,125 41,156
              15,135 -10,107 5,74 11,68 30,51 44,78 52,93 Z M 173,26 c 13,23 9,49 -12,62 -27,14 -53,-23 -38,-72
              11,-29 36,-14 50,10 z M 81,89 C 49,95 28,54 56,17 c 16,-19 40,-30 46,4 1,1 12,58 -21,68 z m 68,27
              c 17,27 38,29 40,54 2,31 -22,40 -50,38 -19,-1 -31,-7 -50,-1 -22,6 -50,-2 -55,-23 -7,-28 17,-39
              32,-58 35,-47 71,-30 83,-9 z"/>
    </symbol>
</svg>