<svg xmlns="http://www.w3.org/2000/svg" viewBox="0 0 100 100" width="100" height="100">
  <circle
      cx="50" cy="50" r="50"
      fill="#454548" />
   <path fill="#3eb049"
      d="M 47.21 87.29 C 40.65 86.66 34.76 84.71 30.05 81.61 L 29.06 80.96 L 28.83 79.12 C 28.56
      77.08 28.28 73.83 28.29 72.76 L 28.29 72.06 L 31.36 72.04 C 33.05 72.02 34.94 71.96
      35.57 71.89 C 36.57 71.78 36.76 71.8 37.12 72.03 C 40.47 74.13 45.59 75.52 49.94 75.52
      C 56.91 75.52 63.07 72.94 68.05 67.97 C 70.25 65.76 71.45 64.11 72.77 61.49 C 76.4 54.3
      76.48 46.07 72.99 38.87 C 69.54 31.74 62.81 26.51 55.12 24.97 C 53.14 24.57 50.41 24.36
      48.78 24.48 L 47.45 24.58 L 47.78 24.1 C 47.97 23.84 49.2 22.52 50.53 21.17 L 52.93
      18.71 L 51.94 17.79 C 50.55 16.48 48.61 14.87 47.17 13.8 L 45.93 12.88 L 46.39 12.77 C
      47.31 12.55 52.7 12.62 54.63 12.87 C 70.46 14.94 83.1 26.44 86.53 41.91 C 87.65 46.96
      87.68 52.56 86.6 57.8 C 85.24 64.4 81.77 70.91 76.97 75.91 A 37.51 37.51 0 0 1 53.43
      87.23 C 51.94 87.37 48.39 87.41 47.21 87.29 L 47.21 87.29 M 23.78 76.55 C 21.66 74.43
      18.79 70.98 18.99 70.79 C 19.02 70.75 19.83 70.88 20.77 71.07 C 22.19 71.36 25.41 71.85
      25.89 71.85 C 25.97 71.85 26.03 72.46 26.03 73.23 C 26.03 74.49 26.17 76.3 26.39 78.17
      C 26.46 78.7 26.43 78.91 26.32 78.91 C 26.22 78.91 25.08 77.85 23.78 76.54 L 23.78
      76.55 M 28.29 68.97 C 28.29 67.84 28.58 64.45 28.69 64.33 C 28.74 64.27 29.19 64.76
      29.69 65.42 C 30.18 66.07 31.29 67.31 32.17 68.17 L 33.75 69.73 L 28.29 69.73 L 28.29
      68.97 M 25.39 69.49 C 23.03 69.2 18.23 68.28 17.85 68.04 C 17.73 67.97 17.87 67.4 18.34
      66.05 C 18.96 64.26 20.42 60.75 20.65 60.51 C 20.71 60.45 21.48 60.78 22.37 61.24 C
      23.25 61.7 24.54 62.32 25.23 62.62 L 26.48 63.15 L 26.39 63.8 C 26.19 65.3 26.03 67.34
      26.03 68.42 C 26.03 69.07 25.98 69.58 25.92 69.57 C 25.86 69.56 25.62 69.52 25.39 69.49
      L 25.39 69.49 M 15.12 63.42 A 39.86 39.86 0 0 1 13.31 57.17 C 12.88 55.01 12.89 54.99
      14.24 56.05 C 14.86 56.55 16.05 57.41 16.88 57.98 C 17.72 58.55 18.4 59.03 18.4 59.06 C
      18.4 59.09 18.14 59.67 17.82 60.36 A 64.24 64.24 0 0 0 16.6 63.23 C 16.26 64.13 15.92
      64.91 15.86 64.97 C 15.81 65.03 15.47 64.33 15.12 63.42 L 15.12 63.42 M 25.28 59.76 C
      24.2 59.27 22.23 58.26 21.96 58.07 C 21.9 58.03 23.35 55.64 24.09 54.55 L 24.67 53.7 L
      24.77 54.12 C 25.42 56.83 25.81 58.21 26.21 59.21 C 26.48 59.87 26.69 60.41 26.68 60.41
      C 26.67 60.4 26.04 60.12 25.28 59.76 M 17.89 55.52 C 16.36 54.46 13.81 52.45 13.65 52.2
      C 13.5 51.95 18.69 46.92 19.1 46.92 C 19.17 46.92 19.73 47.59 20.35 48.4 C 20.97 49.22
      21.8 50.26 22.2 50.71 C 22.59 51.16 22.92 51.56 22.92 51.59 C 22.92 51.63 22.42 52.41
      21.81 53.32 C 21.2 54.23 20.49 55.34 20.24 55.78 C 19.99 56.23 19.7 56.6 19.6 56.6 C
      19.51 56.6 18.73 56.11 17.89 55.52 L 17.89 55.52 M 12.61 48.75 C 12.63 46.98 13.23
      42.94 13.81 40.62 C 14.39 38.32 14.28 38.34 15.34 40.42 C 15.84 41.43 16.54 42.73 16.88
      43.3 L 17.5 44.35 L 16.43 45.27 C 15.84 45.77 14.74 46.79 13.98 47.54 C 13.23 48.28
      12.61 48.83 12.61 48.75 M 23.96 48.29 C 22.85 46.96 21.52 45.11 21.59 45 C 21.68 44.84
      23.33 43.72 24.67 42.9 C 25.57 42.35 25.63 42.33 25.55 42.64 C 25.22 43.76 24.75 46.14
      24.62 47.34 C 24.53 48.11 24.45 48.75 24.43 48.77 C 24.41 48.79 24.2 48.57 23.96 48.29
      L 23.96 48.29 M 19.06 41.22 C 17.6 38.66 15.91 35.01 16.1 34.83 C 16.42 34.54 21.79
      33.03 23.38 32.79 L 23.99 32.7 L 24.3 34.58 C 24.47 35.62 24.76 37.08 24.94 37.82 L
      25.27 39.18 L 24.11 39.83 C 23.47 40.2 22.25 40.96 21.39 41.53 L 19.84 42.57 L 19.06
      41.22 M 27.74 35.37 A 94.77 94.77 0 0 1 27.32 32.99 L 27.2 32.19 L 27.93 32.11 C 28.32
      32.06 29.41 31.98 30.34 31.93 L 32.03 31.84 L 31.45 32.46 C 30.49 33.48 29.41 34.85
      28.7 35.94 L 28.03 36.95 L 27.74 35.37 M 18.27 30.2 C 19.24 28.57 22.29 24.68 23.32
      23.77 L 23.63 23.5 L 23.63 29.44 L 22.39 29.68 C 21.31 29.89 19.02 30.45 18.2 30.7 C
      17.95 30.78 17.95 30.73 18.27 30.2 L 18.27 30.2 M 26.9 25.41 C 26.93 23.47 26.98 21.84
      27.03 21.79 C 27.19 21.63 33.8 22.95 34.05 23.19 C 34.07 23.21 33.87 23.95 33.61 24.83
      C 33.34 25.72 33.01 26.92 32.87 27.51 L 32.62 28.59 L 30.63 28.68 C 29.53 28.72 28.24
      28.81 27.75 28.86 L 26.85 28.95 L 26.9 25.41 M 36.34 28.31 C 36.34 28.24 36.9 26.22
      37.2 25.21 L 37.47 24.27 L 39.2 24.98 C 41.49 25.92 41.43 25.88 40.92 26.1 C 39.73 26.6
      37.77 27.55 37.16 27.92 C 36.52 28.32 36.34 28.4 36.34 28.31 L 36.34 28.31 M 42.69
      22.63 C 42.19 22.38 41.1 21.9 40.27 21.56 L 38.77 20.96 L 38.91 20.54 C 39.1 20.01
      41.17 15.86 41.56 15.24 L 41.85 14.78 L 42.73 15.37 C 43.89 16.15 46.01 17.74 46.71
      18.35 L 47.27 18.84 L 45.79 20.52 C 44.98 21.44 44.16 22.4 43.96 22.65 L 43.61 23.1 L
      42.69 22.63 M 33.44 19.36 A 85.3 85.3 0 0 0 30.69 18.71 L 29.77 18.52 L 31.01 17.78 A
      48.07 48.07 0 0 1 33.27 16.53 C 34.36 15.98 37.64 14.63 37.71 14.7 C 37.73 14.72 37.48
      15.28 37.15 15.93 C 36.82 16.58 36.29 17.69 35.99 18.39 C 35.68 19.09 35.4 19.7 35.36
      19.74 C 35.31 19.79 34.45 19.62 33.44 19.36 L 33.44 19.36"/>
</svg>
