<svg xmlns="http://www.w3.org/2000/svg" viewBox="0 0 100 100" width="100" height="100">
  <circle
      cx="50" cy="50" r="50"
      fill="#454548" />
	<path fill="#252f3e" d="M 33.82 43.93 C 33.82 44.84 33.91 45.58 34.09 46.13 C 34.28
    46.67 34.53 47.26 34.88 47.9 C 35 48.1 35.05 48.3 35.05 48.47 C 35.05 48.72 34.9 48.96 
    34.58 49.21 L 33.03 50.25 C 32.8 50.39 32.58 50.47 32.39 50.47 C 32.14 50.47 31.89
    50.35 31.64 50.12 A 7.78 7.78 0 0 1 30.76 48.96 A 20.01 20.01 0 0 1 29.99 47.51 C
    28.07 49.78 25.65 50.91 22.74 50.91 C 20.67 50.91 19.01 50.32 17.8 49.14 C 16.59 47.95 
    15.98 46.37 15.98 44.4 C 15.98 42.3 16.72 40.6 18.22 39.32 C 19.73 38.03 21.73 37.39 
    24.27 37.39 C 25.11 37.39 25.97 37.47 26.88 37.59 C 27.8 37.71 28.73 37.91 29.72 38.13 
    L 29.72 36.33 C 29.72 34.46 29.32 33.15 28.56 32.39 C 27.77 31.62 26.44 31.25 24.54
    31.25 C 23.68 31.25 22.79 31.35 21.87 31.57 A 19.58 19.58 0 0 0 19.21 32.41 C 18.81
    32.58 18.52 32.68 18.35 32.73 C 18.17 32.78 18.05 32.8 17.95 32.8 C 17.61 32.8 17.43 
    32.56 17.43 32.04 L 17.43 30.83 C 17.43 30.43 17.48 30.14 17.61 29.97 C 17.73 29.79
    17.95 29.62 18.3 29.45 C 19.16 29 20.2 28.63 21.4 28.34 C 22.61 28.02 23.9 27.87 25.25 
    27.87 C 28.19 27.87 30.34 28.54 31.72 29.87 C 33.08 31.2 33.76 33.22 33.76 35.94 L
    33.76 43.93 L 33.82 43.93 M 23.8 47.68 C 24.61 47.68 25.45 47.53 26.34 47.24 C 27.23 
    46.94 28.02 46.4 28.68 45.66 C 29.08 45.19 29.38 44.67 29.52 44.08 C 29.67 43.49 29.77 
    42.77 29.77 41.93 L 29.77 40.9 A 20.16 20.16 0 0 0 27.5 40.48 A 18.64 18.64 0 0 0
    25.18 40.33 C 23.53 40.33 22.32 40.65 21.5 41.32 C 20.69 41.98 20.3 42.92 20.3 44.15 C 
    20.3 45.31 20.59 46.18 21.21 46.77 C 21.8 47.38 22.66 47.68 23.8 47.68 L 23.8 47.68 M 
    43.61 50.35 C 43.17 50.35 42.87 50.27 42.67 50.1 C 42.47 49.95 42.3 49.61 42.15 49.14 
    L 36.36 30.07 C 36.21 29.57 36.13 29.25 36.13 29.08 C 36.13 28.68 36.33 28.46 36.73
    28.46 L 39.14 28.46 C 39.61 28.46 39.93 28.54 40.11 28.71 C 40.3 28.86 40.45 29.2 40.6 
    29.67 L 44.74 46 L 48.59 29.67 C 48.72 29.18 48.86 28.86 49.06 28.71 C 49.26 28.56
    49.61 28.46 50.05 28.46 L 52.02 28.46 C 52.49 28.46 52.81 28.54 53.01 28.71 C 53.21
    28.86 53.38 29.2 53.48 29.67 L 57.38 46.2 L 61.65 29.67 C 61.79 29.18 61.97 28.86
    62.14 28.71 C 62.33 28.56 62.66 28.46 63.1 28.46 L 65.39 28.46 C 65.79 28.46 66.01
    28.66 66.01 29.08 C 66.01 29.2 65.99 29.33 65.96 29.47 C 65.94 29.62 65.89 29.82 65.79 
    30.09 L 59.84 49.16 C 59.7 49.65 59.52 49.97 59.32 50.12 C 59.13 50.27 58.81 50.37
    58.39 50.37 L 56.27 50.37 C 55.8 50.37 55.48 50.29 55.28 50.12 C 55.08 49.95 54.91
    49.63 54.81 49.14 L 50.99 33.22 L 47.19 49.11 C 47.06 49.61 46.92 49.93 46.72 50.1 C 
    46.52 50.27 46.18 50.35 45.73 50.35 L 43.61 50.35 M 75.31 51.01 C 74.03 51.01 72.75
    50.86 71.51 50.57 C 70.28 50.27 69.32 49.95 68.68 49.58 C 68.28 49.36 68.01 49.11
    67.91 48.89 A 1.71 1.71 0 0 1 67.76 48.2 L 67.76 46.94 C 67.76 46.42 67.96 46.18 68.33 
    46.18 C 68.48 46.18 68.63 46.2 68.77 46.25 C 68.92 46.3 69.14 46.4 69.39 46.5 A 13.54 
    13.54 0 0 0 72.11 47.36 C 73.09 47.56 74.05 47.66 75.04 47.66 C 76.6 47.66 77.8 47.38 
    78.64 46.84 C 79.48 46.3 79.93 45.51 79.93 44.5 C 79.93 43.81 79.7 43.24 79.26 42.77 C 
    78.82 42.3 77.98 41.88 76.77 41.49 L 73.19 40.38 C 71.39 39.81 70.06 38.97 69.24 37.86 
    C 68.43 36.78 68.01 35.57 68.01 34.29 C 68.01 33.25 68.23 32.34 68.68 31.55 A 6.35
    6.35 0 0 1 70.45 29.52 C 71.19 28.96 72.03 28.54 73.02 28.24 C 74 27.94 75.04 27.82
    76.13 27.82 C 76.67 27.82 77.24 27.85 77.78 27.92 C 78.35 27.99 78.86 28.09 79.38
    28.19 C 79.88 28.31 80.34 28.44 80.79 28.59 C 81.23 28.73 81.58 28.88 81.83 29.03 C
    82.17 29.23 82.42 29.42 82.56 29.65 C 82.71 29.84 82.79 30.12 82.79 30.46 L 82.79
    31.62 C 82.79 32.14 82.59 32.41 82.22 32.41 C 82.02 32.41 81.7 32.31 81.28 32.11 C
    79.88 31.47 78.3 31.15 76.55 31.15 C 75.14 31.15 74.03 31.37 73.27 31.84 C 72.5 32.31 
    72.11 33.03 72.11 34.04 C 72.11 34.73 72.35 35.32 72.84 35.79 C 73.34 36.26 74.25
    36.73 75.56 37.15 L 79.06 38.26 C 80.84 38.82 82.12 39.61 82.89 40.62 C 83.65 41.64
    84.02 42.8 84.02 44.08 C 84.02 45.14 83.8 46.1 83.38 46.94 C 82.94 47.78 82.34 48.52 
    81.58 49.11 C 80.81 49.73 79.9 50.17 78.84 50.49 C 77.73 50.84 76.57 51.01 75.31 51.01 
    L 75.31 51.01" />
	<path fill="#f90" d="M 81.64 55.48 C 79.04 55.51 75.98 56.09 73.66 57.72 C 72.94 58.24 
    73.07 58.93 73.86 58.83 C 76.5 58.51 82.32 57.82 83.35 59.15 C 84.39 60.46 82.2 65.96 
    81.21 68.4 C 80.91 69.14 81.55 69.44 82.22 68.87 C 86.56 65.22 87.7 57.6 86.81 56.49 C 
    86.36 55.95 84.24 55.44 81.64 55.48 M 13.45 56.95 C 12.91 57.02 12.67 57.67 13.24 58.19 
    C 22.91 66.92 35.72 72.18 49.93 72.18 C 60.07 72.18 71.86 69 79.97 63 C 81.31 62.01
    80.15 60.51 78.79 61.13 C 69.69 64.98 59.79 66.85 50.79 66.85 C 37.44 66.85 24.54 63.17 
    14.08 57.1 C 13.85 56.97 13.64 56.93 13.46 56.95 L 13.45 56.95" />
</svg>
