<svg xmlns="http://www.w3.org/2000/svg" viewBox="0 0 100 100" width="100" height="100">
  <circle
      cx="50" cy="50" r="50"
      fill="#454548" />
  <path fill="#659AD3" d="M
    80.15 30.49 L 51.85 14.2 C 51.38 13.91 50.73 13.79 50.03 13.79 C 49.33 13.79 48.68
    13.96 48.21 14.2 L 20.09 30.55 C 19.09 31.13 18.39 32.6 18.39 33.71 L 18.39 66.35 C
    18.39 66.99 18.51 67.75 18.97 68.4 L 81.55 32.07 C 81.2 31.37 80.67 30.84 80.15 30.49 L
    80.15 30.49" />
  <path fill="#03599C" d="M 18.8 68.34 C 19.09 68.81 19.5 69.22 19.91
    69.45 L 48.15 85.8 C 48.62 86.09 49.27 86.21 49.97 86.21 C 50.67 86.21 51.32 86.04
    51.79 85.8 L 79.91 69.45 C 80.91 68.87 81.61 67.4 81.61 66.29 L 81.61 33.65 C 81.61
    33.12 81.55 32.54 81.26 32.01 L 18.8 68.34 L 18.8 68.34" />
  <path fill="#fff" d="M 62.51 57.09 C 60.05 61.43 55.36 64.36 50.03 64.36 C 42.12 64.36
    35.67 57.91 35.67 50 C 35.67 42.09 42.12 35.64 50.03 35.64 C 55.36 35.64 60.05 38.57
    62.51 42.97 L 70.13 38.57 C 66.14 31.6 58.64 26.86 50.03 26.86 C 37.26 26.86 26.88 37.23
    26.88 50 C 26.88 62.77 37.26 73.14 50.03 73.14 C 58.58 73.14 66.08 68.46 70.07 61.54 L
    62.51 57.09 L 62.51 57.09" /> 
</svg>
