<svg xmlns="http://www.w3.org/2000/svg" viewBox="0 0 100 100" width="100" height="100">
  <circle
      cx="50" cy="50" r="50"
      fill="#454548" />
  <path fill="#1572B6" d="M 23.52 79.37 L 17.63 13.29 L 82.37 13.29 L 76.47 79.36 L 49.96
    86.71 L 23.52 79.37 L 23.52 79.37" />
  <path fill="#33A9DC" d="M 50 81.09 L 71.42 75.15 L 76.46 18.69 L 50 18.69 L 50 81.09" />
  <path fill="#fff" d="M 50 42.63 L 60.72 42.63 L 61.47 34.34 L 50 34.34 L 50 26.23
    L 70.32 26.23 L 70.13 28.41 L 68.14 50.74 L 50 50.74 L 50 42.63" />
  <path fill="#EBEBEB" d="M 50.05 63.68 L 50.01 63.69 L 40.99 61.25 L 40.41 54.79 L 32.28
    54.79 L 33.41 67.52 L 50.01 72.12 L 50.05 72.11 L 50.05 63.68 L 50.05 63.68" />
  <path fill="#fff" d="M 60.04 50.4 L 59.06 61.25 L 50.02 63.69 L 50.02 72.12 L 66.63 67.52
    L 66.76 66.15 L 68.17 50.4 L 60.04 50.4" />
  <path fill="#EBEBEB" d="M 50.03 26.23 L 50.03 34.34 L 30.45 34.34 L 30.29 32.51 L
    29.92 28.41 L 29.73 26.23 L 50.03 26.23 L 50.03 26.23 M 50 42.64 L 50 50.74 L 41.09 50.74
    L 40.93 48.92 L 40.56 44.81 L 40.36 42.64 L 50 42.64 L 50 42.64" />
</svg>
