<svg xmlns="http://www.w3.org/2000/svg" viewBox="0 0 100 100" width="100" height="100">
  <circle
     cx="50" cy="50" r="50"
     fill="#454548" />
  <path
     d="m 82.674487,38.489327 c 4.72647,6.553416 4.81307,23.639428 4.81457,24.376958
     0.0345,1.93986 -0.0156,3.87728 -0.1077,5.81437 -10.1336,7.23927 -17.040116,9.71782
     -18.708176,9.78747 -0.947624,-0.53667 -3.768373,-4.61393 -4.485544,-6.05001 0.483585,
     -1.21679 4.670105,-2.6487 5.87229,-3.26238 -0.315251,-1.37547 -1.716344,-1.07621
     -2.74669,-0.63125 -5.737198,2.90727 -12.024363,3.45519 -18.323717,3.52661 -6.760493,
     0.0403 -13.49415,-1.98813 -16.853946,-3.70502 -0.645351,-0.31356 -1.09828,-0.44305
     -2.529197,0.37467 1.798115,1.50015 4.095948,2.30285 6.089783,3.26238 -0.238208,
     1.41011 -1.50947,3.53487 -3.697369,6.52476 -2.482579,-0.14595 -9.260759,-3.02257
     -10.657117,-4.13235 -0.409866,-6.45516 0.550784,-8.92927 1.429841,-11.36481 2.761963,
     -5.14407 7.632996,-6.90453 8.792292,-6.90453 1.228964,1.75572 2.388367,3.50937
     4.567336,4.13235 4.438011,0.58975 6.597522,-1.88231 7.82972,-5.21981 h 12.179563 c
     1.0139,2.55006 2.372983,4.25601 5.00232,5.21981 1.661571,0.27348 6.129559,0.0273
     7.204429,-4.39062 0.411834,-1.14651 0.57503,-1.19421 3.252502,-1.73681 8.88714,
     -2.527787 9.43042,-8.223359 11.0748,-15.621788 z"
     fill="#fdd446" />
  <path
     d="m 39.611033,21.524935 c 0.605636,1.280036 1.238945,2.615107 1.739937,3.91486
     2.830795,-0.65973 10.318006,-1.340061 17.399377,0 0.196626,-1.437078 1.04532,
     -2.674225 1.739938,-3.91486 5.511931,0.293946 17.505042,3.183665 18.058332,7.944558
     1.7404,4.526149 0.14856,21.106595 -9.576137,20.764413 -1.202596,-2.116889 -2.5997,
     -3.79371 -5.002321,-4.567336 -4.428793,-0.471069 -7.091719,1.634236 -8.04721,5.872289
     h -11.74458 c -1.752293,-7.147946 -7.326525,-6.169425 -8.536568,-5.899476 -2.789811,
     1.023239 -4.210505,3.832934 -4.730455,6.116968 -3.945194,0.733991 -7.356496,2.104568
     -10.154168,5.763544 -2.944631,4.54112 -3.214301,9.18665 -3.330349,14.46323 -3.177506,
     -1.41901 -4.759655,-1.77576 -4.784828,-5.4373 -0.966885,-19.27683 3.054632,-28.682099
     10.51184,-39.419616 0.87744,-2.431548 11.530893,-6.014663 16.457192,-5.601274 z"
     fill="#366f9f" />
</svg>
