<svg xmlns="http://www.w3.org/2000/svg" viewBox="0 0 100 100" width="100" height="100">
  <circle
      cx="50" cy="50" r="50"
      fill="#454548" />
  <path d="M 85.31 43.71 C 85.11 43.54 83.31 42.17 79.43 42.17 C 78.43 42.17 77.39
    42.27 76.39 42.44 C 75.66 37.33 71.42 34.86 71.25 34.73 L 70.21 34.13 L 69.54 35.09 C
    68.71 36.39 68.07 37.87 67.71 39.37 C 67.01 42.27 67.44 45.01 68.91 47.35 C 67.14 48.35
    64.27 48.58 63.67 48.62 L 16.25 48.62 C 15.01 48.62 14.01 49.62 14.01 50.86 C 13.94 55
    14.64 59.13 16.08 63.04 C 17.71 67.31 20.15 70.49 23.29 72.42 C 26.83 74.59 32.61 75.83
    39.12 75.83 C 42.05 75.83 44.99 75.56 47.9 75.03 C 51.94 74.29 55.81 72.89 59.38 70.85 C
    62.32 69.15 64.96 66.98 67.2 64.44 C 70.97 60.2 73.21 55.46 74.85 51.25 C 75.08 51.25
    75.28 51.25 75.51 51.25 C 79.62 51.25 82.16 49.62 83.56 48.21 C 84.5 47.35 85.19 46.27
    85.7 45.07 L 86 44.21 L 85.31 43.71 L 85.31 43.71 M 55.96 47.25 L 62.31 47.25 C 62.61
    47.25 62.88 47.01 62.88 46.68 L 62.88 41 C 62.88 40.7 62.64 40.43 62.31 40.43 L 62.31
    40.43 L 55.96 40.43 C 55.66 40.43 55.39 40.67 55.39 41 L 55.39 41 L 55.39 46.68 C 55.43
    47.01 55.66 47.25 55.96 47.25 L 55.96 47.25 M 47.11 30.99 L 53.46 30.99 C 53.76 30.99
    54.03 30.75 54.03 30.42 L 54.03 24.74 C 54.03 24.44 53.76 24.17 53.46 24.17 L 47.11 24.17
    C 46.81 24.17 46.55 24.41 46.55 24.74 L 46.55 24.74 L 46.55 30.42 C 46.55 30.72 46.81
    30.99 47.11 30.99 L 47.11 30.99 M 47.11 39.13 L 53.46 39.13 C 53.76 39.13 54.03 38.86
    54.03 38.56 L 54.03 32.88 C 54.03 32.59 53.76 32.32 53.46 32.32 L 47.11 32.32 C 46.81
    32.32 46.55 32.55 46.55 32.88 L 46.55 32.88 L 46.55 38.56 C 46.55 38.87 46.81 39.13 47.11
    39.13 L 47.11 39.13 M 38.33 39.13 L 44.68 39.13 C 44.97 39.13 45.24 38.86 45.24 38.56 L
    45.24 32.88 C 45.24 32.59 45.01 32.32 44.68 32.32 L 44.68 32.32 L 38.33 32.32 C 38.03
    32.32 37.76 32.55 37.76 32.88 L 37.76 32.88 L 37.76 38.56 C 37.76 38.87 38 39.13 38.33
    39.13 L 38.33 39.13 M 29.41 39.13 L 35.76 39.13 C 36.06 39.13 36.33 38.86 36.33 38.56 L
    36.33 32.88 C 36.33 32.59 36.09 32.32 35.76 32.32 L 35.76 32.32 L 29.41 32.32 C 29.11
    32.32 28.84 32.55 28.84 32.88 L 28.84 38.56 C 28.88 38.87 29.11 39.13 29.41 39.13 L 29.41
    39.13 M 47.11 47.25 L 53.46 47.25 C 53.76 47.25 54.03 47.01 54.03 46.68 L 54.03 41 C 54.03
    40.7 53.79 40.43 53.46 40.43 L 53.46 40.43 L 47.11 40.43 C 46.81 40.43 46.55 40.67 46.55
    41 L 46.55 41 L 46.55 46.68 C 46.55 47.01 46.81 47.25 47.11 47.25 L 47.11 47.25 L 47.11
    47.25 M 38.33 47.25 L 44.68 47.25 C 44.97 47.25 45.24 47.01 45.24 46.68 L 45.24 46.68 L
    45.24 41 C 45.24 40.7 45.01 40.43 44.68 40.43 L 44.68 40.43 L 38.33 40.43 C 38.03 40.43
    37.76 40.67 37.76 41 L 37.76 41 L 37.76 46.68 C 37.76 47.01 38 47.25 38.33 47.25 L 38.33
    47.25 L 38.33 47.25 M 29.41 47.25 L 35.76 47.25 C 36.06 47.25 36.33 47.01 36.33 46.68 L
    36.33 46.68 L 36.33 41 C 36.33 40.7 36.09 40.43 35.76 40.43 L 35.76 40.43 L 29.41 40.43 C
    29.11 40.43 28.84 40.67 28.84 41 L 28.84 46.68 C 28.88 47.01 29.11 47.25 29.41 47.25 L
    29.41 47.25 M 20.66 47.25 L 27.01 47.25 C 27.31 47.25 27.58 47.01 27.58 46.68 L 27.58
    46.68 L 27.58 41 C 27.58 40.7 27.34 40.43 27.01 40.43 L 27.01 40.43 L 20.66 40.43 C 20.37
    40.43 20.1 40.67 20.1 41 L 20.1 41 L 20.1 46.68 C 20.13 47.01 20.37 47.25 20.66 47.25 L
    20.66 47.25 L 20.66 47.25" fill="#0091E2" />
</svg>
