<svg xmlns="http://www.w3.org/2000/svg" viewBox="0 0 100 100" width="100" height="100">
  <circle cx="50" cy="50" r="40" fill="#623697" />
  <g transform="translate(8 8) scale(.65)">
  <path fill="#fff"
    d="m 25.191 37.523 c -0.03 12.153 -0.011 24.305 -0.011 36.454 1.43 0.011 2.86 0.011
    4.293 0.011 -0.075 -10.433 0.101 -20.863 -0.106 -31.293 0.48 0.907 0.918 1.84 1.465
    2.707 C 37.035 54.91 43.105 64.5 49.309 74 c 1.738 -0.023 3.476 -0.023 5.214 0.004
    -0.003 -12.16 -0.007 -24.32 0.004 -36.48 -1.416622 -0.01377 -2.833323 -0.01777
    -4.25 -0.012 0.075 10.32 -0.136 20.64 0.125 30.949 C 43.895 58.109 37.301 47.816
    30.707 37.516 c -1.838659 -0.01134 -3.677376 -0.009 -5.516 0.007 m 38.844 -0.011 c
    -0.129 12.16 -0.004 24.32 -0.047 36.476 6.469 -0.015 12.938 0.024 19.41 -0.02
    -0.02323 -1.317338 -0.01523 -2.635041 0.024 -3.952 C 78.41 70 73.395 70.023 68.379
    69.996 c -0.074 -4.21 -0.004 -8.426 -0.04 -12.637 4.395 -0.078 8.79 0.012 13.18
    -0.047 -0.011 -1.277 -0.011 -2.554 -0.019 -3.832 -4.387 0.141 -8.773 -0.054 -13.164
    0.012 0.012 -4.023 0.02 -8.05 0.02 -12.078 4.699 0 9.398 -0.02 14.093 0.012 -0.008
    -1.301 0 -2.606 0.016 -3.906 -6.145 -0.016 -12.29 -0.008 -18.43 -0.008 m 22.602
    0.054 c 0.004 1.266 0.004 2.528 0.008 3.79 3.488 -0.04 6.972 0.109 10.46 0.035
    -0.023 10.863 0.004 21.718 -0.011 32.574 1.46 0.043 2.93 0.035 4.39 -0.09 -0.12
    -5.992 0.118 -11.988 -0.156 -17.977 0.067 -2.699 -0.07 -5.394 0.117 -8.09 0.106
    -2.14 -0.277 -4.277 -0.035 -6.417 3.516 0.047 7.035 0.015 10.55 0.015 -0.016
    -1.277807 0.009 -2.555797 0.075 -3.832 C 103.566 37.469 95.098 37.48 86.637 37.566
    M 13.55 69.094 c -1.977 0.91 -2.106 4.023 -0.149 5.027 1.72 1.18 4.305 -0.371 4.227
    -2.41 0.133 -2.004 -2.29 -3.688 -4.078 -2.617 m 29.23 15.289 c -4.277 3.469 -4.226
    11.195 0.5 14.25 2.668 1.695 6.102 1.344 8.922 0.215 0.012 -0.621 0.027 -1.239 0.05
    -1.86 -2.671 1.395 -6.41 1.68 -8.675 -0.61 -2.965 -3.237 -2.297 -9.269 1.613
    -11.476 2.211 -1.164 4.907 -0.824 7.086 0.239 -0.007 -0.66 -0.004 -1.32 0 -1.98
    -3.097 -1.099 -6.922 -1.04 -9.496 1.222 m 17.207 2.71 c -1.89 0.22 -3.758 1.22
    -4.633 2.966 -1.253 2.496 -1.109 5.867 0.864 7.96 2.035 2.297 5.945 2.32 8.18 0.297
    2.425 -2.308 2.699 -6.468 0.757 -9.164 -1.148 -1.629 -3.273 -2.183 -5.168 -2.058 m
    17.887 2.722 c -1.66 2.883 -1.332 7.25 1.598 9.211 2.183 1.22 4.933 0.832 7.074
    -0.308 -0.004 -0.617 0.004 -1.235 0.031 -1.848 -1.687 1.07 -3.937 1.856 -5.812
    0.777 -1.309 -0.722 -1.704 -2.257 -1.914 -3.625 2.875 -0.039 5.746 -0.082 8.625
    -0.074 -0.075 -1.828 -0.118 -3.894 -1.45 -5.308 -2.199 -2.43 -6.644 -1.657 -8.152
    1.175 M 69.46 87.48 v 12.008 c 0.652 0 1.312 0 1.973 0.004 0.023 -2.195 -0.04 -4.394
    0.023 -6.594 0.016 -1.27 0.527 -2.558 1.484 -3.414 0.801 -0.605 1.883 -0.27 2.801
    -0.246 -0.012 -0.636 -0.02 -1.27 -0.023 -1.902 -1.793 -0.398 -3.336 0.652 -4.242
    2.117 -0.02 -0.633 -0.04 -1.266 -0.051 -1.894 -0.656 -0.024 -1.313 -0.051 -1.965
    -0.079 z m -10.702 1.743 c 1.652 -0.805 4.023 -0.41 4.945 1.3 1.05 1.887 1.027 4.383
    -0.137 6.211 -1.52 2.286 -5.527 1.786 -6.523 -0.742 -1.008 -2.258 -0.617 -5.484
    1.715 -6.77 z m 20.282 3.191 c 0.046 -1.574 1.144 -3.137 2.726 -3.48 0.976 -0.164
    2.097 0.007 2.773 0.793 0.672 0.714 0.813 1.714 0.98 2.64 -2.16 0.012 -4.32 -0.031
    -6.48 0.047 z" />
  </g>
</svg>
