<svg xmlns="http://www.w3.org/2000/svg" viewBox="0 0 100 100" width="100" height="100">
  <circle
      cx="50" cy="50" r="50"
      fill="#454548" />
  <linearGradient id="a" gradientUnits="userSpaceOnUse" x1=".5" y1="10.894" x2=".5"
    y2="-1.595" gradientTransform="matrix(76.53125 0 0 6.78125 32.176 54.11)">
    <stop offset=".303" stop-color="#473788" />
    <stop offset=".872" stop-color="#2c2255" />
  </linearGradient>
  <linearGradient id="b" gradientUnits="userSpaceOnUse" x1=".5" y1="8.965" x2=".5"
    y2="-3.524" gradientTransform="matrix(76.53125 0 0 6.78125 32.176 67.191)">
    <stop offset=".303" stop-color="#473788" />
    <stop offset=".872" stop-color="#2c2255" />
  </linearGradient>
  <linearGradient id="c" gradientUnits="userSpaceOnUse" x1=".5" y1="2.152" x2=".5"
    y2="-1.667" gradientTransform="matrix(69.61719 0 0 22.17969 35.633 80.27)">
    <stop offset=".303" stop-color="#473788" />
    <stop offset=".863" stop-color="#2c2255" />
  </linearGradient>
  <path fill="#2c2255" d="M 33.46 59.51 L 22.17 59.51 C 23.67 64.63 26.44 69.23 30.5 73.29 C
    36.97 79.76 44.75 82.99 53.85 82.99 C 55.67 82.99 57.43 82.86 59.14 82.6 C 66 81.56 72
    78.46 77.14 73.29 C 81.23 69.23 84.02 64.63 85.52 59.51 L 33.46 59.51 M 27.24 44.18 L
    21.34 44.18 A 34.51 34.51 0 0 0 20.91 48.16 L 86.8 48.16 A 34.47 34.47 0 0 0 86.36 44.18 M
    20.91 51.84 A 34.65 34.65 0 0 0 21.34 55.82 L 86.37 55.82 C 86.58 54.5 86.73 53.18 86.8
    51.84 M 85.53 40.49 C 84.02 35.35 81.23 30.73 77.14 26.65 C 72.01 21.52 66.03 18.44 59.2
    17.41 A 35.72 35.72 0 0 0 53.85 17.01 C 44.75 17.01 36.97 20.22 30.5 26.65 C 26.44 30.73
    23.66 35.35 22.17 40.49" />
  <path fill="#f7941e" d="M 18.95 50 C 18.95 32.6 32.02 18.13 49.03 15.59 C 48.61 15.58
    48.18 15.56 47.75 15.56 C 28.67 15.56 13.2 30.98 13.2 50 C 13.2 69.02 28.67 84.44 47.76
    84.44 C 48.18 84.44 48.61 84.43 49.03 84.41 C 32.02 81.87 18.95 67.41 18.95 50" />
  <path fill="url(#a)" d="M 76.27 48.15 A 22.51 22.51 0 0 0 75.59 44.18 L 32.11 44.18 A
    22.51 22.51 0 0 0 31.43 48.15 L 76.27 48.15" />
  <path fill="url(#b)" d="M 76.27 51.84 L 31.43 51.84 C 31.54 53.19 31.77 54.52 32.11 55.82
    L 75.59 55.82 A 22.53 22.53 0 0 0 76.27 51.84 L 76.27 51.84" />
  <path fill="url(#c)" d="M 53.85 72.5 C 62.88 72.5 70.67 67.18 74.25 59.51 L 33.46 59.51 C
    37.04 67.18 44.82 72.5 53.85 72.5 L 53.85 72.5" />
  <path fill="#fff" d="M 28.11 51.84 L 86.75 51.84 A 32.58 32.58 0 0 0 86.8 50.07 C 86.8
    49.43 86.77 48.79 86.74 48.15 L 20.91 48.15 A 35.55 35.55 0 0 0 20.85 50.07 C 20.85 50.67
    20.87 51.26 20.9 51.84 L 28.11 51.84 M 33.33 40.49 L 22.17 40.49 C 21.8 41.69 21.57 42.93
    21.34 44.18 L 86.15 44.18 A 32.45 32.45 0 0 0 85.27 40.49 M 81.91 55.82 L 21.34 55.82 C
    21.56 57.07 21.81 58.31 22.17 59.51 L 85.48 59.51 A 32.84 32.84 0 0 0 86.36 55.82 L 81.91
    55.82" />
</svg>
