<svg xmlns="http://www.w3.org/2000/svg" viewBox="0 0 100 100" width="100" height="100">
  <circle
      cx="50" cy="50" r="50"
      fill="#454548" />
   <path fill="#e0e0e0"
      d="M 36.91 72.67 C 34.43 70.72 31.79 68.85 29.98 66.22 C 26.18 61.58 23.25 56.2 21.25
      50.55 C 20.04 46.88 19.63 42.94 18.06 39.41 C 16.43 36.84 18.34 34.04 21.15 33.23 C
      22.4 32.99 24.6 31.8 21.95 32.65 C 19.57 34.4 19.34 31.06 21.78 30.85 C 23.44 30.63
      24.05 29.27 23.49 28.04 C 21.7 26.88 27.82 25.59 24.74 23.85 C 21.53 20.39 29.23 19.72
      27.33 23.66 C 26.88 26.68 32.71 23.1 31.36 26.59 C 32.73 28.27 36.51 26.97 36.41 29.33
      C 38.42 29.47 39.11 31.15 40.98 31.28 C 42.93 32.16 46.47 32.86 47.13 35.05 C 45.2
      36.58 40.71 31.89 40.5 36.13 C 41.09 42.4 40.94 48.85 43.23 54.81 C 44.31 58.42 46.94
      61.26 49.31 64.08 C 51.58 66.83 54.65 68.77 57.79 70.4 C 60.54 71.7 63.51 72.56 66.51
      73.1 C 67.72 72.17 69.87 68.72 71.76 70.17 C 71.86 71.81 68 73.59 71.58 73.42 C 73.68
      72.78 75.14 75.04 76.88 73 C 78.47 74.89 83.51 71.79 82.37 75.65 C 80.84 76.64 78.6
      76.05 77.06 77.41 C 74.52 76.15 72.51 78.54 69.7 78.24 C 66.58 78.8 63.41 79.03 60.25
      79.03 C 55.06 78.62 49.77 78.45 44.84 76.64 C 42.06 75.84 39.35 74.25 36.91 72.67 L
      36.91 72.67 M 41.29 74.57 C 44 75.74 46.65 76.98 49.63 77.35 C 54.34 78.01 59.22 79.02
      63.95 78.1 C 61.81 77.13 59.59 78.47 57.46 77.41 C 54.9 77.96 52.15 77.27 49.55 76.93 C
      46.59 75.61 43.4 74.7 40.63 72.99 C 37.16 71.72 42.42 74.61 43.35 74.85 C 45.51 76.08
      40.97 74.21 40.33 73.7 C 38.52 72.68 38.28 72.9 40.14 73.93 C 40.52 74.15 40.89 74.38
      41.29 74.57 M 36.13 70.92 C 38.76 71.89 36.11 69.07 34.91 69.23 C 34.38 68.31 32.87
      67.72 33.93 67.22 C 32.02 67.88 31.93 64.7 31.03 65.15 C 29.01 64.52 30.25 62.25 27.84
      60.87 C 27.62 59.4 25.45 58.13 24.76 55.93 C 24.45 54.8 22.3 51.55 23.62 54.57 C 24.75
      57.48 26.72 59.97 28.37 62.45 C 29.64 64.82 31.16 67.29 33.48 68.77 C 34.26 69.53 35.02
      70.69 36.13 70.92 L 36.13 70.92 M 28.55 62.61 C 28.64 62.21 29.03 63.46 28.55 62.61 M
      39.27 72.09 C 39.86 71.83 38.43 71.76 39.27 72.09 M 40.7 72.61 C 40.55 71.89 40.05
      73.01 40.7 72.61 M 42.49 73.35 C 43.34 72.54 41.18 72.84 42.49 73.35 M 45.55 75.06 C
      46.07 74.3 43.89 74.77 45.55 75.06 M 39.67 70.96 C 40.99 70.11 37.97 70.95 39.67 70.96
      M 41.01 71.63 C 40.97 71.18 40.53 71.83 41.01 71.63 M 47.71 75.81 C 48.79 76.49 54 77.3
      50.73 76.09 C 50.19 76.21 44.68 74.53 47.71 75.81 M 37.07 67.53 C 36.97 67.08 35.4
      67.03 37.07 67.53 M 40.19 69.34 C 41.01 68.78 38.51 68.91 40.19 69.34 M 42.82 70.96 C
      43.98 70.52 40.92 70.52 42.82 70.96 M 35.8 66.14 C 37.07 67.11 40.9 66.27 37.74 65.56 C
      36.3 64.8 33.05 64.28 35.26 66.03 L 35.8 66.14 L 35.8 66.14 M 44.59 71.51 C 45.12 70.62
      42.38 71 44.59 71.51 M 41.92 69.38 C 45.01 70.26 39.32 67.43 41.16 69.06 L 41.57 69.25
      L 41.92 69.38 L 41.92 69.38 M 47.28 72.48 C 50.2 72.51 44.63 72.08 47.28 72.48 M 34.68
      64.45 C 34.57 63.91 33.96 64.5 34.68 64.45 M 52.22 75.26 C 52.3 74.27 51.27 75.99 52.22
      75.26 M 39.67 67.51 C 39.49 66.99 38.76 67.49 39.67 67.51 M 34.96 64.11 C 36.64 64.01
      32.66 63.37 34.96 64.11 M 29.37 60.5 C 29.16 59.69 27.54 59.05 29.37 60.5 M 44.04 69.81
      C 43.73 69.46 43.89 69.88 44.04 69.81 M 53.16 75.41 C 53.14 74.88 52.67 75.61 53.16
      75.41 M 43.23 68.97 C 43.39 68.28 41.8 68.76 43.23 68.97 M 36.43 64.66 C 37.68 64.53
      34.43 63.82 36.43 64.66 M 47.93 71.81 C 49.88 71.04 46.03 71.44 47.93 71.81 M 41.95
      67.75 C 44.19 68.04 39.28 66.22 41.46 67.59 L 41.95 67.75 M 49.75 72.55 C 51.85 71.3
      51.15 75.48 53.3 72.9 C 55.43 71.35 51.47 74.82 54.08 73.18 C 55.98 71.91 58.77 73.77
      60.53 74.38 C 61.8 74.32 63.03 75.48 64.33 74.78 C 66.83 74.1 59.43 73.77 61.37 72.58 C
      59.08 73.25 57.39 71.78 56.26 70.32 C 53.69 69.72 50.72 68.41 49.44 66.13 C 48.92 65.28
      50.19 66.26 48.99 64.86 C 47.44 63.48 46.67 61.91 45.63 60.24 C 44.39 59.58 44.24 57.63
      44.12 60.17 C 44.13 58.57 42.62 57.48 42.25 57.94 C 42.24 56.39 43.87 57.16 42.73 56.02
      C 42.48 54.41 41.68 52.74 41.44 50.93 C 41.06 50.06 41.39 48.19 40.16 50.17 C 39.71
      52.26 40.01 47.6 40.71 49.13 C 41.62 47.57 40.38 47.75 40.33 47.97 C 40.92 46.64 40.7
      44.77 40.17 45.48 C 40.48 44.08 40.67 40.33 39.69 41 C 40.29 39.53 40.82 34.29 38.25
      36.29 C 37.2 36.31 35.4 36.67 34.55 37.09 C 37.22 38.56 34.28 37.63 33.19 37.39 C 33.05
      38.76 31.97 38.17 30.62 38.18 C 32.77 38.44 29.57 40.38 28.34 39.63 C 26.74 40.39 29.73
      42.3 28.37 42.89 C 28.54 43.79 25.92 42.57 26.12 44.63 C 24.57 43.97 25.91 47.07 26.69
      46.02 C 29.33 46.74 28.55 48.37 28.61 49.92 C 28.18 50.82 26.49 47.8 28.24 47.94 C
      26.86 45.7 26.71 47.13 25.57 48.17 C 25.3 48.24 28.49 49.65 26.49 50.35 C 28.25 50.62
      28.3 52.16 28.66 53.14 C 29.72 54.24 29.5 51.92 30.77 53.24 C 29.97 52.06 26.52 49.91
      29.29 50.6 C 29.28 49.41 28.79 48.45 29.64 48.47 C 30.49 46.95 28.76 52.23 30.66 50.3 C
      31.19 50.07 31.31 48.77 32.26 50.42 C 33.63 51.77 32.76 52.74 30.82 51.51 C 31.16 52.69
      33.41 53.1 32.98 54.94 C 33.43 56.56 34.06 55.96 34.6 55.87 C 35.03 57.44 35.27 56.28
      35.29 55.53 C 37.25 55.96 36.79 57.11 37.4 57.92 C 38.75 58.53 35.47 53.79 37.79 56.49
      C 40.23 58.69 38.7 59.61 36.52 59.26 C 37.9 59.15 38.35 61.13 40.07 61.06 C 41.65 61.81
      42.72 64.69 40 63.49 C 39.06 62.64 35.72 61.59 38.45 63.21 C 40.97 64.38 42.97 65.07
      45.4 66.54 C 47.14 67.78 47.89 69.2 48.55 69.48 C 47.09 70.18 44.15 68.92 46.33 68.54 C
      44.97 68.29 43.44 67.6 44.74 69.3 C 45.85 70.22 48.68 70.13 49.19 70.23 C 48.76 71.17
      48.02 71.25 49.2 71.32 C 47.89 72.03 49.63 72.14 49.75 72.55 L 49.75 72.55 M 47.05
      64.93 C 46.25 64.09 46.05 62.52 46.91 63.89 C 47.35 64.06 48.34 66.46 47.05 64.93 M
      55.84 70.51 C 56.33 70.47 55.85 70.89 55.84 70.51 M 45.79 62.88 C 45.75 61.6 46.07
      63.85 45.79 62.88 M 44.91 61.7 C 43.9 59.75 46.19 62.25 44.91 61.7 M 34.33 54.4 C 34.92
      54.24 34.63 55.41 34.33 54.4 M 42.75 58.96 C 43.12 57.6 43.18 60.11 42.75 58.96 M 36.8
      54.82 C 36.39 54.07 37.68 55.53 36.8 54.82 M 41.91 56.46 C 40.95 54.32 42.59 55.29
      42.12 56.81 L 41.91 56.46 M 33.11 50.59 C 32.68 49.89 31.98 47.83 32.2 47.2 C 32.4
      48.23 34.38 51.61 33.17 48.6 C 31.83 46.08 34.77 49.42 35.07 50.05 C 35.21 50.68 34.24
      49.88 34.9 51.34 C 33.71 49.67 34.2 52.27 33.11 50.59 M 30.39 48.72 C 30.5 47.08 31.01
      49.84 30.39 48.72 M 31.61 49.14 C 32.19 47.9 32.6 50.86 31.61 49.14 M 28.67 46.86 C
      27.65 45.85 26.92 44.93 28.71 46.23 C 29.4 46.26 27.18 44.13 28.88 45.55 C 30.67 45.88
      29.76 48.49 28.67 46.86 M 30.21 46.82 C 30.8 46.24 30.52 47.39 30.21 46.82 M 31.16
      47.13 C 30.27 45.46 32.25 47.83 31.16 47.13 M 29.28 45.32 C 26.33 42.7 32.97 46.69
      29.76 45.81 L 29.28 45.32 M 37.71 50.22 C 36.43 49.46 37.37 44.84 37.8 48 C 39.04 47.6
      37.73 49.63 38.66 49.61 C 38.52 50.89 38.1 51.35 37.71 50.22 M 40.83 52.06 C 40.95
      50.67 41.09 53.01 40.83 52.06 M 40.29 51.53 C 40.43 50.93 40.3 52.23 40.29 51.53 M
      29.85 44.46 C 27.96 41.85 35.35 47.1 31.06 45.12 C 30.61 45 30.07 44.96 29.85 44.46 M
      35.86 47.64 C 35.68 45.44 36.26 48 35.86 47.64 M 40.42 50.57 C 40.77 49.32 40.45 51.4
      40.42 50.57 M 30.14 43.46 C 31.27 43.22 34.8 45.44 31.55 44.1 C 31.19 43.69 30.42 43.87
      30.14 43.46 M 39.79 48.27 C 39.91 46.02 40.47 46.93 39.8 48.6 L 39.79 48.27 M 30.97
      42.68 C 31.43 42 29.76 39.64 31.22 41.83 C 31.85 42.33 33.04 42.67 31.98 42.88 C 33.65
      44.34 31.58 43.28 30.97 42.68 L 30.97 42.68 M 39.32 47.57 C 39.64 45.01 39.59 49.07
      39.32 47.57 M 30.02 40.32 C 30.37 40.16 30.21 40.78 30.02 40.32 M 32.19 41.61 C 32.76
      40.43 33.23 42.92 32.19 41.61 M 38.33 45.02 C 38.33 44.57 38.45 45.68 38.33 45.02 M
      37.98 44.24 C 37.13 42.13 38.77 45.35 37.98 44.24 M 37.46 42.86 C 37.31 41.99 37.94
      43.95 37.46 42.86 M 38.3 41.48 C 37.72 40.45 39.04 36.94 39.19 39.12 C 38.57 40.81
      39.01 41.76 39.44 39.48 C 40.24 37.69 39.27 43.01 38.3 41.48 M 39.18 36.26 C 39.44
      35.95 39.24 36.64 39.18 36.26 M 37.72 65.04 C 37.37 64.73 37.76 65.23 37.72 65.04 M
      40.72 66.56 C 42.4 66.99 42.39 66.3 40.88 66.1 C 40.06 65.34 37.5 64.54 39.79 66 C
      39.95 66.38 40.43 66.37 40.72 66.56 M 34.78 62.61 C 35.7 63.3 38.26 64.56 36.1 62.88 C
      36.82 62.03 34.7 61.58 35.4 61.01 C 33.61 59.92 33.99 60.02 35.25 60.05 C 33.1 59.09
      35.56 59.16 35.44 58.67 C 34.61 58.5 31.32 57.2 33.25 58.77 C 31.29 57.77 32.79 59.15
      32.19 59 C 30.17 58.45 33.98 60.54 31.87 60.02 C 33.03 60.93 34.98 62.36 32.36 60.98 C
      32.02 61.48 34.24 62.24 34.78 62.61 L 34.78 62.61 M 37.93 64.42 C 41.76 65.65 36.05
      62.91 37.93 64.42 M 54.04 74.18 C 54.09 73.42 53.52 74.83 54.04 74.18 M 55.7 74.88 C
      56.58 74.02 55.73 76.24 57.16 74.66 C 57.18 73.54 57.12 72.87 55.52 74.24 C 55.08 74.49
      54.88 75.53 55.7 74.88 M 29.42 58.37 C 29.14 57.3 27.51 57.31 29.42 58.37 M 31.18 59.53
      C 30.52 58.44 28.84 58.55 31.18 59.53 M 41.24 65.59 C 42.22 66.47 45.75 66.23 42.43
      65.7 C 41.94 64.97 39.31 65.15 41.24 65.59 M 55.07 74.13 C 56.57 72.87 53.6 74.7 55.07
      74.13 M 58.21 76.29 C 58.22 75.89 57.56 76.47 58.21 76.29 M 58.22 75.72 C 59.89 73.95
      56.59 75.83 58.22 75.72 M 25.06 54.73 C 23.64 52.7 24.18 51.78 22.8 50.12 C 22.54 48.85
      20.44 45.97 21.72 49.02 C 22.88 50.8 23.23 53.57 25.06 54.73 M 57.69 75.16 C 60.77
      73.17 56.43 74.3 57.69 75.16 M 60.04 76.08 C 61.58 74.76 59.06 75.81 60.04 76.08 M
      28.89 56.12 C 29.33 55.46 27.75 56.04 28.89 56.12 M 59.55 75.45 C 61.05 74.49 59.21
      74.63 59.28 75.54 L 59.55 75.45 M 39.29 62.68 C 39.24 62.03 38.5 62.73 39.29 62.68 M
      40.54 63.4 C 40.14 62.59 39.93 63.53 40.54 63.4 M 61.95 76.1 C 63.86 74.72 60.79 75.84
      61.55 76.36 L 61.95 76.1 M 61.21 75.75 C 62.77 74.44 59.57 76.33 61.21 75.75 M 64.95
      78.24 C 66 77.54 63.68 78.02 64.95 78.24 M 29.85 55.64 C 31.25 55.96 35.45 59.1 32.97
      55.86 C 31.7 55.49 32.46 52.38 31.17 52.93 C 32.04 54.38 31.88 55 30.05 54.09 C 27.76
      52.97 28.77 54.64 29.22 55.1 C 28.61 55.25 30.03 55.63 29.85 55.64 L 29.85 55.64 M
      23.46 50.6 C 23.72 49.56 21.15 44.89 22.25 48.26 C 22.65 48.97 22.61 50.3 23.46 50.6 M
      35.19 57.83 C 34.47 57.23 35.15 57.74 35.19 57.83 M 36.96 58.25 C 36.96 57.14 35 57.8
      36.96 58.25 M 52.37 67.96 C 52.08 67.21 51.21 67.94 52.37 67.96 M 53.11 68.5 C 53.01
      68.08 52.69 68.58 53.11 68.5 M 59.22 72.34 C 59.81 71.91 58.49 72.29 59.22 72.34 M
      26.65 51.41 C 28.33 50.76 24.85 50.95 26.65 51.41 M 51.02 66.77 C 51 65.68 49.95 67.04
      51.02 66.77 M 25.99 49.87 C 27.07 49.5 24.99 49.63 25.99 49.87 M 29.12 51.38 C 29.1
      51.03 28.79 51.52 29.12 51.38 M 67.33 74.82 C 68.72 74.54 71.89 75.53 72.39 74.45 C
      70.71 74.41 66.56 73.26 66.37 74.72 L 66.74 74.78 L 67.33 74.82 L 67.33 74.82 M 30.11
      51.64 C 30.14 50.54 29.26 51.6 30.11 51.64 M 21.88 45.92 C 21.51 43.83 20.46 45.61
      21.88 45.92 M 23.84 46.42 C 23.87 45.74 22.05 45.81 23.84 46.42 M 24.96 46.97 C 24.64
      46.71 24.71 47.3 24.96 46.97 M 32.03 51.5 C 32.36 51.19 31.24 51.27 32.03 51.5 M 24.22
      45.72 C 24.03 44.14 21.95 45.49 24.22 45.72 M 20.19 43.11 C 20.14 42.38 19.8 43.39
      20.19 43.11 M 20.79 42.66 C 20.69 41.79 20.28 42.77 20.79 42.66 M 24.1 44.63 C 25.5
      44.08 21.55 43.5 23.81 44.53 L 24.1 44.63 M 68.39 71.99 C 69.29 71.17 67.26 71.74 68.39
      71.99 M 73.74 74.77 C 74.1 73.71 72.84 74.9 73.74 74.77 M 24.44 42.9 C 24.59 41.88
      23.33 43.11 24.44 42.9 M 19.73 39.75 C 19.48 38.3 19.51 35.75 21.93 36.61 C 18.71 37.26
      24.17 40.63 23.48 37.97 C 24.84 38.03 26.14 37.16 25.43 38.48 C 28.1 38.19 29.96 35.87
      32.54 36.19 C 34.55 35.92 36.75 35.72 38.92 34.91 C 40.7 34.79 42.42 32.86 41.45 31.73
      C 39.01 31.52 36.47 31.83 33.78 32.36 C 30.8 32.98 28.1 34.15 25.09 34.66 C 22.16 35.05
      25.68 35.75 24.84 35.9 C 23.31 36.43 26.66 36.79 24.64 37.35 C 23.39 37.11 22.09 36.68
      22.63 35.37 C 19.82 35.73 17.35 36.89 19.57 39.75 L 19.73 39.75 L 19.73 39.75 M 26.49
      36.3 C 27.15 33.88 30.01 38.3 27.57 36.63 C 27.28 36.4 26.8 36.23 26.49 36.3 M 26.62
      35.13 C 27.57 34.42 27.13 35.52 26.62 35.13 M 27.83 35.15 C 27.92 34.04 30.59 35.74
      28.27 35.55 L 27.83 35.15 M 29.47 34.48 C 30.08 33.78 29.65 35.11 29.47 34.48 M 29.9
      34.2 C 30.9 32.99 35.57 33.43 32.15 34.08 C 31.24 33.39 30.54 34.49 29.9 34.2 M 36
      33.26 C 35.85 29.97 39.04 34.43 36 33.26 M 37.74 33.25 C 38.37 31.59 40.2 32.58 38.03
      32.92 C 38.08 33.09 37.97 33.77 37.74 33.25 M 23.76 42.05 C 25.65 40.89 21.75 41.04
      23.76 42.05 M 25.16 42.44 C 25.82 41.73 23.72 42.15 25.16 42.44 M 21.03 39.51 C 22.12
      38.68 19.75 39.2 21.03 39.51 M 76.9 74.47 C 76.93 73.5 76.07 74.9 76.9 74.47 M 71.22
      70.59 C 71.39 69.48 70.5 70.69 71.22 70.59 M 78.47 74.84 C 79.98 74.85 83.05 74.37
      79.75 74.37 C 79.24 74.45 76.75 74.44 78.47 74.84 M 26.39 41.76 C 27.61 41.68 28.3
      40.41 26.15 40.48 C 22.81 40.13 29.09 41.62 25.72 41.2 C 25.27 41.49 26.36 41.84 26.39
      41.76 M 27.47 42.3 C 27.34 41.52 27.08 42.72 27.47 42.3 M 28.74 38.89 C 29.27 38.24 28
      38.72 28.74 38.89 M 24.67 32.1 C 26.86 31.35 29.84 30.52 30.87 32.46 C 29.82 31.2 30.45
      29.95 31.44 31.8 C 32.84 33.67 33.54 30.95 32.63 30.33 C 33.66 31.62 34.85 32.22 33.32
      30.41 C 34.98 28.42 30.01 30.67 28.88 30.65 C 28.34 30.89 23.26 31.94 24.67 32.1 M
      25.95 29.65 C 27.2 28.71 30.26 30.21 28.3 28.72 C 28.1 28.54 23.99 29.85 25.95 29.65 M
      30.49 29.83 C 31.95 29.87 29.87 27.88 31.6 28.78 C 31.31 27.85 29.58 27.67 28.73 27.3 C
      28.25 28.15 29.7 29.85 30.49 29.83 M 26.75 25.71 C 27.25 25.03 25.87 26.06 26.75 25.71
      M 28.6 26.15 C 30.95 25.84 28 25.15 28.13 26.13 L 28.6 26.15 M 25.14 23.45 C 23.49
      21.29 28.25 23.81 26.57 21.55 C 25.16 20.42 23.8 22.81 25.14 23.45 M 46.36 34.87 C
      47.11 33.53 43.23 33.06 45.85 34.4 C 46.09 34.48 46.03 34.97 46.36 34.87"/>
</svg>
