<svg xmlns="http://www.w3.org/2000/svg" viewBox="0 0 100 100" width="100" height="100">
  <circle
      cx="50" cy="50" r="50"
      fill="#454548" />
  <g transform="scale(2.7) translate(-177 -164)">
    <path d="M1399.06 725.882c.149.27.44-1.029.333-1.931-.235-2.005-2.352-2.577-3.094-1.788
    -.63.657-.49 1.663.01 2.265.495.602 1.252.616 1.736.726s.842.406 1.02.728z" 
    transform="translate(-1192.057 -531.632)"/>
    <path fill="#8c8073" d="M206.448 172.045h.08c.1.016.218.122.26.242.04.12 1.67 8.37-.656
    13.117s-7.474 6.186-10.439 6.165c-4.982.073-9.31-1.705-11.3-5.76 2.16-.072 2.88-2.166 2.914
    -3.908.011-.538.854-6.389 1.047-6.646.053-.065.131-.032.17.027.81 1.266 1.555 1.92 2.648
    2.517 1.736.75 2.868 1.026 5.43.57 2.563-.455 6.783-1.976 9.55-6.13.106-.136.21-.186.296
    -.196z" />
    <ellipse cx="191.108" cy="181.942" fill="#fff" rx="2.856" ry="3.2"/>
    <ellipse cx="191.724" cy="182.06" rx="1.719" ry="2.089"/>
    <circle cx="191.73" cy="180.906" r=".783" fill="#fff"/>
    <ellipse cx="143.64" cy="216.028" rx="2.432" ry="3.136" transform="rotate(-11.8)skewX(-.14)"/>
    <circle cx="183.937" cy="180.635" r="1.324" fill="#fff"/>
    <path d="M200.312 186.434c-.174-.121.034-.31.411-.324.226-.01.513.048.814.22.808.461.836
    1.03.57 1.154-.185.086-.902-.45-.902-.45s-.522-.342-.893-.6"/>
    <path d="M201.106 186.571c-1.594 2.213-4.03 3.548-8.009 2.984-.52-.069-.913.615 1.453.712
    2.966.12 5.525-.764 7.267-3.182z" fill="#000"/>
    <path fill="#f2840d" d="M200.764 188.266c-.662-.276-1.569.663-1.225.914.527.338 2.365 1.513
    2.752 1.72.45.238 1.092-.188 1.092-.188l.2-.377s-.01-.772-.456-1.01c-.29-.155-1.504-.686
    -2.356-1.056h-.01z"/>
    <path fill="#bbb" d="M202.84 190.87c.084.296.38.161.56.261.179.1.22.422.517.337.296
    -.085.685-.785.6-1.082-.083-.297-.38-.162-.558-.262-.18-.1-.221-.422-.518-.336-.296.085
    -.685.784-.6 1.081"/>
    <ellipse cx="197.401" cy="181.949" fill="#fff" rx="3.75" ry="3.828"/>
    <ellipse cx="198.308" cy="182.089" rx="2.322" ry="2.545"/>
    <circle cx="198.308" cy="180.702" r=".997" fill="#fff"/>
    <path fill="#8c8073" d="M1397.693 722.215c.127-.208.819.073.97.18-.3-.483-1.865-1.105-2.564
    -.335s-.055 2.09.207 2.431c-.077-.212-.23-.813-.069-.928s.533.54.839.35c.305-.189-.29
    -.712.01-.959.312-.247.733.444.997.133.226-.273-.505-.683-.39-.872"
    transform="translate(-1192.057 -531.632)"/>
  </g>
</svg>
