<svg xmlns="http://www.w3.org/2000/svg" viewBox="0 0 100 100" width="100" height="100">
  <circle
      cx="50" cy="50" r="50"
      fill="#454548" />
  <path fill="#F34F29" d="M 85.59 46.71 L 53.29 14.41 C 51.43 12.55 48.42 12.55 46.56 14.41
    L 39.85 21.12 L 48.36 29.63 C 50.34 28.96 52.6 29.41 54.18 30.98 C 55.76 32.57 56.21 34.85
    55.52 36.84 L 63.72 45.04 C 65.7 44.35 67.99 44.79 69.58 46.38 C 71.79 48.59 71.79 52.18
    69.58 54.4 A 5.67 5.67 0 0 1 61.56 54.4 A 5.67 5.67 0 0 1 60.33 48.23 L 52.68 40.59 L 52.68
    60.71 A 5.69 5.69 0 0 1 54.18 61.78 C 56.39 63.99 56.39 67.58 54.18 69.8 C 51.96 72.01
    48.37 72.01 46.16 69.8 C 43.95 67.58 43.95 63.99 46.16 61.78 A 5.65 5.65 0 0 1 48.02 60.54
    L 48.02 40.23 A 5.61 5.61 0 0 1 46.16 39 C 44.49 37.32 44.08 34.86 44.94 32.8 L 36.56 24.41
    L 14.41 46.56 A 4.77 4.77 0 0 0 14.41 53.29 L 46.71 85.59 C 48.57 87.45 51.58 87.45 53.44
    85.59 L 85.59 53.44 A 4.77 4.77 0 0 0 85.59 46.71 L 85.59 46.71" />
</svg>
