<svg xmlns="http://www.w3.org/2000/svg" viewBox="0 0 100 100" width="100" height="100">
  <circle
      cx="50" cy="50" r="50"
      fill="#454548" />
  <circle
      cx="50" cy="51" r="35"
      fill="#fff" />
  <path fill="#181616" d="M 50 15.49 C 30.46 15.49 14.62 31.33 14.62
    50.87 C 14.62 66.51 24.75 79.77 38.81 84.45 C 40.58 84.78 41.23 83.68 41.23 82.75 C 41.23
    81.9 41.2 79.12 41.18 76.16 C 31.34 78.3 29.26 71.99 29.26 71.99 C 27.65 67.9 25.33 66.81
    25.33 66.81 C 22.12 64.61 25.57 64.66 25.57 64.66 C 29.13 64.91 31 68.3 31 68.3 C 34.15
    73.71 39.28 72.15 41.3 71.24 C 41.61 68.96 42.53 67.4 43.54 66.51 C 35.68 65.62 27.42
    62.58 27.42 49.03 C 27.42 45.16 28.8 42.01 31.07 39.53 C 30.7 38.64 29.49 35.04 31.41
    30.17 C 31.41 30.17 34.38 29.21 41.14 33.79 C 43.96 33.01 46.99 32.61 50 32.6 C 53.01
    32.61 56.03 33.01 58.86 33.79 C 65.62 29.21 68.58 30.16 68.58 30.16 C 70.51 35.04 69.3
    38.64 68.93 39.53 C 71.2 42.01 72.57 45.16 72.57 49.03 C 72.57 62.62 64.3 65.61 56.42
    66.48 C 57.69 67.58 58.82 69.74 58.82 73.04 C 58.82 77.77 58.78 81.58 58.78 82.75 C 58.78
    83.69 59.41 84.79 61.21 84.44 C 75.26 79.76 85.38 66.5 85.38 50.87 C 85.38 31.33 69.54
    15.49 50 15.49 L 50 15.49" />
  <path fill="#181616" d="M 28.02 66.29 C 27.94 66.47 27.66 66.52 27.41 66.4 C
    27.15 66.29 27.01 66.05 27.09 65.87 C 27.17 65.69 27.45 65.64 27.7 65.76 C 27.96 65.88
    28.11 66.12 28.02 66.29 L 28.02 66.29 M 29.45 67.89 C 29.28 68.05 28.95 67.98 28.73 67.73
    C 28.5 67.48 28.45 67.15 28.63 66.99 C 28.8 66.84 29.12 66.91 29.35 67.16 C 29.58 67.41
    29.63 67.73 29.45 67.89 L 29.45 67.89 M 30.85 69.93 C 30.63 70.08 30.27 69.94 30.06 69.62
    C 29.84 69.31 29.84 68.93 30.06 68.78 C 30.28 68.63 30.63 68.77 30.85 69.08 C 31.07 69.4
    31.07 69.77 30.85 69.93 L 30.85 69.93 M 32.76 71.9 C 32.56 72.11 32.15 72.05 31.85 71.76 C
    31.54 71.48 31.45 71.07 31.65 70.86 C 31.84 70.64 32.26 70.7 32.56 70.99 C 32.87 71.28
    32.97 71.69 32.76 71.9 L 32.76 71.9 M 35.39 73.04 C 35.31 73.32 34.91 73.44 34.51 73.33 C
    34.11 73.2 33.85 72.88 33.93 72.6 C 34.01 72.32 34.41 72.19 34.82 72.32 C 35.22 72.44
    35.48 72.76 35.39 73.04 M 38.29 73.25 C 38.3 73.54 37.96 73.79 37.54 73.79 C 37.12 73.8
    36.77 73.57 36.77 73.28 C 36.77 72.98 37.1 72.74 37.53 72.74 C 37.95 72.73 38.29 72.96
    38.29 73.25 L 38.29 73.25 M 40.98 72.79 C 41.03 73.08 40.74 73.37 40.32 73.45 C 39.91
    73.53 39.53 73.35 39.48 73.07 C 39.43 72.77 39.73 72.48 40.14 72.41 C 40.56 72.33 40.93
    72.51 40.98 72.8 L 40.98 72.79" />
</svg>
