<svg xmlns="http://www.w3.org/2000/svg" viewBox="0 0 100 100" width="100" height="100">
  <circle
      cx="50" cy="50" r="50"
      fill="#454548" />
  <path fill="#022931" d="M
    70.74 79.59 L 62.42 79.59 C 62.13 79.59 61.95 79.48 61.78 79.3 C 59.9 76.96 57.85 74.79
    55.39 73.09 C 54.16 72.21 52.87 71.45 51.41 71.04 C 50.24 70.69 49.01 70.51 47.77 70.8 C
    46.54 71.1 45.49 71.8 44.61 72.68 C 43.5 73.79 42.74 75.14 42.15 76.61 C 41.8 77.48 41.51
    78.36 41.21 79.24 C 41.15 79.36 41.15 79.48 41.1 79.59 L 34.42 79.59 C 34.36 79.24 34.3
    78.89 34.24 78.48 C 34.01 77.31 33.65 76.14 33.07 75.08 C 32.66 74.26 32.13 73.56 31.43
    72.97 C 30.67 72.33 29.79 71.98 28.79 71.98 C 28.03 71.98 27.38 72.27 26.74 72.68 C 25.86
    73.27 25.16 74.03 24.63 74.91 C 23.81 76.2 23.34 77.66 22.93 79.12 C 22.87 79.24 22.87
    79.42 22.81 79.59 L 14.08 79.59 C 14.02 79.18 13.97 78.71 13.91 78.3 C 13.61 75.55 13.44
    72.8 13.5 70.04 C 13.56 66.82 13.91 63.66 14.67 60.49 C 15.37 57.62 16.37 54.93 17.89
    52.46 C 20 49.12 22.81 46.72 26.51 45.26 C 26.62 45.2 26.68 45.2 26.8 45.14 L 26.92 45.14
    L 27.09 45.49 C 28.15 47.84 29.26 50.12 30.61 52.23 C 31.43 53.58 32.6 54.57 34.06 55.04 C
    35.65 55.57 37.17 55.39 38.69 54.75 C 40.04 54.16 41.15 53.29 42.21 52.29 C 43.44 51.12
    44.44 49.83 45.43 48.42 C 45.49 48.36 45.49 48.3 45.49 48.25 C 45.37 48.36 45.26 48.48
    45.08 48.6 C 43.61 50.06 42.03 51.35 40.22 52.35 C 39.34 52.87 38.34 53.29 37.35 53.46 C
    35.88 53.75 34.53 53.58 33.36 52.52 C 32.89 52.11 32.54 51.64 32.19 51.18 C 30.43 48.42
    28.91 45.55 27.5 42.62 C 27.21 42.04 26.97 41.45 26.92 40.75 C 26.8 39.75 27.09 38.87
    27.79 38.11 C 28.32 37.58 28.91 37.17 29.61 36.82 C 30.9 36.18 32.25 35.71 33.6 35.24 C
    35.59 34.59 37.64 34.12 39.75 33.83 C 42.15 33.48 44.61 33.42 47.07 33.71 C 52.35 34.24
    57.03 36.18 61.31 39.28 C 62.77 40.34 64.3 41.21 66.06 41.74 C 73.03 43.97 78.6 39.16
    79.88 34.24 C 80.24 32.89 80.35 31.55 79.83 30.26 C 79.06 28.27 77.72 26.74 75.55 26.16 C
    73.91 25.75 72.33 25.92 70.8 26.74 C 70.51 26.92 70.22 27.04 69.92 27.15 C 69.22 27.39
    68.75 27.21 68.4 26.57 C 67.93 25.75 67.58 24.93 67.17 24.05 C 66.99 23.7 67.05 23.4 67.23
    23.11 C 67.4 22.7 67.7 22.41 68.05 22.11 C 68.93 21.41 69.98 20.94 71.15 20.71 C 74.02
    20.06 76.72 20.47 79.3 21.76 C 81.35 22.76 82.93 24.28 84.1 26.27 C 85.22 28.15 85.98
    30.14 86.33 32.31 C 86.56 34.01 86.56 35.65 86.39 37.35 C 86.04 40.28 85.22 43.03 84.04
    45.73 C 82.52 49.24 80.76 52.64 78.6 55.8 C 77.54 57.33 76.43 58.79 75.37 60.26 C 74.26
    61.84 73.15 63.42 72.33 65.18 C 71.21 67.46 70.57 69.81 70.33 72.33 C 70.16 74.5 70.27
    76.61 70.63 78.77 C 70.69 79.12 70.74 79.36 70.74 79.59 L 70.74 79.59 M 65.94 49.48 C
    66.11 50.88 65.65 51.82 64.36 52.35 C 63.42 52.7 62.25 52.41 61.66 51.59 C 60.72 50.36
    61.02 49.24 62.07 48.19 C 61.02 47.84 59.96 47.48 58.97 47.19 C 58.73 47.78 58.61 48.66
    58.67 49.36 C 58.79 50.77 59.32 51.94 60.49 52.7 C 61.72 53.52 63.13 53.87 64.59 53.58 C
    66.11 53.29 67.29 52.41 68.11 51.12 C 68.28 50.88 68.4 50.65 68.4 50.3 C 67.58 50.06 66.76
    49.77 65.94 49.48 L 65.94 49.48" />
</svg>
