<svg xmlns="http://www.w3.org/2000/svg" viewBox="0 0 100 100" width="100" height="100">
  <circle
      cx="50" cy="50" r="50"
      fill="#454548" />
  <g fill="#E434AA">
    <path d="M 23.28 69.25 L 20.58 67.69 L 50.61 15.68 L 53.3 17.24 L 23.28 69.25" />
    <path d="M 19.96 63.54 L 80.02 63.54 L 80.02 66.65 L 19.96 66.65 L 19.96 63.54" />
    <path d="M 51.19 82.63 L 21.15 65.29 L 22.71 62.59 L 52.75 79.94 L 51.19 82.63 M 77.28
      37.43 L 47.25 20.08 L 48.8 17.39 L 78.84 34.73 L 77.28 37.43" />
    <path d="M 22.72 37.42 L 21.16 34.72 L 51.2 17.38 L 52.76 20.07 L 22.72 37.42" />
    <path d="M 76.73 69.25 L 46.7 17.24 L 49.4 15.68 L 79.43 67.69 L 76.73 69.25 M 22.34
      32.66 L 25.46 32.66 L 25.46 67.34 L 22.34 67.34 L 22.34 32.66" />
    <path d="M 74.54 32.66 L 77.66 32.66 L 77.66 67.34 L 74.54 67.34 L 74.54 32.66" />
    <path d="M 50.66 81.31 L 49.3 78.96 L 75.43 63.87 L 76.79 66.23 L 50.66 81.31" />
    <path d="M 81.78 68.36 C 79.98 71.49 75.97 72.56 72.84 70.76 C 69.71 68.96 68.64 64.94
      70.44 61.81 C 72.24 58.68 76.25 57.61 79.38 59.41 C 82.53 61.23 83.6 65.22 81.78
      68.36 M 29.55 38.19 C 27.74 41.32 23.73 42.39 20.6 40.59 C 17.47 38.79 16.4 34.77
      18.2 31.64 C 20 28.51 24.01 27.44 27.14 29.24 C 30.28 31.06 31.34 35.06 29.55 38.19
      M 18.22 68.36 C 16.42 65.22 17.49 61.23 20.62 59.41 C 23.75 57.61 27.74 58.68 29.56
      61.81 C 31.36 64.94 30.29 68.94 27.16 70.76 C 24.01 72.56 20.02 71.49 18.22 68.36 M
      70.46 38.19 C 68.66 35.06 69.73 31.06 72.86 29.24 C 75.99 27.44 79.98 28.51 81.8
      31.64 C 83.6 34.77 82.53 38.77 79.4 40.59 C 76.27 42.39 72.26 41.32 70.46 38.19 M 50
      86.71 A 6.54 6.54 0 0 1 43.46 80.17 A 6.54 6.54 0 0 1 50 73.62 A 6.54 6.54 0 0 1
      56.54 80.17 C 56.54 83.77 53.62 86.71 50 86.71 M 50 26.37 A 6.54 6.54 0 0 1 43.46
      19.83 A 6.54 6.54 0 0 1 50 13.29 A 6.54 6.54 0 0 1 56.54 19.83 A 6.54 6.54 0 0 1 50
      26.37" />
  </g>
</svg>
