<svg xmlns="http://www.w3.org/2000/svg" viewBox="0 0 100 100" width="100" height="100">
  <circle
      cx="50" cy="50" r="50"
      fill="#454548" />
  <path fill="#E44D26" d="M 23.65 79.22 L 17.79 13.47 L 82.21 13.47 L 76.34 79.21 L 49.96
    86.53 L 23.65 79.22" />
  <path fill="#F16529" d="M 50 80.94 L 71.32 75.03 L 76.33 18.85 L 50 18.85 L 50 80.94" />
  <path fill="#EBEBEB" d="M 50 43.24 L 39.33 43.24 L 38.59 34.98 L 50 34.98 L 50 26.91 L
    29.78 26.91 L 29.97 29.08 L 31.95 51.3 L 50 51.3 L 50 43.24 M 50 64.18 L 49.96 64.19 L
    40.98 61.76 L 40.41 55.33 L 32.31 55.33 L 33.44 67.99 L 49.96 72.58 L 50 72.57 L 50 64.18" />
  <path fill="#fff" d="M 49.97 43.24 L 49.97 51.3 L 59.9 51.3 L 58.97 61.76 L 49.97 64.19
    L 49.97 72.58 L 66.5 67.99 L 66.63 66.63 L 68.52 45.4 L 68.72 43.24 L 66.54 43.24 L 49.97
    43.24 M 49.97 26.91 L 49.97 34.98 L 69.45 34.98 L 69.61 33.17 L 69.98 29.08 L 70.17 26.91
    L 49.97 26.91" />
</svg>
