<svg xmlns="http://www.w3.org/2000/svg" viewBox="0 0 100 100" width="100" height="100">

  <linearGradient id="a" gradientUnits="userSpaceOnUse" x1="98.293" y1="237.026"
    x2="74.286" y2="215.319" gradientTransform="matrix(.985 0 0 -.985 6.128 272.439)">
    <stop offset="0" stop-color="#C0CDF9" />
    <stop offset="1" stop-color="#07092D" stop-opacity=".588" />
  </linearGradient>
  <linearGradient id="b" gradientUnits="userSpaceOnUse" x1="33.173" y1="245.076"
    x2="60.308" y2="217.941" gradientTransform="matrix(1.003 0 0 -1.003 -.413 276.586)">
    <stop offset="0" stop-color="#fff" />
    <stop offset="1" stop-color="#fff" stop-opacity="0" />
  </linearGradient>
  <linearGradient id="c" gradientUnits="userSpaceOnUse" x1="48.612" y1="250.177"
    x2="81.173" y2="217.616" gradientTransform="matrix(.994 0 0 -.994 2.709 274.439)">
    <stop offset="0" stop-color="#fff" />
    <stop offset="1" stop-color="#fff" stop-opacity="0" />
  </linearGradient>
  <radialGradient id="d" cx="51.136" cy="13.518" r="33.212"
    gradientTransform="matrix(.827 0 0 -.553 1.123 126.746)" gradientUnits="userSpaceOnUse">
    <stop offset="0" stop-color="#fff" />
    <stop offset="1" stop-color="#fff" stop-opacity="0" />
  </radialGradient>
  <radialGradient id="e" cx="147.452" cy="14.758" r="33.212"
    gradientTransform="matrix(1.055 0 0 -.706 -97.55 130.348)" gradientUnits="userSpaceOnUse">
    <stop offset="0" stop-color="#fff" />
    <stop offset="1" stop-color="#fff" stop-opacity="0" />
  </radialGradient>
  <radialGradient id="f" cx="-53.737" cy="94.673" r="37.174"
    gradientTransform="matrix(.526 0 0 -.223 130.969 98.356)" gradientUnits="userSpaceOnUse">
    <stop offset="0" stop-color="#fff" />
    <stop offset="1" stop-color="#fff" stop-opacity="0" />
  </radialGradient>
  <radialGradient id="g" cx="-45.82" cy="80.197" r="37.174"
    gradientTransform="matrix(.526 0 0 -.223 130.969 97.429)" gradientUnits="userSpaceOnUse">
    <stop offset="0" stop-color="#fff" />
    <stop offset="1" stop-color="#fff" stop-opacity="0" />
  </radialGradient>
  <radialGradient id="h" cx="-34.115" cy="13.297" r="15.297"
    gradientTransform="matrix(.526 0 0 -.078 130.969 98.77)" gradientUnits="userSpaceOnUse">
    <stop offset="0" stop-color="#fff" />
    <stop offset="1" stop-color="#fff" stop-opacity="0" />
  </radialGradient>
  <radialGradient id="i" cx="-645.599" cy="1737.484" r="15.297"
    gradientTransform="matrix(.20 -.10 -.035 -.07 297.35 162.15)" gradientUnits="userSpaceOnUse">
    <stop offset="0" stop-color="#fff" />
    <stop offset="1" stop-color="#fff" stop-opacity="0" />
  </radialGradient>
  <radialGradient id="j" cx="-185.187" cy="69.66" r="24.692"
    gradientTransform="matrix(.526 0 0 -.214 130.969 105.831)" gradientUnits="userSpaceOnUse">
    <stop offset="0" stop-color="#fff" stop-opacity=".33" />
    <stop offset="1" stop-color="#fff" stop-opacity="0" />
  </radialGradient>
  <radialGradient id="k" cx="193.011" cy="256.754" r="59.425"
    gradientTransform="matrix(1.712 0 0 -1.685 -261.607 451.789)" >
    <stop offset="0" stop-color="#fff" />
    <stop offset="1" stop-color="#000000" stop-opacity=".5" />
  </radialGradient>
  <linearGradient id="l" gradientUnits="userSpaceOnUse" x1="-224.589" y1="68.903"
    x2="-161.637" y2="52.258" gradientTransform="matrix(.485 0 0 -.485 149.184 125.791)">
    <stop offset="0" stop-color="#fff" />
    <stop offset="1" stop-color="#fff" stop-opacity="0" />
  </linearGradient>
  <linearGradient id="m" gradientUnits="userSpaceOnUse" x1="13.153" y1="197.768"
    x2="9.253" y2="188.832" gradientTransform="matrix(.88 0 0 -.88 42.035 252.063)">
    <stop offset="0" stop-color="#EEEEEC" />
    <stop offset="1" stop-color="#EEEEEC" stop-opacity="0" />
  </linearGradient>
  <radialGradient id="n" cx="26.356" cy="55.589" r="24.385"
    gradientTransform="matrix(.656 0 0 -.834 66.991 147.128)" gradientUnits="userSpaceOnUse">
    <stop offset="0" stop-color="#fff" />
    <stop offset="1" stop-color="#fff" stop-opacity="0" />
  </radialGradient>
  <linearGradient id="o" gradientUnits="userSpaceOnUse" x1="-245.694" y1="88.661"
    x2="-235.88" y2="80.864" gradientTransform="matrix(.49 0 0 -.49 147.66 125.008)">
    <stop offset="0" stop-color="#fff" />
    <stop offset="1" stop-color="#fff" stop-opacity="0" />
  </linearGradient>
  <linearGradient id="p" gradientUnits="userSpaceOnUse" x1="-115.448" y1="55.254"
    x2="-144.875" y2="134.487" gradientTransform="matrix(.485 0 0 -.485 149.184 125.791)">
    <stop offset="0" stop-color="#729FCF" />
    <stop offset="1" stop-color="#729FCF" stop-opacity="0" />
  </linearGradient>
 
  <g transform="matrix(.994 0 0 .994 .389 -1.445)">
    <path opacity=".783" d="M 43.74 17.31 L 17.49 44.15 C 7.59 54.05 23.94 53.23 29.86
      56.98 C 32.61 58.74 21.07 61.02 23.41 63.42 C 25.69 65.77 37.24 67.93 39.52
      70.22 C 41.81 72.56 34.89 75.02 37.18 77.43 C 39.41 79.77 44.74 77.54 45.68
      82.88 C 46.38 86.8 55.46 84.87 59.56 81.47 C 62.08 79.3 55.17 79.3 57.45 76.96 
      C 63.19 71.16 68.29 74.32 70.34 68.99 C 71.52 66.12 61.67 64.07 64.31 62.25 C 
      70.58 57.86 93.43 55.63 82.88 45.08 L 55.75 17.31 C 52.36 14.15 46.85 14.15
      43.74 17.31 L 43.74 17.31 M 73.8 68.99 C 73.8 70.34 84.17 71.1 83.59 68.7 C
      82.77 64.59 74.91 64.95 73.8 68.99 M 29.62 76.08 C 31.96 78.13 35.54 75.61
      36.65 72.8 C 34.37 69.75 25.93 72.92 29.62 76.08 M 72.51 71.8 C 69.58 74.5
      73.04 77.25 75.91 75.43 C 76.67 74.91 75.85 72.45 72.51 71.8" />
    <path opacity=".576" d="M 43.74 17.9 L 17.49 44.73 C 7.59 54.69 23.94 53.87 29.86 
      57.62 C 32.61 59.38 21.07 61.67 23.41 64.07 C 25.69 66.41 37.24 68.58 39.52
      70.86 C 41.81 73.21 34.89 75.67 37.18 78.07 C 39.41 80.42 44.74 78.19 45.68
      83.52 C 46.38 87.45 55.46 85.51 59.56 82.11 C 62.08 79.95 55.17 79.95 57.45
      77.6 C 63.19 71.8 68.29 74.97 70.34 69.63 C 71.52 66.76 61.67 64.71 64.31 62.9 
      C 70.52 58.5 93.43 56.27 82.88 45.73 L 55.75 17.9 C 52.36 14.73 46.85 14.73
      43.74 17.9 L 43.74 17.9 M 73.8 69.63 C 73.8 70.98 84.17 71.74 83.59 69.34 C
      82.77 65.24 74.91 65.53 73.8 69.63 M 29.62 76.67 C 31.96 78.72 35.54 76.2 36.65 
      73.38 C 34.37 70.4 25.93 73.56 29.62 76.67 M 72.51 72.45 C 69.58 75.14 73.04
      77.9 75.91 76.08 C 76.67 75.55 75.85 73.03 72.51 72.45" />
    <path d="M 43.74 16.67 L 17.49 43.51 C 7.59 53.41 23.94 52.59 29.86 56.34 C 32.61 
      58.1 21.07 60.38 23.41 62.79 C 25.69 65.13 37.24 67.3 39.52 69.58 C 41.81 71.93 
      34.89 74.39 37.18 76.79 C 39.41 79.13 44.74 76.91 45.68 82.24 C 46.38 86.16
      55.46 84.23 59.56 80.83 C 62.08 78.66 55.17 78.66 57.45 76.32 C 63.19 70.52
      68.29 73.68 70.34 68.35 C 71.52 65.48 61.67 63.43 64.31 61.61 C 70.52 57.22
      93.43 54.99 82.88 44.45 L 55.75 16.67 C 52.36 13.51 46.85 13.51 43.74 16.67 M 
      73.8 68.35 C 73.8 69.7 84.17 70.46 83.59 68.06 C 82.77 64.02 74.91 64.31 73.8 
      68.35 M 29.62 75.44 C 31.96 77.49 35.54 74.97 36.65 72.16 C 34.37 69.11 25.93 
      72.34 29.62 75.44 M 72.51 71.16 C 69.58 73.86 73.04 76.61 75.91 74.8 C 76.67
      74.27 75.85 71.81 72.51 71.16" />
    <path d="M 43.74 16.67 L 17.49 43.51 C 7.59 53.41 23.94 52.59 29.86 56.34 C 32.61 
      58.1 21.07 60.38 23.41 62.79 C 25.69 65.13 37.24 67.3 39.52 69.58 C 41.81 71.93 
      34.89 74.39 37.18 76.79 C 39.41 79.13 44.74 76.91 45.68 82.24 C 46.38 86.16
      55.46 84.23 59.56 80.83 C 62.08 78.66 55.17 78.66 57.45 76.32 C 63.19 70.52
      68.29 73.68 70.34 68.35 C 71.52 65.48 61.67 63.43 64.31 61.61 C 70.52 57.22
      93.43 54.99 82.88 44.45 L 55.75 16.67 C 52.36 13.51 46.85 13.51 43.74 16.67 M 
      73.8 68.35 C 73.8 69.7 84.17 70.46 83.59 68.06 C 82.77 64.02 74.91 64.31 73.8 
      68.35 M 29.62 75.44 C 31.96 77.49 35.54 74.97 36.65 72.16 C 34.37 69.11 25.93 
      72.34 29.62 75.44 M 72.51 71.16 C 69.58 73.86 73.04 76.61 75.91 74.8 C 76.67
      74.27 75.85 71.81 72.51 71.16" />
    <path d="M 43.8 16.97 L 17.84 43.57 C 8 53.41 24.17 52.59 30.03 56.28 C 32.73
      58.04 21.36 60.32 23.64 62.67 C 25.93 65.01 37.3 67.12 39.58 69.41 C 41.87
      71.75 35.01 74.21 37.24 76.5 C 39.46 78.84 44.74 76.61 45.68 81.89 C 46.38
      85.81 55.4 83.82 59.39 80.48 L 57.34 76.03 C 63.02 70.29 68.06 73.45 70.11
      68.18 C 71.22 65.36 61.55 63.31 64.13 61.5 C 70.28 57.16 92.96 54.93 82.53 44.5 
      L 55.64 16.97 C 52.36 13.86 46.85 13.86 43.8 16.97 L 43.8 16.97 M 37.53 57.75 C 
      38.12 57.75 56.93 60.27 49.66 62.2 C 46.91 62.96 34.19 57.75 37.53 57.75 M
      73.57 68.18 C 73.57 69.52 83.82 70.23 83.29 67.88 C 82.47 63.84 74.68 64.19
      73.57 68.18 L 73.57 68.18 M 29.8 75.21 C 32.14 77.2 35.66 74.74 36.77 71.93 C 
      34.54 68.94 26.16 72.1 29.8 75.21 M 72.34 70.99 C 69.46 73.63 72.86 76.38 75.68 
      74.56 C 76.38 74.04 75.56 71.57 72.34 70.99" />
    <g transform="matrix(.991 0 0 .991 .605 .604)">
      <path fill="url(#a)" d="M 43.8 16.97 L 17.84 43.57 C 8 53.41 24.17 52.59 30.03 
        56.28 C 32.73 58.04 21.36 60.32 23.64 62.67 C 25.93 65.01 37.3 67.12 39.58
        69.41 C 41.87 71.75 35.01 74.21 37.24 76.5 C 39.46 78.84 44.74 76.61 45.68
        81.89 C 46.38 85.81 55.4 83.82 59.39 80.48 L 57.34 76.03 C 63.02 70.29 68.06 
        73.45 70.11 68.18 C 71.22 65.36 61.55 63.31 64.13 61.5 C 70.28 57.16 92.96
        54.93 82.53 44.5 L 55.64 16.97 C 52.36 13.86 46.85 13.86 43.8 16.97 L 43.8
        16.97 M 37.53 57.75 C 38.12 57.75 56.93 60.27 49.66 62.2 C 46.91 62.96 34.19 
        57.75 37.53 57.75 M 73.57 68.18 C 73.57 69.52 83.82 70.23 83.29 67.88 C 82.47 
        63.84 74.68 64.19 73.57 68.18 L 73.57 68.18 M 29.8 75.21 C 32.14 77.2 35.66 
        74.74 36.77 71.93 C 34.54 68.94 26.16 72.1 29.8 75.21 M 72.34 70.99 C 69.46 
        73.63 72.86 76.38 75.68 74.56 C 76.38 74.04 75.56 71.57 72.34 70.99" />
    </g>
    <path fill="url(#b)" opacity=".505" d="M 19.84 44.97 C 12.69 52 25.23 50.07 34.84 
      53.82 L 54.76 18.84 C 51.77 15.73 47.9 16.03 45.15 18.84 L 19.84 44.97" />
    <path fill="url(#c)" d="M 54.17 18.61 L 64.54 29.15 C 65.48 30.09 65.48 32.08
      64.95 32.67 L 59.8 28.45 L 58.8 34.6 L 54.52 32.32 L 47.61 36.71 L 45.32 27.51 
      L 41.63 35.54 L 32.32 35.42 C 30.56 35.42 30.79 33.61 32.61 31.73 C 36.24 27.75 
      43.27 20.89 45.5 18.55 C 47.84 16.2 51.83 16.32 54.17 18.61 L 54.17 18.61" />
    <path fill="url(#d)" opacity=".217" d="M 39.93 68.47 C 39.93 68.47 41.05 70.17
      40.93 70.99 C 40.69 72.57 37.3 73.39 38.06 74.8 C 38.82 76.2 41.52 75.38 43.74 
      76.85 C 45.97 78.31 45.38 81.24 47.02 82 C 50.19 83.47 58.62 79.48 58.16 79.6 C 
      57.75 79.66 49.89 81.3 48.14 79.89 C 46.14 78.25 45.56 77.14 44.03 76.14 C
      42.63 75.27 40.69 74.86 40.23 74.15 C 39.76 73.39 41.16 72.45 41.22 71.05 C
      41.34 70.11 39.93 68.47 39.93 68.47 L 39.93 68.47" />
    <path fill="url(#e)" opacity=".276" d="M 39.93 68.47 C 39.93 68.47 41.05 70.17
      40.93 70.99 C 40.69 72.57 37.3 73.39 38.06 74.8 C 38.82 76.2 41.52 75.38 43.74 
      76.85 C 45.97 78.31 45.38 81.24 47.02 82 C 50.19 83.47 58.62 79.48 58.16 79.6 C 
      44.21 79.66 46.85 76.09 41.46 73.68 C 40.69 73.33 41.11 72.39 41.22 70.99 C
      41.34 70.11 39.93 68.47 39.93 68.47 L 39.93 68.47" />
    <path fill="url(#f)" opacity=".453" d="M 63.61 61.14 C 76.09 56.57 80.13 55.93
      84.23 51.77 C 79.43 55.81 69.35 57.98 61.14 61.55 L 63.61 61.14 L 63.61 61.14" />
    <path fill="url(#g)" opacity=".512" d="M 63.61 60.56 C 84.17 53.29 80.71 53.29
      84.23 51.18 C 77.67 53.7 65.48 53.94 61.14 60.97 L 63.61 60.56" />
    <path fill="url(#h)" d="M 73.98 68.29 C 75.27 69.47 82.3 70.05 83.47 67.94 C
      81.18 69.58 76.14 69 73.98 68.29" />
    <path fill="url(#i)" d="M 72.22 74.56 C 73.21 75.38 77.08 75.44 75.62 73.16 C
      76.03 74.97 73.39 74.8 72.22 74.56" />
    <path fill="url(#j)" d="M 24.82 62.55 C 24.82 62.38 37.94 66.54 40.17 68.82 C 38.35
      67 28.98 62.9 27.57 62.84 C 26.16 62.79 24.99 62.67 24.82 62.55 L 24.82 62.55" />
    <path stroke="url(#k)" stroke-width=".488" d="M 49.66 15.21 C 47.67 15.21 45.73
      15.91 44.39 17.32 L 18.19 44.15 C 15.79 46.55 15.21 48.14 15.38 49.02 C 15.44
      49.48 15.68 49.84 16.14 50.25 C 16.61 50.66 17.32 51.07 18.14 51.42 C 19.84
      52.12 22.06 52.71 24.29 53.29 C 26.52 53.88 28.68 54.52 30.32 55.58 C 30.56
      55.75 30.79 55.93 30.97 56.22 C 31.14 56.52 31.2 56.87 31.14 57.22 C 31.03
      57.86 30.62 58.22 30.21 58.51 C 29.39 59.15 28.27 59.62 27.16 60.15 C 26.05
      60.68 24.93 61.26 24.35 61.67 C 24.05 61.91 23.94 62.08 24 62.08 C 24 62.08
      23.94 61.91 24.05 62.02 C 24.41 62.38 25.52 63.02 26.93 63.55 C 28.33 64.07
      30.03 64.66 31.73 65.19 C 33.43 65.77 35.19 66.3 36.65 66.89 C 38.12 67.47
      39.35 68 40.11 68.82 C 40.52 69.23 40.81 69.76 40.87 70.23 C 40.93 70.75 40.81 
      71.22 40.58 71.63 C 40.17 72.45 39.52 73.1 39 73.68 C 38.41 74.27 37.88 74.86 
      37.71 75.27 C 37.59 75.44 37.59 75.56 37.59 75.68 C 37.59 75.73 37.59 75.85
      37.77 76.03 C 38.53 76.85 40.17 76.97 42.04 77.38 C 42.98 77.61 43.98 77.9
      44.8 78.66 C 45.62 79.43 46.26 80.48 46.55 82 C 46.67 82.65 47.02 82.94 47.78 
      83.18 C 48.61 83.41 49.84 83.47 51.18 83.29 C 53.88 82.88 57.1 81.59 58.92
      80.07 L 59.03 79.95 C 58.92 79.84 58.62 79.66 58.16 79.43 C 57.57 79.13 56.93 
      78.9 56.4 78.25 C 56.16 77.9 55.99 77.43 56.05 76.91 C 56.11 76.38 56.4 75.97 
      56.75 75.62 C 59.8 72.57 62.73 71.81 64.95 71.22 C 66.07 70.93 67 70.64 67.71 
      70.23 C 68.41 69.76 69 69.17 69.46 68 C 69.52 67.88 69.52 67.82 69.46 67.71 C 
      69.41 67.53 69.23 67.3 68.94 67.06 C 68.35 66.54 67.36 66.01 66.36 65.42 C
      65.36 64.89 64.43 64.37 63.72 63.72 C 63.37 63.37 63.02 63.02 62.96 62.38 C
      62.9 61.73 63.31 61.2 63.78 60.85 C 65.54 59.62 68.18 58.68 71.05 57.69 C
      73.92 56.69 77.02 55.64 79.48 54.47 C 82 53.29 83.82 51.95 84.41 50.6 C 84.7 
      49.89 84.76 49.25 84.46 48.31 C 84.17 47.38 83.47 46.32 82.18 45.09 L 55.11
      17.38 C 53.59 15.91 51.59 15.21 49.66 15.21 L 49.66 15.21 M 78.84 66.13 C
      77.14 66.18 75.62 66.95 74.97 68.18 C 75.15 68.23 75.32 68.35 75.62 68.41 C
      76.5 68.59 77.73 68.76 78.9 68.76 C 80.07 68.76 81.3 68.7 82.06 68.47 C 82.36 
      68.35 82.53 68.29 82.65 68.23 C 82.47 67.53 82.12 67.06 81.42 66.71 C 80.77
      66.24 79.78 66.07 78.84 66.13 M 34.02 71.87 C 32.67 71.75 31.03 72.28 30.21
      72.98 C 29.8 73.33 29.62 73.63 29.62 73.8 C 29.62 73.98 29.68 74.27 30.21
      74.74 C 31.09 75.5 32.02 75.38 33.14 74.8 C 34.07 74.27 34.89 73.33 35.42
      72.34 C 35.07 72.1 34.6 71.93 34.02 71.87 M 72.8 72.28 C 72.51 72.63 72.39
      72.98 72.34 73.22 C 72.34 73.57 72.39 73.8 72.63 74.04 C 73.1 74.5 74.09 74.68 
      75.15 74.09 C 75.15 73.98 75.09 73.8 74.91 73.57 C 74.68 73.1 73.92 72.57 72.8 
      72.28 L 72.8 72.28" fill="none" />
    <path fill="url(#l)" opacity=".325" d="M 35.25 57.22 C 33.66 57.69 28.57 59.62 
      29.27 61.09 C 29.97 62.49 41.87 63.08 43.68 67.3 C 44.5 69.11 41.87 70.52
      42.51 72.39 C 43.04 73.86 46.96 77.49 49.48 79.25 C 51.48 80.6 54.05 78.14 53 
      76.14 C 51.36 72.92 58.8 69 62.14 67.18 C 64.07 66.13 58.1 60.97 58.1 60.97 L 
      35.25 57.22 L 35.25 57.22" />
    <path fill="url(#m)" d="M 35.83 58.68 C 37.24 59.74 40.05 59.09 41.75 59.86 C
      45.79 61.67 50.77 63.72 49.84 60.09 L 48.84 60.97 L 48.84 59.33 L 46.44 59.91 
      C 46.44 59.91 44.56 58.45 43.74 57.92 C 43.57 57.8 42.63 58.74 42.63 58.74 L 
      42.45 57.75 C 41.28 57.63 40.11 57.57 39.05 57.57 C 36.59 57.63 34.95 57.98
      35.83 58.68 L 35.83 58.68" />
    <path fill="url(#n)" opacity=".478" d="M 62.37 61.97 C 61.85 63.96 69.11 66.71 
      68.53 68.12 C 67.36 71.16 60.79 69.11 55.75 75.5 C 55.05 76.44 56.75 79.72
      56.52 79.31 C 56.28 78.9 54.52 76.2 54.99 74.86 C 56.4 70.7 70.23 69.11 67.71 
      67.12 C 66.24 66.01 61.03 62.84 62.37 61.97 L 62.37 61.97" />
    <path fill="#fff" opacity=".586" d="M 78.72 66.13 C 78.72 66.3 78.37 66.48
      77.9 66.48 C 77.43 66.48 77.08 66.3 77.08 66.13 C 77.08 65.95 77.43 65.77 77.9 
      65.77 C 78.37 65.77 78.72 65.95 78.72 66.13 M 73.39 72.22 C 73.39 72.39 73.16 
      72.57 72.86 72.57 C 72.57 72.57 72.34 72.39 72.34 72.22 C 72.34 72.04 72.57
      71.87 72.86 71.87 C 73.16 71.87 73.39 72.04 73.39 72.22 M 33.14 71.93 C 33.14 
      72.1 32.73 72.28 32.26 72.28 C 31.79 72.28 31.38 72.1 31.38 71.93 C 31.38
      71.75 31.79 71.57 32.26 71.57 C 32.73 71.57 33.14 71.75 33.14 71.93" />
    <path fill="url(#o)" opacity=".251" d="M 32.61 57.39 C 28.04 60.21 21.01 61.2
      28.74 63.08 C 27.8 61.03 30.73 61.26 32.61 57.39" />
    <path fill="url(#p)" opacity=".363" d="M 48.78 83 C 48.78 83 55.81 82.36 57.39 
      80.3 C 58.33 79.13 53.64 77.73 54.64 76.55 C 58.45 72.22 61.67 72.39 66.12
      70.52 C 70.58 68.7 68.94 67.82 67.47 67 C 65.01 65.66 59.5 64.19 61.32 60.91 C 
      63.14 57.63 79.13 53.06 79.13 53.06 C 84 51.42 83.35 48.43 81.01 45.91 L 66.77 
      31.79 C 66.77 31.79 67.47 45.27 64.6 51.07 C 61.03 58.16 42.1 66.13 50.01 67 C 
      52.82 67.3 54.17 68.29 55.28 70.4 C 57.63 74.86 48.78 83 48.78 83" />
  </g>
</svg>
