<svg xmlns="http://www.w3.org/2000/svg" viewBox="0 0 100 100" width="100" height="100">
  <circle
      cx="50" cy="50" r="50"
      fill="#454548" />
  <linearGradient id="a" gradientUnits="userSpaceOnUse" x1="11.16" y1="59.21" x2="58.94" 
    y2="56.78" gradientTransform="rotate(.104) scale(1.21905)">
    <stop offset=".09" stop-color="#fc801d" /> <stop offset=".23" stop-color="#b07f61" />
    <stop offset=".41" stop-color="#577db3" /> <stop offset=".53" stop-color="#1e7ce6" />
    <stop offset=".59" stop-color="#087cfa" />
  </linearGradient>
  <linearGradient id="b" gradientUnits="userSpaceOnUse" x1="89.05" y1="54.12" x2="73.12"
    y2="6.52" gradientTransform="rotate(.104) scale(1.21905)">
    <stop offset="0" stop-color="#fe2857" /> <stop offset=".08" stop-color="#cb3979" />
    <stop offset=".16" stop-color="#9e4997" /> <stop offset=".25" stop-color="#7557b2" />
    <stop offset=".34" stop-color="#5362c8" /> <stop offset=".44" stop-color="#386cda" />
    <stop offset=".54" stop-color="#2373e8" /> <stop offset=".66" stop-color="#1478f2" />
    <stop offset=".79" stop-color="#0b7bf8" /> <stop offset="1" stop-color="#087cfa" />
  </linearGradient>
  <linearGradient id="c" gradientUnits="userSpaceOnUse" x1="18.72" y1="26.61" x2="78.8" 
    y2="125.99" gradientTransform="rotate(.104) scale(1.21905)">
    <stop offset="0" stop-color="#fe2857" /> <stop offset=".08" stop-color="#fe295f" />
    <stop offset=".21" stop-color="#ff2d76" /> <stop offset=".3" stop-color="#ff318c" />
    <stop offset=".38" stop-color="#ea3896" /> <stop offset=".55" stop-color="#b248ae" />
    <stop offset=".79" stop-color="#5a63d6" /> <stop offset="1" stop-color="#087cfa" />
  </linearGradient>
  <path fill="url(#a)" d="M 26.57 64.08 L 16.49 56.11 L 22.42 45.12 L 31.34 48.11
    L 26.57 64.08" />
  <path fill="#087cfa" d="M 84.29 33.99 L 83.05 73.71 L 56.64 84.29 L 42.25 75
    L 84.29 33.99" />
  <path fill="url(#b)" d="M 84.29 33.99 L 71.21 46.74 L 54.43 26.15 L 62.72 16.83
    L 84.29 33.99" />
  <path fill="url(#c)" d="M 42.25 75 L 21.24 82.59 L 25.64 67.19 L 31.34 48.11 L 15.71
    42.88 L 25.64 15.71 L 48.09 18.36 L 71.21 46.74 L 42.25 75" />
  <path fill="#000" d="M 28.88 28.57 L 71.74 28.57 L 71.74 71.43 L 28.88 71.43
    L 28.88 28.57" />
  <path fill="#fff" d="M 34.22 63.33 L 50.29 63.33 L 50.29 66.01 L 34.22 66.01 L 34.22 63.33 
    M 42.24 36.87 L 42.24 33.94 L 34.25 33.94 L 34.25 36.87 L 36.49 36.87 L 36.49 46.99 L
    34.25 46.99 L 34.25 49.91 L 42.24 49.91 L 42.24 46.99 L 40.01 46.99 L 40.01 36.87 L 42.24 
    36.87 M 49.91 50.14 A 6.33 6.33 0 0 1 46.77 49.43 A 7.21 7.21 0 0 1 44.69 47.74 L 46.89
    45.28 C 47.3 45.73 47.76 46.13 48.28 46.45 A 2.84 2.84 0 0 0 49.82 46.88 A 2.03 2.03 0 0 0 
    51.38 46.26 A 2.97 2.97 0 0 0 51.95 44.24 L 51.95 33.93 L 55.52 33.93 L 55.52 44.39 A 7.26 
    7.26 0 0 1 55.13 46.88 A 4.64 4.64 0 0 1 52.22 49.74 A 7.09 7.09 0 0 1 49.86 50.11" />
</svg>
