<svg xmlns="http://www.w3.org/2000/svg" viewBox="0 0 100 100" width="100" height="100">
  <path fill="#F0DB4F" d="M 20.66 20.66 L 79.34 20.66 L 79.34 79.34 L 20.66 79.34
    L 20.66 20.66" />
  <path fill="#323330" d="M 74.54 65.34 C 74.11 62.67 72.36 60.42 67.19 58.32 C 65.4
    57.5 63.39 56.91 62.8 55.54 C 62.58 54.75 62.56 54.31 62.69 53.83 C 63.07 52.27 64.93 
    51.79 66.4 52.23 C 67.35 52.55 68.25 53.28 68.79 54.45 C 71.32 52.81 71.32 52.82
    73.09 51.69 C 72.44 50.69 72.09 50.22 71.67 49.79 C 70.15 48.09 68.07 47.22 64.75
    47.28 L 63.03 47.51 C 61.37 47.93 59.79 48.8 58.86 49.96 C 56.09 53.11 56.88 58.63
    60.26 60.9 C 63.59 63.4 68.48 63.97 69.11 66.3 C 69.71 69.17 67 70.09 64.31 69.76 C 
    62.32 69.35 61.22 68.34 60.02 66.51 C 57.83 67.78 57.83 67.78 55.57 69.08 C 56.1
    70.25 56.67 70.78 57.56 71.79 C 61.81 76.1 72.45 75.89 74.36 69.37 C 74.44 69.14
    74.95 67.65 74.54 65.34 L 74.54 65.34 M 52.56 47.63 L 47.07 47.63 L 47.05 61.82 C
    47.05 64.84 47.21 67.6 46.71 68.45 C 45.91 70.12 43.83 69.91 42.88 69.59 C 41.92
    69.11 41.43 68.44 40.86 67.49 C 40.7 67.21 40.58 67 40.55 66.98 L 36.08 69.72 C 36.82 
    71.24 37.92 72.56 39.32 73.42 C 41.41 74.68 44.22 75.06 47.16 74.39 C 49.07 73.83
    50.73 72.67 51.59 70.92 C 52.84 68.61 52.57 65.82 52.56 62.74 C 52.59 57.71 52.56
    52.68 52.56 47.63 L 52.56 47.63" />
</svg>
