<svg xmlns="http://www.w3.org/2000/svg" viewBox="0 0 100 100" width="100" height="100">
  <circle
      cx="50" cy="50" r="50"
      fill="#454548" />
  <path fill="#0074BD" d="M 40.4 69.99 C 40.4 69.99 37.61 71.62 42.39 72.17 C 48.19 72.83
    51.15 72.73 57.53 71.53 C 57.53 71.53 59.22 72.58 61.56 73.49 C 47.24 79.62 29.15 73.13
    40.4 69.99 M 38.65 61.99 C 38.65 61.99 35.52 64.31 40.3 64.8 C 46.5 65.44 51.38 65.49
    59.85 63.86 C 59.85 63.86 61.01 65.05 62.85 65.7 C 45.54 70.76 26.26 66.1 38.65 61.99 L
    38.65 61.99" />
  <path fill="#EA2D2E" d="M 53.4 48.4 C 56.93 52.46 52.47 56.12 52.47 56.12 C 52.47 56.12
    61.43 51.49 57.32 45.7 C 53.48 40.3 50.53 37.62 66.48 28.37 C 66.48 28.37 41.44 34.62
    53.4 48.4 L 53.4 48.4" />
  <path fill="#0074BD" d="M 72.34 75.92 C 72.34 75.92 74.41 77.62 70.06 78.94 C 61.8 81.44
    35.66 82.2 28.4 79.04 C 25.79 77.9 30.69 76.33 32.23 76 C 33.83 75.65 34.75 75.71 34.75
    75.71 C 31.85 73.67 15.99 79.73 26.7 81.46 C 55.89 86.2 79.91 79.33 72.34 75.92 L 72.34
    75.92 M 41.75 53.69 C 41.75 53.69 28.45 56.85 37.04 57.99 C 40.66 58.48 47.89 58.37
    54.62 57.8 C 60.12 57.34 65.65 56.35 65.65 56.35 C 65.65 56.35 63.71 57.18 62.3 58.14 C
    48.8 61.69 22.73 60.04 30.24 56.41 C 36.58 53.34 41.75 53.69 41.75 53.69 L 41.75 53.69
    M 65.59 67.02 C 79.31 59.89 72.97 53.04 68.54 53.96 C 67.46 54.18 66.97 54.38 66.97
    54.38 C 66.97 54.38 67.37 53.75 68.14 53.48 C 76.9 50.4 83.64 62.56 65.32 67.38 C 65.32
    67.38 65.53 67.19 65.59 67.02 L 65.59 67.02" />
  <path fill="#EA2D2E" d="M 57.32 13.43C 57.32 13.43 64.92 21.03 50.11 32.72 C 38.24 42.1
    47.4 47.45 50.11 53.56 C 43.17 47.3 38.09 41.8 41.5 36.67 C 46.51 29.15 60.38 25.51
    57.32 13.43" />
  <path fill="#0074BD" d="M 43.09 86.34 C 56.26 87.18 76.49 85.87 76.97 79.64 C 76.97
    79.64 76.05 82 66.09 83.88 C 54.84 85.99 40.98 85.75 32.75 84.39 C 32.75 84.39 34.44
    85.78 43.09 86.34 L 43.09 86.34" />
</svg>
