<svg xmlns="http://www.w3.org/2000/svg" viewBox="0 0 100 100" width="100" height="100">
  <circle
      cx="50" cy="50" r="50"
      fill="#454548" />
  <linearGradient id="a" gradientUnits="userSpaceOnUse" x1="32.64"
    y1="61.16" x2="82.77" y2="85.54" gradientTransform="scale(.71111)">
    <stop offset=".21" stop-color="#fe2857" /><stop offset="1" stop-color="#293896" />
  </linearGradient>
  <linearGradient id="b" gradientUnits="userSpaceOnUse" x1="17.38"
    y1="69.86" x2="82.95" y2="21.23" gradientTransform="scale(.71111)">
    <stop offset="0" stop-color="#fe2857" /><stop offset=".01" stop-color="#fe2857" />
    <stop offset=".86" stop-color="#ff318c" />
  </linearGradient>
  <linearGradient id="c" gradientUnits="userSpaceOnUse" x1="74.17"
    y1="21.58" x2="160.27" y2="99.76" gradientTransform="scale(.71111)">
    <stop offset=".02" stop-color="#ff318c" /><stop offset=".21" stop-color="#fe2857" />
    <stop offset=".86" stop-color="#fdb60d" />
  </linearGradient>
  <linearGradient id="d" gradientUnits="userSpaceOnUse" x1="155.46"
    y1="89.8" x2="55.07" y2="158.9" gradientTransform="scale(.71111)">
    <stop offset=".01" stop-color="#fdb60d" /><stop offset=".86" stop-color="#fcf84a" />
  </linearGradient>
  <path d="M 46.26 47.39 L 29.03 32.8 A 6.25 6.25 0 0 0 18.78 38.05 A 6.25 6.25 0 0 0 23
    43.51 L 23.06 43.51 L 23.22 43.56 L 44.96 50.18 C 45.11 50.24 45.28 50.27 45.45 50.27 A
    1.56 1.56 0 0 0 46.25 47.39 L 46.26 47.39" fill="url(#a)" />
  <path d="M 49.71 23.31 A 4.54 4.54 0 0 0 42.69 19.49 L 21.65 32.26 A 6.25 6.25 0 0 0
    18.84 38.1 A 6.25 6.25 0 0 0 29.11 42.26 L 47.97 26.89 L 48.12 26.77 A 4.56 4.56 0 0 0
    49.71 23.31 L 49.71 23.31" fill="url(#b)" />
  <path d="M 80.31 50.84 L 48.39 20.09 A 4.55 4.55 0 0 0 43.88 18.94 A 4.55 4.55 0 0 0
    40.72 22.36 A 4.55 4.55 0 0 0 42.22 26.76 L 42.27 26.81 L 76.19 55.39 A 3.07 3.07 0 0 0
    79.46 55.82 A 3.07 3.07 0 0 0 81.23 53.03 A 3.09 3.09 0 0 0 80.31 50.84 L 80.31 50.84" 
    fill="url(#c)" />
  <path d="M 81.23 53.04 A 3.06 3.06 0 0 0 76.37 50.54 L 37.74 69.42 A 6.25 6.25 0 1 0 44.19
    80.08 L 79.91 55.56 A 3.05 3.05 0 0 0 81.23 53.04 L 81.23 53.04" fill="url(#d)" />
  <path d="M 37.28 37.51 L 62.27 37.51 L 62.27 62.51 L 37.28 62.51 L 37.28 37.51" />
  <path d="M 39.99 57.82 L 49.37 57.82 L 49.37 59.38 L 39.99 59.38 L 39.99 57.82 M 39.6 43.95
    L 40.3 43.29 C 40.43 43.51 40.66 43.64 40.91 43.66 C 41.18 43.66 41.35 43.47 41.35 43.11
    L 41.35 40.64 L 42.43 40.64 L 42.43 43.11 A 1.44 1.44 0 0 1 42.05 44.21 A 1.47 1.47 0 0 1
    40.97 44.63 A 1.61 1.61 0 0 1 39.6 43.95 M 42.91 40.64 L 46.05 40.64 L 46.05 41.55 L 43.96
    41.55 L 43.96 42.15 L 45.84 42.15 L 45.84 42.98 L 43.98 42.98 L 43.98 43.6 L 46.07 43.6 L
    46.07 44.52 L 42.9 44.52 L 42.91 40.64 M 47.58 41.59 L 46.41 41.59 L 46.41 40.64 L 49.83
    40.64 L 49.83 41.59 L 48.66 41.59 L 48.66 44.54 L 47.58 44.54 L 47.58 41.59 M 40.04 46.08
    L 41.88 46.08 A 1.45 1.45 0 0 1 42.94 46.43 C 43.11 46.6 43.2 46.82 43.2 47.06 A 0.91 0.91
    0 0 1 42.59 47.93 C 43.05 48.02 43.38 48.42 43.37 48.89 C 43.37 49.59 42.82 50.01 41.89
    50.01 L 40.04 50.01 L 40.04 46.08 M 42.12 47.28 C 42.12 47.07 41.94 46.95 41.63 46.95 L
    41.09 46.95 L 41.09 47.64 L 41.61 47.64 C 41.94 47.64 42.13 47.52 42.13 47.3 L 42.12 47.28 
    M 41.75 48.39 L 41.09 48.39 L 41.09 49.11 L 41.77 49.11 C 42.1 49.11 42.28 48.99 42.28 
    48.76 C 42.27 48.53 42.12 48.39 41.75 48.39 L 41.75 48.39 M 43.71 46.08 L 45.44 46.08 C 
    45.9 46.04 46.36 46.19 46.71 46.5 C 46.95 46.74 47.07 47.07 47.06 47.41 A 1.25 1.25 0 0 1 
    46.25 48.61 L 47.19 50.01 L 45.94 50.01 L 45.15 48.82 L 44.79 48.82 L 44.79 50.01 L 43.7 
    50.01 L 43.71 46.08 M 45.38 47.96 C 45.74 47.96 45.96 47.78 45.96 47.49 C 45.96 47.18 
    45.73 47.02 45.38 47.02 L 44.8 47.02 L 44.8 47.97 L 45.38 47.96" fill="#fff" />
  <path d="M 48.56 46.05 L 49.6 46.05 L 51.27 49.99 L 50.11 49.99 L 49.83 49.28 L 48.32 49.28 
    L 48.04 50.01 L 46.91 50.01 L 48.56 46.05 M 49.51 48.44 L 49.07 47.34 L 48.63 48.44 L
    49.51 48.44 M 51.44 46.07 L 52.52 46.07 L 52.52 49.97 L 51.44 49.97 L 51.44 46.07 M 52.92 
    46.07 L 53.94 46.07 L 55.35 48.15 L 55.35 46.07 L 56.42 46.07 L 56.42 49.97 L 55.47 49.97 
    L 54 47.83 L 54 49.97 L 52.92 49.97 L 52.92 46.07 M 56.59 49.39 L 57.19 48.67 A 2.02 2.02 
    0 0 0 58.44 49.14 C 58.74 49.14 58.9 49.04 58.9 48.87 C 58.9 48.7 58.77 48.62 58.23 48.49 
    C 57.4 48.3 56.76 48.08 56.76 47.27 C 56.76 46.55 57.34 46.02 58.28 46.02 A 2.45 2.45 0 0 
    1 59.88 46.54 L 59.36 47.28 A 1.9 1.9 0 0 0 58.27 46.9 C 58 46.9 57.87 47.01 57.87 47.15 C 
    57.87 47.33 58.01 47.41 58.55 47.53 C 59.45 47.73 60 48.02 60 48.75 C 60 49.54 59.37 50 
    58.43 50 A 2.72 2.72 0 0 1 56.59 49.39 L 56.59 49.39" fill="#fff" /> 
</svg>
