<svg xmlns="http://www.w3.org/2000/svg" viewBox="0 0 100 100" width="100" height="100">
  <path d="M 36.29 61.32 L 40.79 61.34 L 40.84 70.12 L 36.65 70.19 L 36.43 67.47 L
  36.41 64.41 L 36.29 61.32 M 69.95 61.1 L 69.95 70.64 L 66.17 70.91 L 66.02 65.86 L
  65.56 61.2 L 69.95 61.1 M 24.92 61.07 L 31.24 61.4 L 30.68 65.15 L 30.68 68.72 L
  31.08 70.26 L 24.96 70.54 L 24.92 61.07 M 54.86 60.82 L 58.55 61.06 L 58.4 66.74 L
  58.94 71.25 L 55.01 71.11 L 54.87 60.82 L 54.86 60.82 M 43.11 35.93 L 42.98 36.7 L
  43.57 37.38 L 43.52 38.52 L 44.04 39.31 L 43.9 40.27 L 43.97 40.37 L 38.56 40.59 L
  38.62 40.14 L 36.71 39.11 L 36.65 38.1 L 37.49 38.06 L 37.58 36.3 L 43.11 35.93 M
  58.28 34.58 L 58.25 36.12 L 59.44 36.17 L 59.4 37.1 L 57.09 38.62 L 56.84 39.37 L
  51.39 39.64 L 51.42 39.1 L 51.74 38.57 L 51.77 38.12 L 51.78 37.45 L 51.97 37 L 52.06 
  36.53 L 52.06 36.26 L 52.3 35.31 L 58.28 34.58 M 84.33 16.82 L 84.09 16.94 C 77.13
  20.31 69.03 23 60.56 24.61 L 59.95 24.71 C 54.52 25.41 46.61 26.11 39.55 26.52 Q
  34.79 26.81 30.02 26.86 C 29.68 26.88 29.27 26.88 28.87 26.88 C 27.26 26.88 25.68
  26.76 24.14 26.52 L 24.31 26.54 C 21.5 25.87 19.15 25.13 16.87 24.26 L 17.28 24.4
  L 16.54 24.1 L 17.55 27.54 L 14.86 29.91 L 15.58 31.19 L 16.87 31.28 L 19.95 31.67
  L 20.43 33.17 L 22.29 33.34 L 23.22 36.49 L 23.49 36.51 C 23.49 36.51 27.41 36.85
  28.65 36.85 C 29.72 36.85 31.37 36.73 31.79 36.7 L 31.86 37.86 L 32.7 38.02 L 32.7
  38.94 L 30.36 41.02 L 30.82 41.1 C 30.41 41.13 30.15 41.16 29.35 41.19 C 28.94 41.22 
  28.45 41.23 27.96 41.23 C 27.21 41.23 26.47 41.2 25.74 41.13 L 25.83 41.14 C 25.25
  41.03 24.54 40.94 23.82 40.89 L 23.75 40.88 L 23.59 40.88 L 23.23 41.26 L 23.1 42.57 
  L 23.54 42.57 L 23.7 45.82 L 32.29 45.49 L 31.69 56.28 L 31.64 57.29 L 25.07 56.92 L 
  25.01 54.69 L 26.58 54.69 L 26.75 53.46 L 28.11 53.15 L 28.76 52.23 L 22.58 50.74 L 
  17.59 52.22 L 18.95 53.36 L 19.43 53.36 L 19.51 54.34 L 20.95 54.42 L 20.95 56.66 L 
  19.16 57.11 L 19.72 58.3 L 20.02 58.5 L 20.02 60.91 L 21.03 60.91 L 21.03 70.57 L
  19.37 70.82 L 19.66 74.47 L 20.64 74.63 L 20.47 81.49 L 25.76 81.59 L 24.82 74.84 L 
  30.62 74.7 L 30.21 77.89 L 29.48 80.91 L 37.12 81.01 L 37.2 74.33 L 41.07 73.98 L
  40.86 77.77 L 40.68 80.67 L 45.46 80.67 L 45.31 73.93 L 45.82 74.01 L 46.02 69.93 L 
  45.31 69.93 L 45.14 68.94 L 44.75 65.16 L 44.9 61.17 L 45.76 61.17 L 45.76 57.71 L
  44.69 57.78 L 44.81 55.42 L 46.07 55.3 L 46.14 54.27 L 46.64 54.19 L 48.14 53.06 L
  42.78 51.96 L 37.78 53.07 L 38.61 54.44 L 39.31 54.38 L 39.47 54.37 L 39.57 55.66 L 
  40.77 55.61 L 40.78 57.58 L 36.31 57.48 L 36.47 54.91 L 36.64 52.19 L 36.64 48.64 L 
  36.78 45.27 L 46.99 44.75 L 59.16 44.04 L 59.25 46.02 L 58.81 51.73 L 58.62 56.69 L 
  54.75 56.62 L 54.74 53.64 L 56.42 53.58 L 56.5 52.48 L 57.29 52.36 L 57.25 52.2 L
  57.7 52.17 L 58.55 51.03 L 52.66 49.65 L 46.84 50.9 L 47.6 52.22 L 48.01 52.19 L
  48.01 52.45 L 48.73 52.45 L 48.73 53.62 L 50.26 53.65 L 50.24 56.15 L 48.7 56.15 L
  48.66 57.63 L 49.2 57.7 L 49.14 60.56 L 50.29 60.62 L 50.17 71.21 L 48.63 71.52 L
  48.68 72.76 L 49.19 72.76 L 49.19 75.65 L 50.04 75.65 L 49.84 79.18 L 49.51 83.02 L 
  55.87 83.19 L 55.66 79.76 L 55.26 77.27 L 55.19 75.54 L 59.08 75.47 L 58.96 78.4 L
  58.93 82.3 L 61.96 82.53 L 65.63 82.39 L 67.19 81.93 L 66.46 79.7 L 66.3 76.77 L
  66.07 75.07 L 69.68 74.93 L 69.51 77.11 L 69.49 81.54 L 71.66 81.74 L 73.5 81.7 L
  74.72 81.32 L 74.17 77.15 L 74.03 74.62 L 74.76 74.54 L 74.78 71.92 L 75.02 71.88 L 
  74.94 70.62 L 74.05 70.62 L 73.91 69.07 L 73.84 61.19 L 74.49 61.17 L 74.49 58.53 L 
  74.77 58.57 L 74.77 57.22 L 73.79 57.14 L 73.81 54.69 L 75.48 54.54 L 75.38 53.48 L 
  76.14 53.42 L 76.07 53.08 L 77.77 52.23 L 71.75 51.02 L 66.25 52.13 L 66.92 53.4 L
  67.58 53.34 L 67.62 53.56 L 68.21 53.56 L 68.24 54.81 L 69.85 54.79 L 69.95 57.06 L 
  65.06 57.02 L 64.44 52.75 L 63.92 50.33 L 63.49 46.03 L 63.71 43.85 L 74.98 42.99 L 
  75.02 39.13 L 75.6 38.99 L 75.54 37.87 L 74.84 37.47 L 74.73 37.47 L 73.68 37.62 L
  71.36 37.96 Q 68.98 38.3 66.6 38.59 L 66.04 38.65 L 66 38.13 L 63.7 36.93 L 63.72
  36.12 L 64.51 36.1 L 64.57 34.13 C 64.83 34.11 65.6 34.06 66.83 33.95 C 68.34 33.83 
  69.7 33.65 71.04 33.38 L 70.82 33.42 C 72.56 33.01 75.07 32.6 75.07 32.6 L 75.29
  32.56 L 76.49 29.32 L 78.84 28.63 L 79.04 28.09 L 84.25 26.65 L 85.14 25.91 L 83.04 
  21.33 L 83.18 20.64 L 84.19 20.12 L 85.06 17.46 L 84.32 16.81 L 84.33 16.82" 
  stroke="#fff" stroke-width="0.3"/>
</svg>
