<svg xmlns="http://www.w3.org/2000/svg" viewBox="0 0 100 100" width="100" height="100">
  <linearGradient id="2" x1="-553.27" x2="-666.12" y1="525.91" y2="413.05" 
    gradientTransform="matrix(.99 0 0 .99 689.01 -388.84)" 
    gradientUnits="userSpaceOnUse">
    <stop offset="0" stop-color="#001048" />
    <stop offset="1" stop-color="#fff" />
  </linearGradient>
  <linearGradient id="5" x1="-666.12" x2="-553.27" y1="413.04" y2="525.91" 
    gradientTransform="matrix(.99 0 0 .99 689.01 -388.84)" 
    gradientUnits="userSpaceOnUse">
    <stop offset="0" stop-color="#001048"/>
    <stop offset="1" stop-color="#fff" />
  </linearGradient>
  <path d="M 49.94 68.33 C 66.53 90.95 82.77 62.01 82.74 44.62 C 82.72 24.04 
    61.87 12.55 49.92 12.55 C 30.75 12.55 12.5 28.39 12.5 50.06 C 12.5 74.16 
    33.42 87.5 49.92 87.5 C 46.19 86.96 33.75 84.3 33.58 55.64 C 33.47 36.26 
    39.9 28.52 49.9 31.92 C 50.12 32.01 60.92 36.26 60.92 50.18 C 60.92 64.04 
    49.94 68.33 49.94 68.33 L 49.94 68.33" fill="url(#5)" />
  <path d="M 49.92 31.91 C 38.95 28.13 25.52 37.16 25.52 55.26 C 25.52 84.82 
    47.42 87.5 50.08 87.5 C 69.24 87.5 87.5 71.66 87.5 49.98 C 87.5 25.89
    66.57 12.55 50.08 12.55 C 54.65 11.91 74.71 17.49 74.71 44.91 C 74.71
    62.79 59.73 72.52 49.99 68.36 C 49.76 68.28 38.96 64.02 38.96 50.1 C
    38.96 36.25 49.92 31.91 49.92 31.91 L 49.92 31.91" fill="url(#2)" />
</svg>
