<svg xmlns="http://www.w3.org/2000/svg" viewBox="0 0 100 100" width="100" height="100">
  <path d="M 76.82 16.77 A 4.51 4.51 0 0 1 76.18 19.28 A 4.44 4.44 0 0 1 74.27 21 A 4.39
    4.39 0 0 1 71.72 21.37 A 4.41 4.41 0 0 1 69.41 20.25 A 4.48 4.48 0 0 1 68.25 15.43 A 
    4.46 4.46 0 0 1 69.79 13.36 A 4.4 4.4 0 0 1 72.21 12.51 A 4.4 4.4 0 0 1 75.39 13.67
    A 4.47 4.47 0 0 1 76.81 16.76 L 76.82 16.77" fill="#767677" />
  <path d="M 51.03 69.21 C 39.25 69.21 28.97 64.9 23.63 58.51 A 29.27 29.27 0 0 0 34.24 
    72.72 A 28.86 28.86 0 0 0 51.04 78.12 A 28.87 28.87 0 0 0 67.84 72.72 A 29.25 29.25 
    0 0 0 78.44 58.51 C 73.09 64.9 62.81 69.21 51.03 69.21 M 51.03 27.67 C 62.8 27.67
    73.09 31.98 78.43 38.37 A 29.27 29.27 0 0 0 67.82 24.16 A 28.87 28.87 0 0 0 51.02
    18.76 A 28.87 28.87 0 0 0 34.22 24.16 A 29.24 29.24 0 0 0 23.62 38.37 C 28.97 31.99 
    39.25 27.67 51.03 27.67" fill="#f37726" />
  <path d="M 34.86 81.63 A 5.67 5.67 0 0 1 34.06 84.8 A 5.57 5.57 0 0 1 28.44 87.43 A
    5.51 5.51 0 0 1 25.52 86.02 A 5.67 5.67 0 0 1 23.88 83.21 A 5.7 5.7 0 0 1 24.06
    79.94 A 5.64 5.64 0 0 1 26.01 77.34 A 5.55 5.55 0 0 1 33.07 77.74 A 5.64 5.64 0 0 1 
    34.86 81.63 L 34.86 81.63" fill="#989798" />
  <path d="M 24.97 26.22 A 3.24 3.24 0 0 1 23.13 25.74 A 3.3 3.3 0 0 1 21.6 22.42 A 3.29 
    3.29 0 0 1 22.42 20.69 A 3.28 3.28 0 0 1 24.06 19.72 A 3.2 3.2 0 0 1 25.95 19.82 A
    3.25 3.25 0 0 1 27.47 20.98 A 3.32 3.32 0 0 1 27.24 25.16 A 3.26 3.26 0 0 1 24.97
    26.22 L 24.97 26.22" fill="#6f7070" />
</svg>
