<svg xmlns="http://www.w3.org/2000/svg" viewBox="0 0 100 100" width="100" height="100">
  <path fill="#1f95f6" d="M 38.54 18.05 L 61.72 18.05 C 70.03 18.05 70.03 18.05 73.73 
    19.82 L 73.88 19.89 C 77.14 21.48 79.62 24.43 80.85 27.81 C 81.75 30.42 81.94 33.2 
    81.94 35.94 L 81.94 36.32 L 81.94 37.35 L 81.94 38.47 L 81.94 42.42 L 81.94 47.47 L 
    81.94 48.01 Q 81.94 50.21 81.94 52.41 A 6110.38 6110.38 0 0 1 81.95 59.48 A 1335.94 
    1335.94 0 0 1 81.95 62.74 C 81.96 68.15 81.46 73.38 77.53 77.46 L 77.38 77.63 C
    76.59 78.47 75.6 79.15 74.61 79.73 L 74.47 79.81 C 72.38 81.03 70 81.55 67.62 81.79 
    L 67.45 81.81 C 65.83 81.96 64.2 81.94 62.58 81.94 L 61.47 81.94 L 57.55 81.94 L
    52.54 81.94 L 52 81.94 Q 49.82 81.94 47.64 81.94 A 6015.16 6015.16 0 0 1 40.63
    81.95 A 1314.84 1314.84 0 0 1 37.39 81.95 C 31.86 81.96 26.54 81.43 22.38 77.39 A
    9.3 9.3 0 0 1 21.87 76.8 L 21.78 76.69 C 18.98 73.38 18.21 69.26 18.09 65.04 L
    18.09 64.87 C 18.06 63.59 18.05 62.32 18.05 61.04 L 18.05 38.67 A 122.24 122.24 0 0 
    1 18.1 34.77 C 18.12 34.02 18.16 33.27 18.23 32.53 L 18.24 32.37 C 18.62 28.32
    20.18 24.4 23.36 21.74 A 18.9 18.9 0 0 1 24.14 21.14 L 24.27 21.05 C 28.44 18.02
    33.6 18.05 38.54 18.05" />
  <path fill="#f4f7f9" d="M 37.61 27.71 L 37.94 27.71 L 38.86 27.71 L 39.85 27.71 A 
    1193.85 1193.85 0 0 1 43.35 27.7 L 47.09 27.7 L 48.3 27.7 Q 50.25 27.7 52.2 27.69 Q 
    54.2 27.69 56.21 27.69 Q 57.33 27.69 58.46 27.69 Q 59.41 27.68 60.37 27.69 Q 60.86 
    27.69 61.35 27.68 Q 61.8 27.68 62.24 27.68 L 62.57 27.68 C 63.5 27.68 64.39 27.87 
    65.08 28.54 C 65.57 29.1 65.56 29.96 65.66 30.67 A 48.71 48.71 0 0 0 65.96 32.6 A 
    53.83 53.83 0 0 1 66.29 34.73 A 42.11 42.11 0 0 0 66.55 36.34 A 47.17 47.17 0 0 1 
    66.84 38.2 A 67.02 67.02 0 0 0 67.25 40.74 Q 67.33 41.18 67.39 41.63 A 19.12 19.12 
    0 0 0 67.49 42.18 C 67.88 44.36 67.88 44.36 67.5 45.11 C 67.05 45.75 66.41 46.12
    65.67 46.33 C 65.47 46.35 65.27 46.35 65.07 46.35 L 64.89 46.35 L 64.3 46.35 L
    63.87 46.35 L 62.72 46.35 L 61.63 46.35 Q 60.05 46.35 58.46 46.34 L 51.31 46.33 L 
    51.31 68.31 L 55.93 68.31 C 58.78 68.5 58.78 68.5 59.27 68.99 C 59.64 69.43 59.62 
    69.87 59.62 70.42 C 59.59 70.65 59.59 70.65 59.5 70.77 C 59.07 71.1 58.33 71.04
    57.81 71.03 L 57.59 71.04 L 56.37 71.04 Q 55.67 71.04 54.98 71.04 L 53.67 71.04 L 
    50.93 71.04 L 48.57 71.04 A 2023.39 2023.39 0 0 1 44.39 71.04 A 485.45 485.45 0 0 1 
    42.53 71.04 L 41.85 71.03 L 41.65 71.04 C 40.8 71.03 40.8 71.03 40.48 70.74 C 40.29 
    70.36 40.34 69.85 40.45 69.45 C 40.63 69.06 40.89 68.78 41.29 68.6 C 43.38 67.85
    46.93 68.31 48.68 68.31 L 48.68 46.33 C 43.96 46.35 43.96 46.35 39.25 46.36 L 37.91 
    46.36 Q 37.46 46.36 37.01 46.36 Q 36.44 46.37 35.87 46.37 L 35.45 46.37 C 34.4
    46.38 33.67 46.26 32.86 45.53 C 32.43 45.07 32.31 44.66 32.32 44.05 L 32.32 43.85 C 
    32.33 43.24 32.42 42.64 32.53 42.04 C 32.58 41.75 32.63 41.45 32.67 41.16 A 56.1
    56.1 0 0 1 32.9 39.83 A 27.76 27.76 0 0 0 33.11 38.45 C 33.25 37.35 33.43 36.26
    33.63 35.17 C 33.77 34.38 33.89 33.59 34 32.79 A 45.63 45.63 0 0 1 34.3 30.95 C
    34.37 30.54 34.43 30.13 34.47 29.71 C 34.54 29.14 34.65 28.76 35.07 28.37 C 35.85 
    27.76 36.65 27.71 37.61 27.71" />
  <path fill="#ced0d2" d="M 32.34 43.92 A 5.71 5.71 0 0 1 32.55 44.35 C 32.79 44.91
    33.2 45.18 33.75 45.4 A 3.08 3.08 0 0 0 34.92 45.61 L 35.08 45.61 L 35.61 45.61 L 
    36 45.61 L 37.06 45.61 L 38.2 45.62 L 40.97 45.62 L 42.27 45.62 L 47.73 45.62 L
    48.01 45.62 Q 50.27 45.62 52.53 45.63 Q 54.86 45.63 57.18 45.63 Q 58.48 45.63 59.79 
    45.63 Q 60.9 45.64 62.01 45.64 L 63.14 45.64 Q 63.66 45.64 64.18 45.64 Q 64.37
    45.64 64.55 45.64 C 65.46 45.64 66.36 45.59 67.09 44.98 C 67.26 44.82 67.38 44.63 
    67.5 44.43 L 67.65 44.21 C 67.7 44.69 67.56 45 67.28 45.38 C 66.79 45.91 66.12 46.3 
    65.39 46.35 L 64.89 46.35 L 64.3 46.35 L 63.87 46.35 L 62.72 46.35 L 61.63 46.35 Q 
    60.05 46.35 58.46 46.34 L 51.31 46.33 L 51.31 68.31 L 55.93 68.31 C 58.78 68.5
    58.78 68.5 59.27 68.99 C 59.64 69.43 59.62 69.87 59.62 70.42 C 59.59 70.65 59.59
    70.65 59.5 70.77 C 59.07 71.1 58.33 71.04 57.81 71.03 L 57.59 71.04 L 56.37 71.04 Q 
    55.67 71.04 54.98 71.04 L 53.67 71.04 L 50.93 71.04 L 48.57 71.04 A 2023.39 2023.39 
    0 0 1 44.39 71.04 A 485.45 485.45 0 0 1 42.53 71.04 L 41.85 71.03 L 41.65 71.04 C 
    40.8 71.03 40.8 71.03 40.48 70.74 C 40.29 70.36 40.34 69.85 40.45 69.45 C 40.63
    69.06 40.89 68.78 41.29 68.6 C 43.38 67.85 46.93 68.31 48.68 68.31 L 48.68 46.33 C 
    43.96 46.35 43.96 46.35 39.25 46.36 L 37.91 46.36 Q 37.46 46.36 37.01 46.36 Q 36.44 
    46.37 35.87 46.37 L 35.45 46.37 C 34.4 46.38 33.67 46.26 32.86 45.53 C 32.43 45.07 
    32.32 44.69 32.34 44.08 L 32.34 43.92" />
  <path fill="#66c154" d="M 50 29.71 L 50 34.76 L 50.73 34.91 Q 50.99 34.97 51.24
    35.05 L 51.38 35.08 L 52.14 35.3 L 52.95 35.53 L 53.79 35.76 L 55.42 36.23 C 55.24 
    37.19 54.44 38.06 53.67 38.63 C 52.13 39.63 50.4 39.99 48.59 39.65 A 6.59 6.59 0 0 
    1 47.21 39.16 L 47.01 39.06 C 45.78 38.44 44.91 37.44 44.43 36.15 C 44.03 34.92
    44.15 33.75 44.73 32.59 C 45.02 32.07 45.4 31.66 45.82 31.25 L 45.95 31.11 C 47.03 
    30.1 48.56 29.71 50 29.71" />
  <path fill="#94a7b3" d="M 37.46 41.86 L 37.74 41.86 L 38.36 41.86 Q 38.8 41.85 39.24 
    41.85 Q 39.72 41.85 40.19 41.85 L 43.57 41.85 L 47.16 41.85 L 48.33 41.85 Q 50.21 
    41.85 52.09 41.84 Q 54.02 41.84 55.95 41.84 L 58.11 41.84 Q 59.03 41.84 59.95 41.84 
    L 60.9 41.84 L 61.76 41.84 L 62.07 41.84 C 63.02 41.83 63.02 41.83 63.47 42.09 L
    63.65 42.17 L 63.77 42.23 C 63.79 42.47 63.79 42.47 63.77 42.74 C 63.28 43.29 62.23 
    43.37 61.53 43.42 C 61.04 43.44 60.55 43.44 60.05 43.44 L 59.57 43.45 L 58.3 43.45 
    L 57.04 43.46 C 53.24 43.49 49.45 43.48 45.65 43.45 L 43.07 43.43 L 42.32 43.43 C 
    41.29 43.42 40.26 43.4 39.22 43.37 L 38.96 43.36 Q 38.32 43.34 37.69 43.3 L 37.46 
    43.29 C 37.15 43.24 36.93 43.13 36.67 42.96 C 36.7 42.69 36.73 42.54 36.89 42.31 L 
    36.89 42.16 L 36.74 42.09 C 36.88 41.8 37.18 41.86 37.46 41.86 M 36.74 42.31 L
    36.89 42.38 L 36.74 42.45 L 36.74 42.31" />
  <path fill="#babbbc" d="M 32.34 43.92 A 5.71 5.71 0 0 1 32.55 44.35 C 32.79 44.91
    33.2 45.18 33.75 45.4 A 3.08 3.08 0 0 0 34.92 45.61 L 35.08 45.61 L 35.61 45.61 L 
    36 45.61 L 37.06 45.61 L 38.2 45.62 L 40.97 45.62 L 42.27 45.62 L 47.73 45.62 L
    48.01 45.62 Q 50.27 45.62 52.53 45.63 Q 54.86 45.63 57.18 45.63 Q 58.48 45.63 59.79 
    45.63 Q 60.9 45.64 62.01 45.64 L 63.14 45.64 Q 63.66 45.64 64.18 45.64 Q 64.37
    45.64 64.55 45.64 C 65.46 45.64 66.36 45.59 67.09 44.98 C 67.26 44.82 67.38 44.63 
    67.5 44.43 L 67.65 44.21 C 67.7 44.69 67.56 45 67.28 45.38 C 66.79 45.92 66.12 46.3 
    65.39 46.35 L 65.06 46.35 L 64.88 46.36 L 64.28 46.36 L 63.85 46.36 Q 63.27 46.36 
    62.68 46.36 L 61.45 46.37 Q 60.29 46.37 59.12 46.38 L 56.48 46.39 C 51.04 46.41
    51.04 46.41 48.97 46.41 L 48.97 46.92 L 49.12 46.92 L 49.19 47.8 L 49.04 47.8 C
    48.94 48.01 48.95 48.19 48.95 48.43 L 48.94 48.58 L 48.93 49.07 L 48.92 49.25 A
    132.57 132.57 0 0 0 48.89 52.95 L 48.89 56.91 A 514.31 514.31 0 0 0 48.95 66.06 L 
    48.95 66.32 L 48.96 66.56 L 48.96 66.76 C 48.95 66.91 48.95 66.91 49.04 66.99 Q
    49.05 67.28 49.05 67.58 L 49.05 67.75 L 49.04 68.16 L 48.68 68.23 L 48.68 46.33 C 
    43.96 46.35 43.96 46.35 39.25 46.36 L 37.91 46.36 Q 37.46 46.36 37.01 46.36 Q 36.44 
    46.37 35.87 46.37 L 35.45 46.37 C 34.4 46.38 33.67 46.26 32.86 45.53 C 32.43 45.07 
    32.32 44.69 32.34 44.08 L 32.34 43.92" />
  <path fill="#60d9fc" d="M 50 29.71 C 50.49 29.71 50.88 29.71 51.34 29.83 L 51.5
    29.87 C 53.09 30.28 54.35 31.16 55.2 32.56 C 55.72 33.5 55.87 34.68 55.66 35.74 A
    6.45 6.45 0 0 1 55.49 36.23 C 54.89 36.18 54.34 36.03 53.76 35.86 L 53.46 35.77 L 
    52.66 35.54 Q 52.25 35.42 51.84 35.31 L 50.65 34.96 L 50.41 34.89 Q 50.2 34.83 50 
    34.76 L 50 29.71" />
  <path fill="#e75a5e" d="M 50 29.71 L 50 34.69 A 6.81 6.81 0 0 1 48.89 34.48 L 48.75 
    34.44 L 47.95 34.21 L 47.09 33.96 L 46.22 33.71 L 44.5 33.22 C 44.75 32.46 45.19
    31.89 45.75 31.32 L 45.88 31.18 C 47 30.13 48.5 29.71 50 29.71" />
  <path fill="#f9cd5a" d="M 44.5 33.22 C 45.1 33.29 45.69 33.49 46.27 33.65 L 47.18
    33.9 A 322.78 322.78 0 0 0 48.58 34.29 L 49.27 34.49 L 49.5 34.55 C 49.68 34.61
    49.83 34.67 50 34.76 L 49.83 34.96 A 55.52 55.52 0 0 0 48.79 36.19 A 45.7 45.7 0 0 
    1 47.91 37.24 Q 47.48 37.73 47.07 38.25 A 7.84 7.84 0 0 1 46.55 38.79 L 46.25 38.55 
    L 46.07 38.42 L 45.89 38.28 L 45.71 38.14 C 44.86 37.42 44.36 36.28 44.21 35.2 C
    44.16 34.54 44.19 33.92 44.43 33.3 L 44.5 33.22" />
  <path fill="#cedde8" d="M 36.67 42.01 L 36.81 42.09 L 36.89 42.31 L 36.74 42.31 C
    36.76 42.39 36.76 42.39 36.78 42.47 C 36.81 42.69 36.78 42.78 36.67 42.96 C 37.48 
    43.29 38.34 43.27 39.21 43.3 L 39.5 43.31 C 40.56 43.34 41.62 43.35 42.68 43.35 L 
    43.53 43.36 L 46.41 43.38 L 46.59 43.38 L 46.77 43.38 C 50.37 43.4 50.37 43.4 53.97 
    43.4 L 54.61 43.4 Q 55.96 43.4 57.3 43.39 L 58.55 43.38 Q 59.17 43.38 59.79 43.38 L 
    60.26 43.38 C 61.02 43.37 61.76 43.35 62.52 43.2 L 62.7 43.17 A 2.64 2.64 0 0 0
    63.69 42.74 C 63.77 42.52 63.77 42.52 63.77 42.31 C 63.91 42.52 63.91 42.52 63.9
    42.67 C 63.75 43.15 63.52 43.43 63.11 43.7 C 62.83 43.81 62.68 43.86 62.39 43.81 C 
    62.15 43.77 62.03 43.79 61.8 43.84 C 61.2 43.97 60.68 43.91 60.07 43.79 C 59.87
    43.75 59.87 43.75 59.66 43.92 C 59.52 43.93 59.52 43.93 59.37 43.92 C 59.09 43.89 
    59.09 43.89 58.93 43.99 L 58.93 43.84 L 58.35 43.99 L 58.35 43.84 L 57.76 43.99 L 
    57.76 43.84 L 57.63 43.86 C 56.81 43.96 56.81 43.96 56.4 43.88 C 56.08 43.83 55.78 
    43.83 55.46 43.83 L 51.9 43.83 A 675.59 675.59 0 0 0 49.84 43.83 L 49.64 43.83 C
    49.33 43.83 49.33 43.83 49.04 43.92 Q 48.79 43.88 48.53 43.84 Q 48.26 43.84 47.99 
    43.84 L 47.84 43.84 L 47.5 43.84 L 46.98 43.84 L 45.87 43.84 A 651.78 651.78 0 0 1 
    43.75 43.85 L 43.47 43.85 C 43.26 43.84 43.26 43.84 43.11 43.77 L 42.89 43.84 Q
    42.73 43.85 42.56 43.84 C 42.22 43.84 41.88 43.87 41.54 43.91 C 41.34 43.92 41.18
    43.88 40.99 43.84 Q 40.7 43.83 40.41 43.83 L 40.25 43.83 C 39.98 43.84 39.71 43.84 
    39.44 43.87 C 38.7 43.94 38.05 43.86 37.32 43.7 L 37.32 43.55 L 36.89 43.55 L 36.74 
    43.26 L 36.59 43.26 L 36.53 43.08 C 36.46 42.87 36.46 42.87 36.23 42.74 L 36.3
    42.45 L 36.3 42.6 L 36.45 42.6 L 36.47 42.35 L 36.52 42.09 L 36.67 42.01" />
  <path fill="#ab4386" d="M 50 29.71 L 50 34.69 C 49.58 34.28 49.58 34.28 49.41 34.07 
    L 49.29 33.94 L 49.17 33.8 L 49.04 33.65 Q 48.61 33.14 48.18 32.62 A 45.34 45.34 0 
    0 0 47.61 31.94 A 41.38 41.38 0 0 1 46.63 30.73 C 47.42 29.86 48.9 29.71 50 29.71" />
  <path fill="#f89e28" d="M 44.5 33.22 C 45.1 33.29 45.69 33.49 46.27 33.65 L 47.18
    33.9 A 322.78 322.78 0 0 0 48.58 34.29 L 49.27 34.49 L 49.5 34.55 C 49.68 34.61
    49.83 34.67 50 34.76 L 49.84 34.8 L 49.09 35 L 48.95 35.04 Q 47.96 35.3 46.98 35.58 
    L 46.77 35.65 Q 46.25 35.8 45.73 35.95 L 45.35 36.06 L 45.17 36.12 C 44.89 36.2
    44.7 36.24 44.43 36.15 C 44.16 35.2 44.07 34.24 44.43 33.3 L 44.5 33.22" />
  <path fill="#9bafbb" d="M 36.81 42.96 L 36.99 42.98 C 38.09 43.06 39.2 43.07 40.31 
    43.08 L 40.49 43.08 C 43.41 43.12 46.33 43.12 49.25 43.12 L 50.4 43.12 L 53.12
    43.12 C 54.4 43.12 55.69 43.1 56.97 43.05 C 59.04 42.98 59.04 42.98 59.44 43.11 Q 
    59.63 43.12 59.81 43.11 L 60.04 43.11 L 60.28 43.1 L 60.53 43.1 L 61.86 43.07 L
    63.18 43.04 C 62.29 43.55 61.04 43.44 60.05 43.44 L 59.57 43.45 L 58.3 43.45 L
    57.04 43.46 C 53.24 43.49 49.45 43.48 45.65 43.45 L 43.07 43.43 L 42.32 43.43 C
    41.29 43.42 40.26 43.4 39.22 43.37 L 38.96 43.36 C 37.21 43.3 37.21 43.3 36.81
    43.04 L 36.81 42.96" />
  <path fill="#dfe4e9" d="M 46.3 68.29 L 46.89 68.29 L 48.95 68.29 Q 49.91 68.29 50.86 
    68.29 A 899.05 899.05 0 0 1 53.49 68.29 C 54.71 68.29 55.92 68.29 57.13 68.37 L
    57.39 68.39 A 6.08 6.08 0 0 1 58.64 68.6 L 58.64 68.75 C 58.16 68.75 57.69 68.74
    57.22 68.71 A 22.12 22.12 0 0 0 55.56 68.67 Q 55.14 68.67 54.72 68.67 L 54.55 68.67 
    C 53.92 68.67 53.28 68.67 52.65 68.66 L 52.48 68.65 L 51.47 68.64 L 50.59 68.63 L 
    48.9 68.6 L 48.9 68.75 L 49.04 68.82 L 48.85 68.82 A 332.59 332.59 0 0 0 47.41
    68.87 L 47.14 68.88 C 46.92 68.88 46.92 68.88 46.7 68.97 Q 46.53 68.97 46.35 68.97 
    L 46.15 68.97 L 45.72 68.96 L 45.52 68.96 L 45.33 68.96 C 45.17 68.97 45.03 68.99 
    44.87 69.04 Q 44.67 69.05 44.47 69.06 L 44.27 69.06 C 44.06 69.04 44.06 69.04 43.89 
    68.93 C 43.62 68.78 43.39 68.81 43.09 68.84 L 42.93 68.85 C 42.67 68.85 42.67 68.85 
    42.45 68.97 Q 42.24 69.01 42.02 69.05 L 41.78 69.09 C 41.57 69.11 41.57 69.11 41.35 
    69.04 C 41.19 69.14 41.19 69.14 41.06 69.26 L 41.06 69.11 L 40.77 69.19 C 40.77
    68.97 40.77 68.97 40.91 68.82 C 42.3 67.91 44.7 68.29 46.3 68.29" />
  <path fill="#98a6af" d="M 37.46 41.86 L 62.76 41.86 C 62.93 41.86 63.08 41.89 63.25 
    41.94 L 63.25 42.09 L 36.74 42.16 L 36.81 41.94 C 37.05 41.86 37.21 41.86 37.46
    41.86" />
  <path fill="#b6c7d3" d="M 63.55 42.82 C 63.55 43.04 63.55 43.04 63.38 43.23 C 62.81 
    43.66 61.93 43.57 61.26 43.57 L 60.95 43.57 Q 60.62 43.57 60.29 43.56 L 59.24 43.56 
    Q 58.41 43.56 57.57 43.56 A 2054.37 2054.37 0 0 0 53.9 43.55 C 52.33 43.55 50.77
    43.55 49.21 43.61 C 48.48 43.63 47.75 43.63 47.02 43.62 L 46.26 43.62 L 46.08 43.62 
    C 45.71 43.62 45.35 43.64 44.99 43.69 C 44.82 43.7 44.67 43.68 44.5 43.66 C 44.08 
    43.61 43.66 43.62 43.24 43.62 L 42.71 43.62 L 42.43 43.62 C 39.85 43.63 39.85 43.63 
    38.65 43.6 L 38.4 43.59 C 37.14 43.54 37.14 43.54 36.8 43.21 L 36.67 43.04 C 36.89 
    43.04 36.89 43.04 37.06 43.11 C 37.27 43.19 37.45 43.21 37.69 43.23 L 37.94 43.24 Q 
    38.58 43.28 39.21 43.3 L 39.5 43.31 C 40.56 43.34 41.62 43.35 42.68 43.35 L 43.53 
    43.36 L 46.41 43.38 L 46.59 43.38 L 46.77 43.38 C 50.37 43.4 50.37 43.4 53.97 43.4 
    L 54.61 43.4 Q 55.96 43.4 57.3 43.39 L 58.55 43.38 Q 59.17 43.38 59.79 43.38 L
    60.26 43.38 C 61.98 43.41 61.98 43.41 63.55 42.82" />
  <path fill="#e2e8ec" d="M 49.78 48.6 L 49.85 48.6 A 61.16 61.16 0 0 1 49.91 52.36 L 
    49.91 52.9 L 49.89 54.29 Q 49.88 55.27 49.87 56.25 L 49.86 57.77 L 49.85 58.01 Q
    49.85 58.61 49.85 59.22 L 49.85 59.47 L 49.85 59.94 C 49.86 60.34 49.83 60.73 49.78 
    61.13 Q 49.76 61.33 49.75 61.53 L 49.75 61.75 L 49.74 61.99 L 49.73 62.24 A 158.79 
    158.79 0 0 0 49.66 65.09 L 49.63 66.91 L 49.56 66.91 A 7629.42 7629.42 0 0 1 49.55 
    59.58 L 49.55 57.14 A 1970.29 1970.29 0 0 1 49.54 53.22 A 482.01 482.01 0 0 1 49.54 
    51.41 C 49.54 50.63 49.54 49.88 49.7 49.12 Q 49.74 48.86 49.78 48.6" />
  <path fill="#f7fafd" d="M 47.57 68.3 L 48.55 68.29 L 48.99 68.29 L 50.56 68.29 L
    52.01 68.29 A 515.04 515.04 0 0 1 54.01 68.29 C 55.04 68.29 56.06 68.3 57.09 68.37 
    L 57.36 68.39 C 57.8 68.42 58.21 68.47 58.64 68.6 L 58.64 68.75 C 58.16 68.75 57.69 
    68.74 57.22 68.71 A 22.12 22.12 0 0 0 55.56 68.67 Q 55.14 68.67 54.72 68.67 L 54.55 
    68.67 A 117.55 117.55 0 0 1 52.48 68.65 L 51.47 68.64 L 50.59 68.63 L 48.9 68.6 L 
    48.9 68.75 L 49.04 68.82 L 48.24 68.82 L 48.24 68.67 L 48.06 68.66 Q 47.66 68.64
    47.25 68.61 L 46.97 68.59 L 46.7 68.57 L 46.45 68.56 L 46.26 68.53 L 46.19 68.38 C 
    46.65 68.3 47.1 68.3 47.57 68.3" />
  <path fill="#a8bac7" d="M 41.42 43.18 L 42.26 43.18 L 43.69 43.19 L 45.77 43.2 A 
    6723.19 6723.19 0 0 1 52.61 43.22 L 53.62 43.23 L 62.01 43.26 C 61.8 43.37 61.65
    43.42 61.41 43.42 L 61.23 43.43 L 61.04 43.43 L 60.83 43.43 L 60.14 43.43 L 59.65 
    43.44 Q 59 43.44 58.36 43.45 L 57.34 43.46 C 53.44 43.49 49.54 43.48 45.65 43.45 L 
    43.07 43.43 L 42.32 43.43 A 130.15 130.15 0 0 1 38.2 43.33 L 38.2 43.26 C 39.28
    43.16 40.35 43.18 41.42 43.18" />
  <path fill="#bdbdbb" d="M 51.24 50.22 L 51.31 50.22 L 51.31 68.31 L 50.22 68.31 L
    50.14 68.16 Q 50.32 68.16 50.49 68.16 L 50.69 68.15 C 50.87 68.16 50.87 68.16 51.09 
    68.23 L 51.09 68.11 C 51.09 63.52 51.08 58.93 51.12 54.34 L 51.13 53.54 A 697.92 
    697.92 0 0 1 51.15 51.22 L 51.15 51.04 C 51.16 50.75 51.17 50.49 51.24 50.22" />
  <path fill="#aeb0b2" d="M 57.76 70.65 L 57.83 70.8 L 59.37 70.8 C 58.93 71.09 58.35 
    71.03 57.83 71.02 L 56.38 71.02 L 54.99 71.02 L 53.67 71.02 A 4222.34 4222.34 0 0 1 
    48.55 71.02 L 47.61 71.02 L 41.13 71.02 L 41.13 70.94 L 43.48 70.87 L 43.48 70.8 L 
    43.68 70.8 Q 46.16 70.8 48.64 70.8 L 51.04 70.81 A 1281.15 1281.15 0 0 0 54.24
    70.81 A 297.51 297.51 0 0 0 55.66 70.81 C 56.38 70.82 57.05 70.79 57.76 70.65" />
  <path fill="#e6e9e9" d="M 49.04 48.24 C 49.19 48.38 49.19 48.38 49.21 48.55 L 49.2 
    48.74 L 49.2 48.93 C 49.19 49.12 49.19 49.12 49.15 49.27 C 49.1 49.56 49.11 49.85 
    49.11 50.15 L 49.11 51.51 L 49.11 52.82 L 49.11 54.19 L 49.11 58.86 L 49.11 59.74 L 
    49.12 65.82 L 49.04 65.82 L 48.97 62.3 L 48.9 62.3 Q 48.89 60.09 48.89 57.87 L
    48.89 55.81 A 931.57 931.57 0 0 1 48.88 53.07 C 48.88 51.45 48.92 49.85 49.04
    48.24" />
  <path fill="#fefefe" d="M 37.15 41.71 L 39.85 41.71 L 41.47 41.71 L 43.83 41.71 A 
    9117.33 9117.33 0 0 1 51.35 41.72 L 52.72 41.72 L 62.23 41.72 L 62.23 41.79 L 62.07 
    41.79 A 16330 16330 0 0 0 51.76 41.82 L 51.53 41.82 Q 49.75 41.82 47.97 41.82 L
    44.31 41.83 L 42.06 41.84 A 841.04 841.04 0 0 0 39.62 41.84 L 38.8 41.84 L 38.37
    41.84 C 37.89 41.85 37.45 41.88 36.98 41.98 C 36.81 42.01 36.81 42.01 36.52 42.01 L 
    36.59 41.79 C 36.79 41.7 36.94 41.71 37.15 41.71" />
  <path fill="#abb5be" d="M 37.46 41.86 L 40.2 41.86 L 41.86 41.86 L 44.25 41.86 A
    9425.32 9425.32 0 0 1 51.89 41.86 L 53.29 41.86 L 62.96 41.87 L 62.96 41.94 L 37.11 
    42.01 L 37.4 42.16 L 36.74 42.16 L 36.81 41.94 C 37.05 41.86 37.22 41.86 37.46
    41.86" />
  <path fill="#1969dc" d="M 60.03 70.94 L 60.03 71.09 L 60.18 71.16 C 58.21 71.24
    56.25 71.25 54.29 71.24 L 53.04 71.24 L 50.68 71.24 L 47.98 71.24 L 42.45 71.24 L 
    42.45 71.16 L 42.66 71.16 A 11432.08 11432.08 0 0 0 52.19 71.12 L 53.3 71.11 A
    162.38 162.38 0 0 0 58 71.04 L 58.24 71.03 C 58.42 71.03 58.42 71.03 58.56 70.94 Q 
    58.83 70.91 59.1 70.9 L 59.39 70.88 C 59.62 70.87 59.81 70.88 60.03 70.94" />
  <path fill="#c6c9cb" d="M 32.34 43.92 A 5.71 5.71 0 0 1 32.55 44.35 C 32.79 44.92
    33.21 45.18 33.77 45.41 Q 33.94 45.47 34.1 45.53 L 34.1 45.67 L 34.54 45.75 L 34.54 
    46.26 C 33.98 46.32 33.56 46.09 33.11 45.76 C 32.76 45.47 32.46 45.17 32.34 44.72 A 
    5.57 5.57 0 0 1 32.34 43.92" />
  <path fill="#bcb7b2" d="M 51.24 61.93 L 51.31 61.93 L 51.31 68.31 L 50.22 68.31 L
    50.14 68.16 Q 50.32 68.16 50.49 68.16 L 50.69 68.15 C 50.87 68.16 50.87 68.16 51.09 
    68.23 L 51.09 68.1 L 51.09 66.15 L 51.09 65.39 L 51.09 65.15 C 51.09 64.74 51.1
    64.34 51.15 63.93 C 51.17 63.72 51.18 63.51 51.19 63.29 L 51.2 63.05 L 51.21 62.8 L 
    51.22 62.55 L 51.24 61.93" />
  <path fill="#c6d6e1" d="M 54.32 43.55 L 54.32 43.62 A 60.72 60.72 0 0 1 50.83 43.7 L 
    50.31 43.7 L 48.96 43.7 L 47.58 43.7 L 44.87 43.7 L 44.87 43.62 C 45.75 43.56 46.63 
    43.54 47.51 43.55 C 48.5 43.56 49.49 43.55 50.48 43.51 C 51.76 43.46 53.04 43.44
    54.32 43.55" />
  <path fill="#bcceda" d="M 36.67 42.96 L 36.83 43.03 Q 37.04 43.11 37.25 43.18 L
    37.25 43.33 C 38.43 43.39 39.6 43.42 40.78 43.43 L 42.71 43.44 L 44.13 43.45 L
    46.92 43.48 L 46.92 43.55 Q 46.48 43.58 46.05 43.62 L 45.61 43.65 L 45.06 43.69 A
    3.81 3.81 0 0 1 44.49 43.66 C 44.07 43.61 43.66 43.62 43.24 43.62 L 42.71 43.62 L 
    42.43 43.62 C 39.85 43.63 39.85 43.63 38.65 43.6 L 38.4 43.59 C 37.14 43.54 37.14 
    43.54 36.8 43.22 C 36.67 43.04 36.67 43.04 36.67 42.96" />
  <path fill="#b1b1af" d="M 48.75 63.4 L 48.82 63.4 L 48.88 64.9 L 48.93 66.14 L 48.94 
    66.37 L 48.95 66.58 L 48.96 66.77 C 48.96 66.91 48.96 66.91 49.04 66.99 Q 49.05
    67.28 49.05 67.58 L 49.04 68.16 L 48.68 68.23 Q 48.66 65.82 48.75 63.4" />
  <path fill="#bbb8b9" d="M 48.5 70.35 L 48.7 70.35 L 48.92 70.35 L 50.35 70.35 L
    51.53 70.36 L 51.39 70.58 C 50.9 70.66 50.41 70.66 49.91 70.66 L 49.68 70.66 L
    48.48 70.65 L 47.29 70.65 L 47.29 70.58 L 47.42 70.55 L 47.6 70.51 L 47.78 70.47 C 
    48.29 70.35 48.29 70.35 48.5 70.35" />
  <path fill="#dee2e6" d="M 54.46 68.6 C 55.87 68.58 57.24 68.62 58.64 68.75 L 58.71 
    68.6 C 59.02 68.78 59.2 68.9 59.3 69.26 C 59.01 69.28 58.84 69.22 58.58 69.1 C
    58.22 68.97 57.84 68.94 57.47 68.89 L 57.18 68.86 C 56.65 68.8 56.12 68.77 55.59
    68.74 L 54.46 68.67 L 54.46 68.6" />
  <path fill="#e5edf2" d="M 44.63 69.09 L 44.83 69.09 L 45.24 69.1 L 45.86 69.1 C
    47.75 69.1 47.75 69.1 48.09 69.33 L 46.4 69.33 L 45.83 69.33 L 45 69.32 L 44.74
    69.32 C 44.32 69.32 43.9 69.33 43.48 69.4 L 43.33 69.55 L 43.11 69.48 L 43.18 69.26 
    A 6.01 6.01 0 0 1 44.63 69.09" />
  <path fill="#edf1f5" d="M 56.88 68.38 C 58.12 68.44 58.12 68.44 58.64 68.6 L 58.64 
    68.75 C 58.16 68.75 57.69 68.74 57.22 68.71 C 56.65 68.67 56.07 68.67 55.5 68.67 C 
    54.44 68.68 53.39 68.66 52.34 68.6 L 52.34 68.53 L 56.88 68.45 L 56.88 68.38" />
  <path fill="#d4d6d4" d="M 48.97 62.23 L 49.04 62.23 L 49.05 62.36 L 49.08 64.19 C
    49.1 65.13 49.12 66.06 49.19 66.99 L 48.97 66.99 A 3.44 3.44 0 0 1 48.89 66.18 L
    48.89 62.47 C 48.9 62.3 48.9 62.3 48.97 62.23" />
  <path fill="#8b9fab" d="M 57.39 42.96 L 62.81 42.96 L 62.81 43.11 L 60.86 43.16 L
    60.14 43.18 L 59.92 43.18 L 59.71 43.19 L 59.53 43.19 C 59.37 43.18 59.37 43.18
    59.15 43.11 Q 58.96 43.1 58.76 43.1 L 58.53 43.1 L 58.29 43.11 L 58.05 43.11 L
    57.47 43.11 L 57.39 42.96" />
  <path fill="#d3e2ec" d="M 47.36 43.7 L 52.93 43.7 C 52.78 43.84 52.78 43.84 52.63
    43.86 L 52.44 43.86 L 52.22 43.86 L 51.98 43.85 L 51.74 43.85 Q 51.36 43.85 50.98 
    43.85 L 49.75 43.84 L 49.53 43.84 L 49.34 43.84 C 49.19 43.83 49.19 43.83 49.04
    43.92 L 48.53 43.84 C 48.31 43.83 48.09 43.84 47.88 43.84 L 47.29 43.84 L 47.36
    43.7" />
  <path fill="#899da9" d="M 38.2 42.89 Q 38.69 42.88 39.17 42.88 L 39.45 42.88 L 39.72 
    42.88 L 39.97 42.87 C 40.18 42.89 40.3 42.93 40.47 43.04 L 40.47 42.89 L 40.66
    42.91 L 40.9 42.93 L 41.13 42.95 Q 41.39 42.97 41.65 42.96 L 42.09 42.96 C 41.8
    43.15 41.56 43.13 41.23 43.13 L 40.63 43.13 Q 40.33 43.12 40.03 43.12 L 39.63 43.12 
    L 39.45 43.12 C 38.61 43.12 38.61 43.12 38.28 43.04 L 38.2 42.89" />
  <path fill="#dee9f7" d="M 45.29 68.3 L 45.7 68.3 L 46.7 68.31 L 46.7 68.38 L 46.26 
    68.45 L 46.26 68.53 L 46 68.52 L 44.63 68.52 L 44.04 68.52 L 43.85 68.52 Q 43.63
    68.52 43.4 68.53 L 43.33 68.6 Q 43.15 68.62 42.96 68.64 L 42.76 68.66 L 42.6 68.67 
    L 42.74 68.6 L 42.74 68.45 C 43.53 68.19 44.47 68.3 45.29 68.3" />
  <path fill="#c3d3df" d="M 55.49 43.55 L 61.64 43.55 L 61.64 43.62 L 60.33 43.67 C
    59.79 43.68 59.25 43.7 58.71 43.69 C 58.41 43.69 58.14 43.72 57.85 43.76 C 57.42
    43.79 56.98 43.73 56.55 43.7 L 56.24 43.68 L 55.49 43.62 L 55.49 43.55" />
  <path fill="#afacaa" d="M 51.24 65.82 L 51.31 65.82 L 51.31 68.31 L 50.22 68.31 L
    50.14 68.16 Q 50.32 68.16 50.49 68.16 L 50.69 68.15 C 50.87 68.16 50.87 68.16 51.09 
    68.23 L 51.09 67.96 C 51.08 66.5 51.08 66.5 51.17 65.89 L 51.24 65.82" />
  <path fill="#1961c8" d="M 60.03 70.94 L 60.03 71.09 L 60.18 71.16 L 56.07 71.16 L
    56.07 71.09 L 56.29 71.08 L 57.41 71.05 L 57.89 71.04 L 58.04 71.04 C 58.31 71.03 
    58.31 71.03 58.56 70.94 Q 58.83 70.91 59.1 70.9 L 59.39 70.88 C 59.62 70.87 59.81 
    70.88 60.03 70.94" />
  <path fill="#96a1b1" d="M 48.68 46.33 L 48.97 46.41 C 48.98 46.95 48.95 47.48 48.91 
    48.02 L 48.89 48.25 L 48.87 48.47 L 48.85 48.67 L 48.82 48.82 L 48.68 48.9 L 48.68 
    46.33" />
  <path fill="#dcdfe1" d="M 33.66 45.53 L 34.1 45.53 L 34.1 45.67 L 34.54 45.75 L
    34.54 46.26 C 34.21 46.27 33.96 46.26 33.66 46.11 L 33.66 45.53" />
  <path fill="#889ca8" d="M 55.64 42.82 L 55.86 42.82 L 55.86 42.96 L 56.05 42.95 C
    56.48 42.91 56.89 42.87 57.32 42.96 L 57.32 43.04 A 15.23 15.23 0 0 1 55.98 43.16 L 
    55.78 43.17 C 55.29 43.19 54.81 43.18 54.32 43.11 L 54.24 42.89 L 54.46 42.89 L
    54.46 43.04 L 54.68 42.89 L 54.9 42.89 L 54.9 43.04 L 55.07 42.96 C 55.28 42.89
    55.36 42.89 55.56 42.96 L 55.64 42.82" />
  <path fill="#afc1cd" d="M 63.55 42.82 C 63.55 43.04 63.55 43.04 63.39 43.23 C 62.83 
    43.67 61.8 43.49 61.13 43.48 L 61.13 43.4 L 61.28 43.38 L 61.97 43.27 L 62.21 43.23 
    C 62.93 43.15 62.93 43.15 63.55 42.82" />
  <path fill="#b9b9b8" d="M 48.75 63.4 L 48.82 63.4 L 48.97 66.62 L 48.68 66.69 L
    48.75 63.4" />
  <path fill="#d4e2ed" d="M 39.89 43.7 L 43.11 43.7 C 42.88 43.85 42.83 43.86 42.56
    43.85 A 7.25 7.25 0 0 0 41.54 43.91 C 41.34 43.92 41.18 43.88 40.99 43.84 Q 40.72 
    43.84 40.45 43.84 L 40.17 43.84 L 39.96 43.84 L 39.89 43.7" />
  <path fill="#cbcdcf" d="M 40.62 69.11 C 40.91 69.1 41.1 69.1 41.35 69.26 L 41.14
    69.29 C 40.9 69.38 40.9 69.38 40.85 69.56 A 5.57 5.57 0 0 0 40.77 70.06 L 40.4
    70.06 L 40.43 69.75 L 40.44 69.58 C 40.48 69.4 40.53 69.27 40.62 69.11" />
  <path fill="#e9ecee" d="M 47.05 70.35 L 47.51 70.36 C 47.38 70.52 47.31 70.57 47.11 
    70.6 L 46.9 70.6 L 46.66 70.6 L 46.4 70.6 L 46.13 70.6 Q 45.71 70.59 45.29 70.59 Q 
    45.01 70.59 44.73 70.59 L 43.33 70.58 L 43.33 70.5 L 43.46 70.5 L 45.34 70.47 L
    46.07 70.45 L 46.3 70.45 L 46.52 70.45 L 46.7 70.44 C 46.87 70.43 46.89 70.36 47.05 
    70.35" />
  <path fill="#bdbdbe" d="M 57.76 70.65 L 57.83 70.8 L 59.37 70.8 C 59.1 70.98 58.9
    70.96 58.58 70.96 L 58.42 70.96 Q 58.15 70.96 57.89 70.95 L 57.54 70.95 Q 57.1
    70.95 56.66 70.94 L 56.73 70.8 Q 56.99 70.75 57.25 70.71 L 57.54 70.68 L 57.76
    70.65" />
  <path fill="#dadee3" d="M 58.93 68.75 C 59.12 68.85 59.21 68.92 59.28 69.13 L 59.3 
    69.26 C 59.01 69.28 58.84 69.22 58.58 69.1 C 58.23 68.97 57.84 68.94 57.47 68.89 L 
    57.47 68.82 L 58.71 68.82 L 58.93 68.75" />
  <path fill="#8da1ad" d="M 51.09 42.89 Q 51.33 42.92 51.56 42.95 C 51.75 42.96 51.92 
    42.97 52.1 42.96 C 52.55 42.96 52.99 43 53.44 43.04 L 53.44 43.11 A 206.4 206.4 0 0 
    1 52.18 43.16 C 51.44 43.19 50.73 43.17 50 43.11 L 50.07 42.96 L 50.27 42.97 L
    50.81 42.97 C 51.01 42.99 51.01 42.99 51.09 42.89" />
  <path fill="#d3d8dc" d="M 32.34 43.92 C 32.49 44.19 32.6 44.48 32.71 44.78 C 32.78 
    44.95 32.78 44.95 32.93 45.09 C 32.94 45.28 32.94 45.28 32.93 45.45 C 32.63 45.33 
    32.53 45.19 32.4 44.9 C 32.3 44.58 32.32 44.25 32.34 43.92" />
  <path fill="#b7c7d0" d="M 36.67 42.01 L 36.81 42.09 L 36.89 42.31 L 36.74 42.31 C
    36.76 42.39 36.76 42.39 36.78 42.47 C 36.81 42.69 36.78 42.78 36.67 42.96 C 36.49 
    42.91 36.49 42.91 36.3 42.82 C 36.24 42.63 36.24 42.63 36.23 42.45 L 36.3 42.6 L
    36.45 42.6 L 36.47 42.35 L 36.52 42.09 L 36.67 42.01" />
  <path fill="#babbbb" d="M 42.09 70.36 C 42.44 70.34 42.7 70.38 43.04 70.5 Q 43.29
    70.55 43.55 70.58 L 43.4 70.8 C 43.24 70.82 43.24 70.82 43.04 70.82 L 42.82 70.82 L 
    42.59 70.81 L 42.36 70.81 Q 42.08 70.8 41.79 70.8 L 41.79 70.72 L 42.96 70.72 L
    42.96 70.58 L 42.79 70.57 L 42.57 70.55 L 42.34 70.53 L 42.16 70.5 L 42.09 70.36" />
  <path fill="#ced8e1" d="M 45.47 68.89 L 45.75 68.89 L 45.75 69.11 L 43.4 69.19 L
    43.4 69.11 C 43.85 69.02 44.27 68.95 44.72 68.97 C 44.98 68.96 45.21 68.88 45.47
    68.89" />
  <path fill="#d3e1ec" d="M 60.03 43.7 L 62.15 43.7 C 61.87 43.99 61.3 43.91 60.91
    43.92 C 60.23 43.9 60.23 43.9 60.03 43.7" />
  <path fill="#dfe9f0" d="M 36.67 41.43 L 36.81 41.5 L 36.52 42.01 L 36.67 42.09 L
    36.52 42.09 L 36.45 42.6 L 36.3 42.6 L 36.15 42.74 C 36.11 42.33 36.24 42 36.45
    41.65 C 36.57 41.52 36.57 41.52 36.67 41.43" />
  <path fill="#aeb8c3" d="M 49.04 46.92 L 49.12 46.92 L 49.19 47.8 L 49.04 47.8 C
    48.94 48 48.95 48.17 48.93 48.39 L 48.91 48.64 L 48.9 48.82 L 48.82 48.82 C 48.8
    47.58 48.8 47.58 48.97 46.99 L 49.04 46.92" />
  <path fill="#c8daea" d="M 63.18 41.43 C 63.43 41.53 63.55 41.64 63.69 41.87 C 63.74 
    42.07 63.74 42.07 63.77 42.23 L 63.61 42.17 A 11.79 11.79 0 0 0 62.96 41.94 L 63.18 
    41.87 L 63.18 41.43" />
  <path fill="#1a6bdf" d="M 40.77 70.87 L 40.77 71.02 L 41.65 71.09 L 41.65 71.16 L 
    39.89 71.16 L 39.89 70.94 L 40.2 70.91 L 40.38 70.89 C 40.55 70.87 40.55 70.87
    40.77 70.87" />
  <path fill="#8ea1ae" d="M 44.06 42.96 L 46.26 42.96 L 46.26 43.11 Q 45.88 43.13 45.5 
    43.15 L 45.28 43.16 C 44.84 43.19 44.43 43.17 43.99 43.11 L 44.06 42.96" />
  <path fill="#ddebf6" d="M 62.96 41.28 L 63.25 41.43 L 63.18 41.87 L 61.79 41.72 L
    61.79 41.65 L 63.03 41.65 L 62.96 41.28" />
  <path fill="#b1bec6" d="M 37.36 41.86 L 37.55 41.86 L 37.74 41.86 L 37.94 41.86 L
    38.42 41.87 L 38.42 41.94 L 37.11 42.01 L 37.4 42.16 L 36.74 42.16 L 36.81 41.94 A 
    1.46 1.46 0 0 1 37.36 41.86" />
  <path fill="#e3e7ed" d="M 58.64 68.6 L 58.93 68.75 C 58.86 68.89 58.86 68.89 58.73  
    68.94 C 58.53 68.97 58.39 68.93 58.2 68.89 Q 57.97 68.85 57.74 68.81 L 57.5 68.77 L 
    57.32 68.75 L 57.32 68.67 L 58.64 68.75 L 58.64 68.6" />
  <path fill="#8ca0ac" d="M 42.31 42.96 L 43.84 42.96 C 43.37 43.28 42.84 43.17 42.31 
    43.11 L 42.31 42.96" />
  <path fill="#c2ccd8" d="M 40.62 69.11 L 40.77 69.19 L 40.69 69.33 Q 40.67 69.52
    40.65 69.71 L 40.63 69.91 L 40.62 70.06 L 40.4 70.06 L 40.43 69.75 L 40.44 69.58 C 
    40.48 69.4 40.53 69.27 40.62 69.11" />
  <path fill="#c3cdd4" d="M 34.54 45.75 L 34.69 45.75 L 34.69 46.04 L 34.83 46.04 L
    34.91 46.33 L 34.25 46.33 L 34.54 46.26 L 34.54 45.75" />
  <path fill="#cfd8dc" d="M 67.57 44.21 L 67.65 44.21 C 67.68 44.66 67.59 44.87 67.35 
    45.23 L 67.21 45.16 L 67.27 45.04 A 4.03 4.03 0 0 0 67.47 44.52 L 67.53 44.34 L
    67.57 44.21" />
  <path fill="#e2e3e4" d="M 47.23 70.35 L 47.51 70.36 C 47.42 70.47 47.42 70.47 47.29 
    70.58 C 47.07 70.6 47.07 70.6 46.83 70.59 L 46.59 70.58 L 46.41 70.58 C 46.69 70.43 
    46.91 70.35 47.23 70.35" />
  <path fill="#eff1f3" d="M 48.24 68.6 L 48.9 68.6 L 48.9 68.75 L 49.04 68.82 L 48.24 
    68.82 L 48.24 68.6" />
  <path fill="#c7d6df" d="M 36.52 42.09 L 36.67 42.16 L 36.52 42.89 L 36.23 42.74 L 
    36.3 42.45 L 36.3 42.6 L 36.45 42.6 L 36.52 42.09" />
  <path fill="#1a6ce1" d="M 59.66 70.87 C 59.86 70.9 59.86 70.9 60.03 70.94 L 60.03 
    71.09 L 60.18 71.16 L 59.15 71.16 L 59.15 71.09 L 59.33 71.06 C 59.53 71.03 59.53 
    71.03 59.66 70.87" />
  <path fill="#c0c8d0" d="M 59.22 69.04 C 59.41 69.2 59.48 69.31 59.52 69.55 L 59.28 
    69.48 A 7.18 7.18 0 0 0 58.64 69.33 L 58.64 69.26 L 59.22 69.19 L 59.22 69.04" />
  <path fill="#dfe8ed" d="M 43.18 69.33 C 43.04 69.55 43.04 69.55 42.89 69.59 L 42.74 
    69.6 L 42.45 69.62 L 42.52 69.4 C 42.74 69.32 42.95 69.32 43.18 69.33" />
  <path fill="#d7dde4" d="M 41.13 68.67 L 41.28 68.82 L 40.91 69.19 L 40.69 69.11 C
    40.97 68.76 40.97 68.76 41.13 68.67" />
  <path fill="#e6eff6" d="M 36.67 41.43 L 36.81 41.5 L 36.52 42.01 L 36.67 42.09 L 
    36.37 42.16 C 36.35 41.96 36.35 41.96 36.37 41.72 C 36.52 41.55 36.52 41.55 36.67 
    41.43" />
  <path fill="#c6c5c4" d="M 40.69 69.4 L 40.84 69.4 L 40.77 70.06 C 40.62 69.92 40.62 
    69.92 40.61 69.69 C 40.62 69.48 40.62 69.48 40.69 69.4" />
  <path fill="#e2ebf0" d="M 43.92 69.19 L 43.92 69.26 L 43.71 69.32 C 43.47 69.39
    43.47 69.39 43.33 69.55 L 43.11 69.48 L 43.18 69.26 C 43.44 69.17 43.65 69.18 43.92 
    69.19" />
  <path fill="#c8d2db" d="M 63.55 41.79 L 63.69 41.87 A 2.86 2.86 0 0 1 63.77 42.23 C 
    63.55 42.15 63.42 42.1 63.25 41.94 L 63.55 41.94 L 63.55 41.79" />
  <path fill="#c1c9cf" d="M 49.04 47.65 L 49.19 47.94 L 49.04 47.94 L 48.97 48.53 L
    48.9 48.53 C 48.88 47.9 48.88 47.9 49.04 47.65" />
  <path fill="#c6c9ca" d="M 67.35 44.72 C 67.35 45.23 67.35 45.23 67.24 45.36 L 67.13 
    45.45 C 67.11 44.98 67.11 44.98 67.24 44.8 L 67.35 44.72" />
  <path fill="#aebac2" d="M 63.55 42.16 L 63.77 42.23 L 63.77 42.74 C 63.61 42.58
    63.61 42.58 63.47 42.38 L 63.55 42.16" />
</svg>
