<svg xmlns="http://www.w3.org/2000/svg" viewBox="0 0 100 100" width="100" height="100">
  <g fill="#000">
    <path d="M 29.61 49.41 L 28.91 49.41 C 28.61 52.4 28.2 56.04 23.05 56.04 L 20.7 56.04 
      C 19.36 56.04 19.3 55.86 19.3 54.86 L 19.3 39.34 C 19.3 38.34 19.3 37.93 22.05 37.93 
      L 22.99 37.93 L 22.99 37.05 C 21.87 37.11 19.3 37.11 18.07 37.11 C 16.95 37.11 14.67 
      37.11 13.67 37.05 L 13.67 37.93 L 14.32 37.93 C 16.54 37.93 16.6 38.22 16.6 39.28 L 
      16.6 54.57 C 16.6 55.62 16.54 55.92 14.32 55.92 L 13.67 55.92 L 13.67 56.8 L 28.79 
      56.8 L 29.61 49.41" />
    <path d="M 29.08 36.99 C 28.96 36.64 28.91 36.52 28.55 36.52 C 28.2 36.52 28.09 36.64 
      27.97 36.99 L 23.28 48.89 C 23.11 49.36 22.75 50.29 20.94 50.29 L 20.94 51 L 25.45 
      51 L 25.45 50.29 C 24.57 50.29 23.98 49.88 23.98 49.3 C 23.98 49.18 23.98 49.12
      24.04 48.89 L 25.04 46.37 L 30.84 46.37 L 32.01 49.36 C 32.07 49.47 32.13 49.59
      32.13 49.71 C 32.13 50.29 31.02 50.29 30.49 50.29 L 30.49 51 L 36.23 51 L 36.23
      50.29 L 35.82 50.29 C 34.47 50.29 34.3 50.12 34.12 49.53 L 29.08 36.99 L 29.08 36.99 
      M 27.97 39.1 L 30.55 45.72 L 25.33 45.72 L 27.97 39.1 L 27.97 39.1" />
    <path d="M 52.46 37.23 L 34.71 37.23 L 34.18 43.73 L 34.88 43.73 C 35.29 39.04 35.7
      38.05 40.16 38.05 C 40.68 38.05 41.45 38.05 41.74 38.11 C 42.32 38.22 42.32 38.52
      42.32 39.22 L 42.32 54.51 C 42.32 55.51 42.32 55.92 39.28 55.92 L 38.11 55.92 L
      38.11 56.8 C 39.28 56.74 42.27 56.74 43.61 56.74 C 44.96 56.74 47.95 56.74 49.18
      56.8 L 49.18 55.92 L 48.01 55.92 C 44.96 55.92 44.96 55.51 44.96 54.51 L 44.96 39.28 
      C 44.96 38.69 44.96 38.28 45.49 38.16 C 45.78 38.11 46.6 38.11 47.13 38.11 C 51.52 
      38.11 51.93 39.04 52.34 43.79 L 53.05 43.79 L 52.46 37.23 L 52.46 37.23" />
    <path d="M 68.11 55.98 L 67.4 55.98 C 66.7 60.43 66 62.6 61.02 62.6 L 57.15 62.6 C
      55.8 62.6 55.74 62.42 55.74 61.43 L 55.74 53.63 L 58.32 53.63 C 61.13 53.63 61.48
      54.57 61.48 57.03 L 62.19 57.03 L 62.19 49.36 L 61.48 49.36 C 61.48 51.82 61.19
      52.75 58.32 52.75 L 55.74 52.75 L 55.74 45.72 C 55.74 44.79 55.8 44.55 57.15 44.55 L 
      60.9 44.55 C 65.35 44.55 66.11 46.13 66.58 50.23 L 67.29 50.23 L 66.46 43.67 L 50.12 
      43.67 L 50.12 44.55 L 50.76 44.55 C 52.99 44.55 53.05 44.84 53.05 45.9 L 53.05 61.13 
      C 53.05 62.19 52.99 62.48 50.76 62.48 L 50.12 62.48 L 50.12 63.48 L 66.88 63.48 L
      68.11 55.98" />
    <path d="M 76.89 45.66 L 80.88 39.8 C 81.46 38.87 82.46 37.93 85.1 37.93 L 85.1 37.05 
      L 78.12 37.05 L 78.12 37.93 C 79.3 37.93 79.94 38.57 79.94 39.28 C 79.94 39.57 79.88 
      39.63 79.71 39.92 L 76.37 44.84 L 72.62 39.22 C 72.56 39.16 72.44 38.93 72.44 38.81 
      C 72.44 38.46 73.09 37.99 74.32 37.93 L 74.32 37.05 C 73.32 37.11 71.21 37.11 70.1 
      37.11 C 69.22 37.11 67.4 37.11 66.29 37.05 L 66.29 37.93 L 66.82 37.93 C 68.4 37.93 
      68.98 38.11 69.51 38.93 L 74.84 47.01 L 70.1 54.04 C 69.69 54.63 68.81 55.98 65.88 
      55.98 L 65.88 56.86 L 72.85 56.86 L 72.85 55.98 C 71.5 55.98 71.04 55.16 71.04 54.63 
      C 71.04 54.39 71.09 54.28 71.33 53.93 L 75.43 47.83 L 80.06 54.8 C 80.12 54.92 80.18 
      55.04 80.18 55.1 C 80.18 55.45 79.53 55.92 78.3 55.98 L 78.3 56.86 C 79.3 56.8 81.46 
      56.8 82.52 56.8 C 83.75 56.8 85.1 56.8 86.33 56.86 L 86.33 55.98 L 85.8 55.98 C
      84.28 55.98 83.69 55.86 83.05 54.92 L 76.89 45.66 L 76.89 45.66" />
  </g>
</svg>
