<svg xmlns="http://www.w3.org/2000/svg" viewBox="0 0 100 100" width="100" height="100">
  <g fill="#000">
    <path d="M 19.5 26.77 C 16.08 26.77 13.28 29.62 13.28 33.03 L 13.28 66.98 C 13.28
      70.38 16.08 73.23 19.5 73.23 L 80.5 73.23 C 83.92 73.23 86.72 70.38 86.72 66.98 L 
      86.72 33.03 C 86.72 29.62 83.92 26.77 80.5 26.77 L 21.23 26.77 L 21.23 26.77 L
      19.5 26.77 L 19.5 26.77 M 19.5 32.36 L 80.5 32.36 C 80.86 32.36 81.13 32.61 81.13 
      33.03 L 81.13 66.98 C 81.13 67.4 80.86 67.64 80.5 67.64 L 19.5 67.64 C 19.14
      67.64 18.87 67.4 18.87 66.98 L 18.87 33.03 C 18.87 32.61 19.14 32.36 19.5 32.36 L 
      19.5 32.36" />
    <path d="M 24.64 61.78 L 24.64 38.22 L 31.5 38.22 L 38.35 46.88 L 45.2 38.22 L
      52.05 38.22 L 52.05 61.78 L 45.2 61.78 L 45.2 48.27 L 38.35 56.93 L 31.49 48.27 L 
      31.49 61.78 L 24.64 61.78 L 24.64 61.78 M 67.48 61.78 L 57.2 50.35 L 64.05 50.35
      L 64.05 38.22 L 70.9 38.22 L 70.9 50.35 L 77.76 50.35 L 67.48 61.78" />
  </g>
</svg>
