<svg xmlns="http://www.w3.org/2000/svg" viewBox="0 0 100 100" width="100" height="100">
  <path fill="#439934" d="M 64.08 37.59 C 65.03 40.31 65.7 43.08 65.93 45.96 C 66.2
    49.53 66.08 53.08 65.32 56.59 C 65.3 56.69 65.26 56.78 65.23 56.87 C 64.99 56.87
    64.75 56.84 64.52 56.88 C 62.57 57.19 60.62 57.5 58.67 57.82 C 56.66 58.15 54.64
    58.46 52.63 58.81 C 51.91 58.93 51.03 58.78 50.75 59.77 C 50.74 59.8 50.65 59.8
    50.61 59.82 L 50.7 53.93 L 50.61 39.72 L 51.54 39.56 C 53.08 39.31 54.61 39.05
    56.15 38.81 C 57.98 38.51 59.82 38.23 61.65 37.95 C 62.46 37.82 63.27 37.71 64.08 
    37.59 L 64.08 37.59" />
  <path fill="#45A538" d="M 48.67 76.99 C 47.68 76.13 46.65 75.32 45.7 74.42 C 40.6
    69.61 36.86 63.94 35.02 57.1 C 34.51 55.22 34.18 53.31 34.07 51.36 C 33.99 50 33.88 
    48.63 33.98 47.28 C 34.23 43.68 34.75 40.11 35.81 36.64 L 35.87 36.56 C 35.97 36.7 
    36.12 36.82 36.17 36.97 C 37.2 40.01 38.22 43.05 39.24 46.09 C 42.44 55.64 45.63
    65.19 48.84 74.74 C 48.9 74.92 49.06 75.08 49.18 75.25 L 48.67 76.99 L 48.67
    76.99" />
  <path fill="#46A037" d="M 64.08 37.59 C 63.27 37.71 62.46 37.82 61.65 37.95 C 59.82 
    38.23 57.98 38.51 56.15 38.8 C 54.61 39.05 53.08 39.3 51.54 39.56 L 50.61 39.72 L 
    50.6 39.1 C 50.57 38.6 50.51 38.1 50.51 37.59 C 50.47 34.39 50.44 31.18 50.4 27.97 
    C 50.38 25.96 50.34 23.95 50.3 21.94 C 50.27 20.69 50.25 19.44 50.19 18.2 C 50.16 
    17.53 50.05 16.86 50.01 16.19 C 49.98 15.81 50.02 15.42 50.03 15.03 C 50.5 15.96
    50.97 16.89 51.47 17.81 C 52.24 19.27 53.48 20.34 54.6 21.51 C 59 26.14 62.13 31.51 
    64.08 37.59 L 64.08 37.59" />
  <path fill="#409433" d="M 50.61 59.82 C 50.65 59.8 50.74 59.8 50.74 59.77 C 51.03
    58.78 51.91 58.93 52.63 58.81 C 54.64 58.46 56.65 58.15 58.67 57.82 C 60.62 57.5
    62.57 57.19 64.52 56.88 C 64.75 56.84 64.99 56.87 65.23 56.87 C 64.86 58.17 64.57 
    59.5 64.11 60.77 C 63.59 62.2 62.95 63.6 62.28 64.98 A 28.79 28.79 0 0 1 58.55 70.7 
    C 57.43 72.05 56.18 73.3 54.92 74.53 C 54.23 75.22 53.41 75.77 52.65 76.39 L 52.45 
    76.25 L 51.74 75.64 L 51 74.03 A 24.26 24.26 0 0 1 50.18 68.26 L 50.2 67.94 L 50.3 
    66.51 C 50.33 66.03 50.38 65.54 50.4 65.06 C 50.47 63.31 50.54 61.56 50.61 59.82 L 
    50.61 59.82" />
  <path fill="#4FAA41" d="M 50.61 59.82 C 50.54 61.56 50.47 63.31 50.4 65.06 C 50.38 
    65.55 50.33 66.03 50.3 66.51 L 49.85 66.68 C 48.86 63.75 47.86 60.85 46.89 57.95 C 
    45.27 53.14 43.68 48.32 42.07 43.51 A 2636.07 2636.07 0 0 0 38.15 31.87 C 38.09
    31.69 37.91 31.54 37.79 31.38 L 40.65 26.11 C 40.75 26.28 40.88 26.44 40.94 26.62 A 
    3623.76 3613.76 0 0 1 44.91 38.41 C 46.62 43.53 48.32 48.65 50.02 53.76 C 50.09 
    53.97 50.2 54.15 50.31 54.38 L 50.7 53.93 L 50.61 59.82 L 50.61 59.82" />
  <path fill="#4AA73C" d="M 37.79 31.38 C 37.91 31.54 38.09 31.69 38.15 31.87 A
    2636.07 2636.07 0 0 1 42.07 43.51 C 43.68 48.32 45.27 53.14 46.89 57.95 C 47.86
    60.85 48.86 63.75 49.85 66.68 L 50.3 66.52 L 50.2 67.94 L 50.11 68.26 C 49.95 69.82 
    49.82 71.38 49.63 72.93 C 49.54 73.71 49.33 74.48 49.18 75.25 C 49.06 75.08 48.9
    74.92 48.84 74.74 C 45.63 65.19 42.44 55.64 39.24 46.09 A 2278.69 2278.69 0 0 0
    36.17 36.97 C 36.12 36.82 35.97 36.7 35.87 36.56 L 37.79 31.38 L 37.79 31.38" />
  <path fill="#57AE47" d="M 50.7 53.93 L 50.31 54.38 C 50.2 54.16 50.09 53.97 50.02
    53.76 C 48.32 48.65 46.62 43.53 44.91 38.41 A 3613.76 3613.76 0 0 0 40.94 26.62 C 
    40.88 26.44 40.75 26.28 40.65 26.11 L 44.2 21.44 C 44.31 21.59 44.47 21.72 44.53
    21.89 C 45.52 24.78 46.49 27.66 47.46 30.55 C 48.37 33.25 49.26 35.95 50.18 38.64 C 
    50.24 38.83 50.45 38.95 50.6 39.11 L 50.6 39.72 C 50.64 44.45 50.67 49.19 50.7
    53.93 L 50.7 53.93" />
  <path fill="#60B24F" d="M 50.6 39.1 C 50.46 38.95 50.24 38.82 50.18 38.64 C 49.26
    35.95 48.37 33.25 47.46 30.55 C 46.49 27.66 45.52 24.78 44.53 21.89 C 44.47 21.72 
    44.31 21.59 44.2 21.44 C 45.36 20.31 46.47 19.14 47.67 18.06 C 48.74 17.11 49.6
    16.08 49.64 14.57 C 49.64 14.5 49.67 14.44 49.72 14.27 L 50.03 15.03 C 50.02 15.42 
    49.99 15.8 50.01 16.19 C 50.05 16.86 50.16 17.53 50.19 18.2 C 50.25 19.44 50.28
    20.69 50.3 21.94 C 50.34 23.95 50.38 25.96 50.4 27.96 C 50.44 31.17 50.47 34.38
    50.51 37.59 C 50.51 38.1 50.57 38.6 50.6 39.1 L 50.6 39.1" />
  <path fill="#A9AA88" d="M 49.18 75.25 C 49.33 74.47 49.54 73.71 49.63 72.93 C 49.82 
    71.38 49.95 69.82 50.11 68.26 L 50.15 68.26 L 50.19 68.26 A 24.26 24.26 0 0 0 51
    74.03 C 50.9 74.16 50.75 74.29 50.7 74.44 C 50.27 75.64 49.87 76.85 49.44 78.05 C 
    49.38 78.22 49.22 78.34 49.11 78.49 L 48.67 76.99 L 49.18 75.25 L 49.18 75.25" />
  <path fill="#B6B598" d="M 49.11 78.49 C 49.22 78.35 49.39 78.22 49.44 78.05 C 49.87 
    76.85 50.27 75.64 50.7 74.44 C 50.75 74.29 50.9 74.17 51 74.03 L 51.74 75.64 C
    51.59 75.85 51.39 76.04 51.31 76.26 L 49.9 80.4 C 49.84 80.57 49.65 80.68 49.51
    80.82 L 49.11 78.49 L 49.11 78.49" />
  <path fill="#C2C1A7" d="M 49.51 80.82 C 49.65 80.68 49.84 80.57 49.9 80.4 L 51.31
    76.26 C 51.39 76.04 51.59 75.85 51.74 75.64 L 52.45 76.25 C 52.11 76.59 51.91 76.98 
    52.03 77.48 L 51.81 78.19 C 51.71 78.31 51.57 78.41 51.52 78.55 C 51.03 79.96 50.56 
    81.38 50.07 82.78 C 50.01 82.96 49.83 83.1 49.71 83.26 C 49.64 82.45 49.58 81.64
    49.51 80.82 L 49.51 80.82" />
  <path fill="#CECDB7" d="M 49.71 83.26 C 49.83 83.1 50.01 82.96 50.07 82.78 C 50.56 
    81.38 51.03 79.96 51.52 78.55 C 51.57 78.41 51.71 78.31 51.81 78.19 L 51.52 81.44 C 
    51.44 81.53 51.32 81.61 51.28 81.72 C 50.95 82.66 50.63 83.61 50.29 84.56 C 50.22 
    84.75 50.09 84.93 49.98 85.11 C 49.89 84.99 49.72 84.87 49.72 84.74 C 49.69 84.25 
    49.71 83.75 49.71 83.26 L 49.71 83.26" />
  <path fill="#DBDAC7" d="M 49.98 85.11 C 50.09 84.93 50.22 84.75 50.29 84.56 C 50.63 
    83.61 50.95 82.66 51.28 81.72 C 51.32 81.61 51.44 81.53 51.52 81.44 L 51.52 83.57 L 
    50.81 85.4 L 49.98 85.11 L 49.98 85.11" />
  <path fill="#EBE9DC" d="M 50.81 85.4 L 51.52 83.57 L 51.67 85.73 L 50.81 85.4 L
    50.81 85.4" />
  <path fill="#CECDB7" d="M 52.03 77.48 C 51.91 76.98 52.11 76.59 52.45 76.25 L 52.65 
    76.39 L 52.03 77.48 L 52.03 77.48" />
  <path fill="#4FAA41" d="M 50.19 68.27 L 50.15 68.26 L 50.11 68.26 L 50.2 67.94 L
    50.19 68.27 L 50.19 68.27" />
</svg>
