<svg xmlns="http://www.w3.org/2000/svg" viewBox="0 0 100 100" width="100" height="100">
    <path fill="#154f5b" stroke="#399" stroke-width="0.5" d="M 36.46 29.13 h 16.19
      v 1.05 L 35.18 30.3 c -2.92 0 -6.29 -0.58 -8.97 0.58 -5.36 2.21 -6.29 9.9 -5.47 
      14.79 0.34 1.86 1.011524 3.993925 2.09 5.71 1.066154 1.696468 2.456902 3.304485 
      4.19 4.31 2.012578 1.167665 4.433333 1.74 6.76 1.74 0.386667 -1.473333 0.58
      -2.986667 0.58 -4.54 0.47 -3.38 1.63 -7.1 4.89 -8.62 3.03 -1.28 6.52 -0.93 9.67 
      -0.7 h 5.01 c 2.09 0 5.24 -0.11 6.87 -1.74 1.05 -1.17 1.51 -2.91 1.98 -4.31 1.16 
      -4.19 1.28 -8.97 0.46 -13.16 -0.23 -1.52 -0.46 -3.49 -1.51 -4.66 -1.726302
      -1.625433 -3.933569 -2.646601 -6.29 -2.91 -3.96 -0.82 -8.15 -0.35 -12.11 0.46
      -1.86 0.35 -5.01 1.05 -6.29 2.68 -0.47 0.59 -0.23 1.17 -0.35 1.87 -0.58 2.21
      -0.23 5 -0.23 7.33" />
    <path fill="#454548" stroke="#399" stroke-width="0.5" d="M 42.05 20.28 C 41
      20.52 39.83 21.45 39.49 22.61 C 39.14 24.59 40.77 27.15 43.1 26.69 C 44.38 26.34 
      45.77 25.06 45.77 23.54 C 45.77 21.91 43.91 19.7 42.05 20.28" />
    <path fill="#154f5b" stroke="#399" stroke-width="0.5" d="M 65.46 30.76 Q 65.34 
      33.68 64.87 36.59 Q 64.64 38.22 64.06 39.73 L 63.01 41.83 C 61.5 43.81 59.17
      44.39 56.84 44.74 C 52.53 45.55 48.1 44.39 43.68 44.74 C 40.65 45.09 39.95 45.79 
      37.85 47.77 Q 37.16 49.28 36.81 50.8 C 35.53 54.75 35.53 59.76 36.22 63.72 Q
      36.46 66.52 37.97 68.73 C 39.37 70.48 42.16 71.18 44.14 71.41 C 48.45 71.99
      52.99 72.22 57.19 70.83 C 58.82 70.36 61.38 69.78 62.43 68.38 C 63.01 67.57
      63.01 66.17 63.01 65.24 L 63.01 59.06 L 57.54 59.18 L 46.82 59.18 L 46.82 58.13 
      L 66.27 57.9 C 69.07 57.9 72.79 58.6 75.12 56.62 C 80.94 51.84 80.71 40.9 76.05 
      35.42 C 73.38 32.28 69.53 30.76 65.46 30.76" />
    <path fill="#454548" stroke="#399" stroke-width="0.5" d="M 56.02 61.04 Q 54.28 
      61.39 53.34 63.02 C 52.65 65.24 54.51 68.03 57.07 67.45 C 58.24 67.1 59.75 65.59 
      59.63 64.19 C 59.52 62.67 57.77 60.58 56.02 61.04" />
    <path fill="#399" d="M 38.44 76.18 L 38.44 83.64 L 39.49 83.64 L 39.49 78.28 L
      39.6 78.28 L 41.81 82.01 L 42.98 83.52 L 44.03 83.64 L 44.03 76.18 L 42.98 76.18 
      L 42.98 81.42 L 42.86 81.42 L 39.83 76.18 L 38.44 76.18 M 45.42 76.18 L 45.42
      83.64 L 49.85 83.64 L 49.85 82.71 L 46.59 82.71 L 46.59 76.18 L 45.42 76.18 M
      48.69 76.18 L 48.69 77.12 L 51.13 77.12 L 51.13 83.64 L 52.3 83.64 L 52.3 77.12 
      L 54.51 77.12 L 54.51 76.18 L 48.69 76.18 M 54.97 76.18 L 54.97 83.64 L 56.26
      83.64 L 56.37 80.38 L 56.95 80.38 L 58.93 83.64 L 60.56 83.64 L 58.82 80.96 L
      57.77 79.44 L 57.77 79.33 L 60.33 76.18 L 58.82 76.3 L 56.37 79.44 L 56.26 79.44 
      L 56.26 76.18 L 54.97 76.18" />
</svg>
