<svg xmlns="http://www.w3.org/2000/svg" viewBox="0 0 100 100" width="100" height="100">
  <circle
      cx="50" cy="50" r="50"
      fill="#454548" />
  <path d="M 44.82 28.12 L 32.51 21.9 L 18.99 28.65 L 31.64 35 L 44.82 28.12 M
    50.47 30.97 L 63.39 37.49 L 49.99 44.21 L 37.32 37.85 L 50.47 30.97 M 67.72
    21.99 L 80.99 28.65 L 69.12 34.61 L 56.18 28.08 L 67.72 21.99 M 62.01 19.13
    L 50.06 13.14 L 38.25 19.04 L 50.56 25.24 L 62.01 19.13 M 52.67 70.56 L 52.67 
    86.86 L 67.14 79.64 L 67.13 63.33 L 52.67 70.56 M 67.12 57.64 L 67.11 41.51 L 
    52.67 48.68 L 52.67 64.83 L 67.12 57.64 M 84.49 54.62 L 84.49 70.98 L 72.15
    77.14 L 72.14 60.85 L 84.49 54.62 M 84.49 48.9 L 84.49 32.86 L 72.13 39.01 L 
    72.13 55.18 L 84.49 48.9" fill="#4cabcf" />
  <path d="M 47.56 48.68 L 37.82 43.78 L 37.82 64.96 C 37.82 64.96 25.9 39.6 24.8
    37.32 C 24.65 37.02 24.07 36.7 23.92 36.62 C 21.77 35.5 15.51 32.33 15.51
    32.33 L 15.51 69.75 L 24.17 74.4 L 24.17 54.83 C 24.17 54.83 35.97 77.49 36.09 
    77.74 C 36.21 77.99 37.39 80.37 38.66 81.21 C 40.34 82.33 47.56 86.67 47.56
    86.67 L 47.56 48.68" fill="#4c75cf" />
</svg>
