<svg xmlns="http://www.w3.org/2000/svg" viewBox="0 0 100 100" width="100" height="100">
  <g transform="scale(1.2) translate(-0.5)" opacity="0.8">
    <path d="M 20.76 42.03 L 86.38 42.03 C 86.41 76.9 55.1 76.36 54.85 76.33 C 54.85 76.33 20.88 77.1 20.76 42.03" fill="#C4C4DA" transform="translate(-11.5 -10)"/>
    <path d="M 17.01 24.03 L 82.63 24.03 L 76.19 28.21 L 24.65 28.46 L 17.01 24.03" fill="#d7d7fa" transform="translate(-7.7 8)" />
    <path d="M 17.76 24.03 L 69.88 24.03 C 69.79 50.37 44.02 50.66 43.85 50.65 C 43.85 50.65 17.77 50.66 17.76 24.03 M 25.63 27.41 L 62.38 27.03 C 66.43 33.23 37.02 23.9 25.63 27.41" fill="#9b9bd4" transform="translate(-1.2 12.3)" />
    <path d="M 16.62 23.66 L 68.76 23.66 L 59.32 27.43 L 24.97 27.18 L 16.62 23.66" fill="#8888db" transform="translate(-0.2 12.6)" />
    <path d="M 49.88 24.37 C 49.72 44.5 32.01 44.3 32.27 44.26 C 32.27 44.26 13.62 44.26 13.62 24.45 L 49.88 24.37" fill="#6464e1" transform="translate(10.2 15.1)" />
  </g>
</svg>
