<svg xmlns="http://www.w3.org/2000/svg" viewBox="0 0 100 100" width="100" height="100">
  <path fill="#ed225d" d="M 34.65 32.8 L 34.21 46.84 C 34.64 46.63 35.08 46.45 35.54 
    46.3 A 20.36 20.36 0 0 1 37.06 45.85 C 37.59 45.71 38.12 45.61 38.66 45.54 C 39.17 
    45.47 39.68 45.43 40.2 45.43 C 40.9 45.43 41.59 45.51 42.27 45.67 A 4.96 4.96 0 0 1 
    44.1 46.5 C 44.64 46.9 45.08 47.42 45.42 48.08 C 45.76 48.73 45.93 49.55 45.93
    50.54 C 45.93 51.32 45.8 52.01 45.55 52.63 C 45.3 53.25 44.95 53.76 44.52 54.17 A
    4.46 4.46 0 0 1 42.99 55.12 A 5.27 5.27 0 0 1 41.14 55.44 C 39.98 55.44 38.98 55.13 
    38.13 54.52 C 37.29 53.9 36.68 53.08 36.32 52.07 L 36.27 52.09 L 33.12 55.04 A 8.44 
    8.44 0 0 0 35.59 57.64 C 37.07 58.64 38.88 59.14 41.03 59.14 C 42.32 59.14 43.52
    58.94 44.66 58.53 C 45.8 58.11 46.79 57.52 47.64 56.75 C 48.48 55.97 49.15 55.02
    49.65 53.9 C 50.15 52.77 50.39 51.5 50.39 50.07 C 50.39 48.77 50.17 47.61 49.72
    46.61 C 49.27 45.61 48.65 44.76 47.85 44.07 C 47.06 43.38 46.12 42.85 45.04 42.49 C 
    43.97 42.13 42.8 41.95 41.54 41.95 C 41.08 41.95 40.57 41.97 40 42.02 C 39.43 42.07 
    38.94 42.15 38.53 42.27 L 38.78 36.72 L 49.27 36.72 L 49.27 32.8 L 34.65 32.8 M
    65.2 40.24 L 65.2 59.72 C 65.2 60.23 65.17 60.71 65.12 61.16 C 65.07 61.6 64.97 62 
    64.8 62.34 A 1.96 1.96 0 0 1 64.07 63.13 C 63.76 63.33 63.34 63.42 62.84 63.42 A
    5.4 5.4 0 0 1 61.64 63.28 L 61.28 66.98 C 61.5 67.03 61.78 67.08 62.15 67.13 C
    62.51 67.17 62.87 67.2 63.24 67.2 C 64.54 67.2 65.6 66.99 66.41 66.58 C 67.22 66.17 
    67.86 65.62 68.34 64.93 C 68.81 64.24 69.13 63.43 69.29 62.5 A 16.52 16.52 0 0 0
    69.55 59.54 L 69.55 40.24 L 65.2 40.24 M 23.09 40.57 C 22.29 40.57 21.57 40.66
    20.93 40.84 C 20.33 41 19.75 41.24 19.2 41.53 C 18.7 41.81 18.27 42.12 17.92 42.47 
    A 6.26 6.26 0 0 0 17.06 43.51 L 16.95 43.51 L 16.95 41.08 L 12.78 41.08 L 12.78
    67.2 L 17.14 67.2 L 17.14 56.17 L 17.21 56.17 C 17.76 57.04 18.56 57.73 19.59 58.24 
    C 20.61 58.74 21.74 59 22.98 59 C 24.31 59 25.5 58.75 26.55 58.25 C 27.6 57.76 28.5 
    57.09 29.24 56.26 C 29.97 55.42 30.54 54.44 30.94 53.32 C 31.34 52.19 31.54 50.99 
    31.54 49.71 C 31.54 48.43 31.33 47.23 30.92 46.12 C 30.51 45.01 29.93 44.04 29.18 
    43.22 A 8.14 8.14 0 0 0 26.5 41.27 C 25.46 40.8 24.32 40.57 23.09 40.57 L 23.09
    40.57 M 80.69 40.57 A 9.89 9.89 0 0 0 78.15 40.89 A 7.09 7.09 0 0 0 75.93 41.89 A
    5.15 5.15 0 0 0 74.36 43.61 C 73.96 44.32 73.76 45.15 73.76 46.12 C 73.76 46.94
    73.9 47.63 74.19 48.18 A 4.18 4.18 0 0 0 75.35 49.58 A 6.25 6.25 0 0 0 77.01 50.49 
    A 14.43 14.43 0 0 0 78.91 51.05 C 80.24 51.37 81.24 51.68 81.9 52 C 82.57 52.31
    82.9 52.83 82.9 53.56 C 82.9 53.94 82.81 54.27 82.65 54.54 C 82.48 54.8 82.25 55.02 
    81.97 55.17 A 3.22 3.22 0 0 1 81.07 55.51 A 4.26 4.26 0 0 1 80.11 55.62 C 79.16
    55.62 78.31 55.42 77.53 55.01 C 76.76 54.6 76.13 54.08 75.64 53.45 L 72.78 56.13 C 
    73.62 57.05 74.69 57.76 75.97 58.25 C 77.23 58.75 78.57 59 79.92 59 C 80.87 59
    81.78 58.89 82.66 58.69 C 83.55 58.48 84.32 58.15 84.99 57.69 A 5.09 5.09 0 0 0
    86.58 55.9 C 86.98 55.16 87.18 54.26 87.18 53.19 C 87.18 52.35 87.01 51.63 86.67
    51.03 A 4.74 4.74 0 0 0 85.35 49.55 A 7.14 7.14 0 0 0 83.54 48.59 A 16.05 16.05 0 0 
    0 81.56 48 C 80.32 47.71 79.39 47.43 78.75 47.15 C 78.1 46.87 77.79 46.4 77.79
    45.72 C 77.79 45.04 78.07 44.56 78.66 44.27 C 79.24 43.98 79.88 43.83 80.58 43.83 C 
    81.38 43.83 82.11 44.02 82.79 44.39 C 83.47 44.77 84 45.21 84.39 45.72 L 87.22
    43.22 C 86.52 42.32 85.57 41.66 84.37 41.22 A 10.69 10.69 0 0 0 80.69 40.57 L 80.69 
    40.57 M 22.11 44.12 C 22.95 44.12 23.69 44.28 24.32 44.61 A 4.7 4.7 0 0 1 25.88
    45.9 A 5.72 5.72 0 0 1 26.81 47.69 A 6.85 6.85 0 0 1 27.11 49.71 A 7.03 7.03 0 0 1 
    26.81 51.74 A 5.61 5.61 0 0 1 25.88 53.56 C 25.47 54.09 24.95 54.52 24.32 54.86 C 
    23.69 55.2 22.95 55.37 22.11 55.37 C 21.31 55.37 20.59 55.21 19.97 54.88 A 5.22
    5.22 0 0 1 18.35 53.59 A 5.61 5.61 0 0 1 17.33 51.8 A 6.17 6.17 0 0 1 16.99 49.78 A 
    6.33 6.33 0 0 1 17.33 47.75 A 5.51 5.51 0 0 1 19.97 44.63 C 20.59 44.29 21.31 44.12 
    22.11 44.12 L 22.11 44.12 M 56.93 52.1 L 56.93 54.81 L 54.32 53.96 L 53.81 55.53 L 
    56.41 56.47 L 54.81 58.67 L 56.12 59.67 L 57.76 57.49 L 59.45 59.72 L 60.8 58.74 L 
    59.2 56.47 L 61.78 55.59 L 61.27 54.02 L 58.68 54.81 L 58.68 52.1 L 56.93 52.1" />
</svg>
