<svg xmlns="http://www.w3.org/2000/svg" viewBox="0 0 100 100" width="100" height="100">
  <circle
      cx="50" cy="50" r="50"
      fill="#454548" />
  <path d="M 40.89 21.04 L 48.06 21.04 L 48.06 35.95 L 40.89 35.95 L 40.89 21.04
    M 40.89 51.66 L 48.06 51.66 L 48.06 66.56 L 40.89 66.56 L 40.89 51.66" 
    fill="#130754" />
  <path d="M 40.89 40.3 L 48.06 40.3 L 48.06 47.33 L 40.89 47.33 L 40.89 40.3" 
    fill="#ffca00" />
  <path d="M 29.35 33.3 L 36.53 33.3 L 36.53 82.84 L 29.35 82.84 L 29.35 33.3
    M 52.18 63.96 L 59.36 63.96 L 59.36 78.86 L 52.18 78.86 L 52.18 63.96 M 52.18 
    33.31 L 59.36 33.31 L 59.36 48.22 L 52.18 48.22 L 52.18 33.31" 
    fill="#130754" />
  <path d="M 52.18 52.57 L 59.36 52.57 L 59.36 59.6 L 52.18 59.6 L 52.18 52.57" 
    fill="#e70488" />
  <path d="M 63.47 17.16 L 70.65 17.16 L 70.65 66.7 L 63.47 66.7 L 63.47 17.16" 
    fill="#130754" />
</svg>
