<svg xmlns="http://www.w3.org/2000/svg" viewBox="0 0 100 100" width="100" height="100">
  <path fill="#80B5E2" d="M 43.55 39.57 C 41.83 39.13 40.1 39.27 38.27 39.56 C 38.27 
    42.74 38.27 45.85 38.29 48.95 C 38.29 49.11 38.53 49.39 38.69 49.41 C 40.68 49.68 
    42.65 49.7 44.51 48.79 C 46.44 47.86 47.42 45.9 47.16 43.59 C 46.93 41.5 45.69 40.1 
    43.55 39.57 L 43.55 39.57 M 79.53 50.04 L 79.53 21.6 C 79.53 20.62 79.54 20.53
    78.59 20.53 L 21.63 20.53 C 20.7 20.53 20.47 20.62 20.47 21.55 L 20.47 78.51 C
    20.47 79.45 20.59 79.46 21.5 79.46 C 40.51 79.46 59.58 79.45 78.59 79.47 C 79.33
    79.47 79.53 79.28 79.52 78.56 C 79.5 69.05 79.53 59.54 79.53 50.04 L 79.53 50.04 M 
    46.41 52.78 C 43.81 53.71 41.09 53.76 38.28 53.54 L 38.28 64.12 L 33.12 64.12 L
    33.12 63.46 C 33.12 54.61 33.08 45.75 33.06 36.89 C 33.06 36.16 33.17 35.8 34 35.72 
    C 37.91 35.32 41.79 34.87 45.67 35.78 C 49.85 36.76 52.26 39.52 52.44 43.33 C 52.67 
    48.05 50.59 51.29 46.41 52.78 L 46.41 52.78 M 67.19 58.76 C 66.99 61.46 65.46 63.24 
    62.96 64.1 C 59.61 65.25 56.28 64.98 53.01 63.68 C 52.47 63.47 52.37 63.2 52.55
    62.65 C 52.87 61.65 53.11 60.63 53.35 59.7 C 54.74 60.11 56.05 60.62 57.42 60.86 C 
    58.38 61.02 59.42 60.92 60.4 60.77 C 61.27 60.63 61.9 60.04 62.05 59.1 C 62.19
    58.14 61.91 57.31 61.06 56.8 C 60.39 56.4 59.65 56.11 58.94 55.77 C 57.8 55.23
    56.58 54.8 55.53 54.12 C 51.39 51.43 52.74 46.44 55.5 44.56 C 56.98 43.55 58.62
    43.1 60.37 43.04 C 62.43 42.97 64.41 43.32 66.36 44.27 L 65.33 47.92 C 64.51 47.63 
    63.75 47.26 62.95 47.11 C 62 46.93 61 46.83 60.04 46.91 C 58.76 47.02 58 47.91 58 
    49.01 C 58 49.66 58.25 50.21 58.79 50.53 C 59.58 50.98 60.4 51.36 61.23 51.74 C
    62.11 52.15 63.05 52.46 63.91 52.93 C 66.19 54.18 67.38 56.12 67.19 58.76" />
</svg>
