<svg xmlns="http://www.w3.org/2000/svg" viewBox="0 0 100 100" width="100" height="100">
  <path d="M 63.85 63.18 C 64.22 60.12 64.11 59.67 66.39 60.16 L 66.97 60.21 C 68.72
    60.29 71.02 59.93 72.36 59.3 C 75.27 57.96 76.99 55.71 74.12 56.3 C 67.6 57.65
    67.15 55.44 67.15 55.44 C 74.04 45.21 76.92 32.23 74.44 29.05 C 67.65 20.39 55.91 
    24.48 55.72 24.59 L 55.65 24.6 C 54.36 24.33 52.92 24.17 51.3 24.15 C 48.34 24.1
    46.1 24.92 44.4 26.21 C 44.4 26.21 23.46 17.58 24.43 37.06 C 24.64 41.21 30.37
    68.42 37.21 60.2 C 39.71 57.2 42.13 54.65 42.13 54.65 C 43.32 55.45 44.76 55.86
    46.27 55.71 L 46.38 55.61 C 46.35 55.98 46.36 56.35 46.43 56.78 C 44.67 58.75 45.19 
    59.1 41.66 59.82 C 38.1 60.55 40.19 61.86 41.56 62.2 C 43.22 62.62 47.05 63.21
    49.64 59.58 L 49.54 59.99 C 50.23 60.55 50.18 63.97 50.28 66.41 C 50.38 68.85 50.54 
    71.13 51.04 72.48 C 51.54 73.82 52.13 77.29 56.75 76.3 C 60.62 75.47 63.58 74.28
    63.85 63.18" />
  <path d="M 55.25 78.71 C 53.2 78.71 51.87 77.92 51.06 77.16 C 49.84 76 49.35 74.52
    49.06 73.63 L 48.94 73.26 C 48.35 71.69 48.15 69.42 48.04 66.5 C 48.02 66.06 48.01 
    65.61 47.99 65.13 C 47.98 64.78 47.97 64.34 47.95 63.89 A 8.81 8.81 0 0 1 45.63
    64.62 C 44.18 64.87 42.63 64.79 41.02 64.38 C 39.87 64.1 38.69 63.51 38.01 62.59 C
    36.04 64.32 34.16 64.08 33.14 63.74 C 31.33 63.14 29.72 61.45 28.2 58.57 C 27.12
    56.52 26.07 53.85 25.09 50.63 C 23.38 45.02 22.29 39.12 22.19 37.18 C 21.89 31.11 
    23.52 26.77 27.05 24.28 C 32.61 20.35 41.03 22.66 44.1 23.71 C 46.16 22.47 48.59
    21.86 51.34 21.9 C 52.81 21.93 54.21 22.06 55.51 22.29 C 56.87 21.86 59.56 21.25
    62.63 21.29 C 68.3 21.36 72.99 23.56 76.2 27.67 C 78.5 30.6 77.36 36.75 76.48 40.16 
    C 75.24 44.96 73.07 50.05 70.41 54.49 C 71.13 54.5 72.18 54.41 73.67 54.1 C 76.61 
    53.5 77.47 55.07 77.71 55.78 C 78.64 58.61 74.58 60.75 73.31 61.34 C 71.68 62.09
    69.03 62.55 66.87 62.45 L 66.77 62.45 L 66.2 62.4 L 66.14 62.87 L 66.09 63.34 C
    65.94 68.96 65.14 72.52 63.49 74.88 C 61.75 77.35 59.35 78.04 57.22 78.49 C 56.5
    78.65 55.84 78.71 55.25 78.71 L 55.25 78.71 M 50.94 58.24 C 52.26 59.3 52.38 61.29 
    52.48 65.01 C 52.49 65.47 52.51 65.91 52.52 66.32 C 52.57 67.56 52.69 70.47 53.14 
    71.7 C 53.21 71.88 53.27 72.05 53.33 72.24 C 53.83 73.79 54.09 74.57 56.28 74.1 C 
    58.13 73.71 59.07 73.35 59.82 72.3 C 60.89 70.76 61.5 67.68 61.61 63.12 L 63.85
    63.18 L 61.62 62.91 L 61.69 62.35 C 61.9 60.52 62.05 59.2 63.28 58.32 C 64.26 57.62 
    65.38 57.69 66.27 57.85 C 65.29 57.11 65.02 56.24 64.95 55.88 L 64.76 54.96 L 65.29 
    54.18 C 68.32 49.69 70.81 44.17 72.14 39.04 C 73.5 33.77 73.08 30.97 72.67 30.44 C 
    67.17 23.41 57.64 26.31 56.64 26.64 L 56.47 26.73 L 55.63 26.89 L 55.2 26.8 C 54.01 
    26.55 52.68 26.41 51.26 26.39 C 49.03 26.35 47.23 26.88 45.76 28 L 44.74 28.78 L
    43.55 28.29 C 41.01 27.25 33.56 25.16 29.63 27.95 C 27.45 29.49 26.45 32.52 26.67 
    36.95 C 26.75 38.41 27.74 43.95 29.38 49.32 C 31.64 56.73 33.7 59.2 34.56 59.48 C 
    34.71 59.54 35.1 59.23 35.49 58.77 A 126.89 126.89 0 0 1 40.5 53.11 L 41.8 51.74 L 
    43.37 52.79 C 44 53.21 44.7 53.45 45.42 53.49 L 49.16 50.3 L 48.62 55.83 C 48.61
    55.96 48.6 56.13 48.65 56.44 L 48.81 57.49 L 48.1 58.28 L 48.02 58.37 L 50.08 59.32 
    L 50.94 58.24 L 50.94 58.24" />
  <path fill="#336791" d="M 74.12 56.3 C 67.6 57.65 67.15 55.44 67.15 55.44 C 74.04
    45.21 76.92 32.23 74.44 29.05 C 67.65 20.39 55.91 24.48 55.72 24.59 L 55.65 24.6 C 
    54.36 24.33 52.92 24.17 51.3 24.15 C 48.34 24.1 46.1 24.92 44.4 26.21 C 44.4 26.21 
    23.46 17.58 24.43 37.06 C 24.64 41.21 30.37 68.42 37.21 60.2 C 39.71 57.2 42.12
    54.66 42.12 54.66 C 43.32 55.45 44.76 55.86 46.26 55.71 L 46.38 55.61 C 46.34 55.99 
    46.36 56.35 46.43 56.78 C 44.67 58.75 45.18 59.1 41.66 59.82 C 38.1 60.56 40.19
    61.86 41.56 62.21 C 43.22 62.62 47.05 63.21 49.64 59.58 L 49.54 59.99 C 50.23 60.55 
    50.71 63.59 50.63 66.35 C 50.55 69.11 50.49 71 51.04 72.48 C 51.58 73.96 52.12
    77.29 56.75 76.3 C 60.62 75.47 62.62 73.32 62.9 69.74 C 63.1 67.19 63.55 67.57
    63.58 65.29 L 63.94 64.21 C 64.35 60.76 64 59.64 66.39 60.16 L 66.97 60.21 C 68.72 
    60.29 71.02 59.93 72.36 59.3 C 75.26 57.96 76.99 55.71 74.12 56.3 L 74.12 56.3" />
  <path fill="#fff" d="M 55.48 77.33 C 51.62 77.33 50.4 74.28 49.9 73.03 C 49.17 71.19 
    49.01 64.09 49.17 58.26 A 0.75 0.75 0 0 1 49.94 57.53 A 0.75 0.75 0 0 1 50.67 58.3 
    C 50.48 65.02 50.75 71.11 51.29 72.47 C 52.13 74.58 53.42 76.43 57.04 75.66 C 60.48 
    74.92 61.77 73.61 62.35 70.28 C 62.79 67.73 63.66 60.46 63.77 59.03 A 0.75 0.75 0 0 
    1 64.57 58.34 A 0.75 0.75 0 0 1 65.26 59.14 C 65.15 60.63 64.28 67.89 63.82 70.54 C 
    63.14 74.47 61.39 76.25 57.36 77.12 C 56.67 77.27 56.05 77.33 55.48 77.33 L 55.48 
    77.33 M 34.56 62.41 A 3.15 3.15 0 0 1 33.57 62.24 C 31.06 61.41 28.67 57.32 26.47 
    50.11 C 24.79 44.62 23.73 38.88 23.64 37.02 C 23.36 31.5 24.78 27.59 27.87 25.41 C 
    33.96 21.09 44.22 25.2 44.65 25.38 A 0.75 0.75 0 0 1 44.09 26.76 C 43.99 26.72
    34.15 22.78 28.73 26.63 C 26.09 28.5 24.88 31.97 25.13 36.95 C 25.21 38.52 26.2
    44.11 27.9 49.67 C 29.87 56.11 32.1 60.18 34.04 60.82 C 34.34 60.92 35.27 61.23
    36.59 59.64 A 114.97 114.97 0 0 1 41.38 54.24 A 0.75 0.75 0 0 1 42.46 55.28 C 42.44 
    55.3 40.19 57.65 37.74 60.6 C 36.58 62 35.46 62.41 34.56 62.41 L 34.56 62.41 M 67.1 
    56.1 A 0.75 0.75 0 0 1 66.48 54.94 C 73.45 44.6 75.9 32.11 73.8 29.43 C 71.16 26.06 
    67.44 24.3 62.74 24.2 C 59.25 24.13 56.48 25.02 56.03 25.17 L 55.92 25.22 C 55.46 
    25.36 55.11 25.11 54.98 24.82 A 0.75 0.75 0 0 1 55.28 23.87 C 55.3 23.86 55.37
    23.83 55.48 23.79 L 55.47 23.79 L 55.48 23.79 C 56.25 23.51 59.06 22.66 62.54 22.7 
    C 67.75 22.76 72.05 24.77 74.98 28.51 C 76.36 30.28 76.37 34.36 74.99 39.71 C 73.58 
    45.16 70.93 51.01 67.72 55.77 C 67.58 55.99 67.34 56.1 67.1 56.1 M 67.46 60.89 C
    66.27 60.89 65.2 60.72 64.56 60.34 C 63.91 59.95 63.78 59.41 63.77 59.13 C 63.59
    55.98 65.32 55.44 66.21 55.19 C 66.08 55 65.91 54.78 65.73 54.55 C 65.21 53.91 64.5 
    53.02 63.96 51.7 C 63.87 51.5 63.61 51.02 63.3 50.46 C 61.62 47.45 58.13 41.19
    60.37 37.99 C 61.41 36.5 63.48 35.92 66.52 36.25 C 65.63 33.52 61.36 24.98 51.24
    24.81 C 48.19 24.76 45.7 25.7 43.82 27.59 C 39.62 31.84 39.77 39.51 39.78 39.59 A
    0.75 0.75 0 1 1 38.28 39.63 C 38.27 39.29 38.11 31.23 42.76 26.54 C 44.93 24.35
    47.79 23.26 51.26 23.32 C 57.74 23.43 61.91 26.72 64.26 29.46 C 66.83 32.45 68.09 
    35.75 68.19 36.85 C 68.27 37.67 67.68 37.83 67.57 37.85 L 67.3 37.86 C 64.31 37.38 
    62.39 37.71 61.6 38.85 C 59.89 41.28 63.19 47.21 64.6 49.73 C 64.96 50.38 65.22
    50.85 65.34 51.13 C 65.81 52.26 66.41 53.01 66.89 53.62 C 67.32 54.15 67.69 54.61 
    67.82 55.16 C 67.89 55.26 68.76 56.55 73.93 55.49 C 75.22 55.22 76 55.45 76.24
    56.17 C 76.71 57.58 74.08 59.23 72.63 59.9 C 71.33 60.51 69.25 60.89 67.46 60.89 L 
    67.46 60.89 M 65.26 59 C 65.42 59.17 66.24 59.46 67.94 59.38 C 69.45 59.32 71.05
    58.99 72 58.55 C 73.23 57.98 74.04 57.34 74.47 56.91 L 74.23 56.95 C 70.93 57.63
    68.59 57.54 67.28 56.68 A 2.89 2.89 0 0 1 67.03 56.49 C 66.89 56.55 66.76 56.59
    66.66 56.61 C 65.92 56.82 65.16 57.03 65.26 59 M 43.9 63.18 C 43.08 63.18 42.21
    63.07 41.33 62.85 C 40.42 62.62 38.88 61.93 38.9 60.8 C 38.93 59.53 40.77 59.15
    41.47 59.01 C 43.98 58.49 44.14 58.29 44.92 57.29 C 45.15 57 45.44 56.64 45.82 56.2 
    C 46.4 55.56 47.03 55.23 47.7 55.23 C 48.16 55.23 48.54 55.39 48.79 55.49 C 49.59 
    55.83 50.26 56.63 50.53 57.59 C 50.78 58.45 50.66 59.29 50.2 59.94 C 48.68 62.06
    46.51 63.18 43.9 63.18 M 40.51 60.87 C 40.74 61.04 41.19 61.27 41.7 61.4 C 42.46
    61.59 43.2 61.69 43.9 61.69 C 46.03 61.69 47.74 60.81 48.99 59.07 C 49.24 58.7
    49.17 58.24 49.1 58 C 48.95 57.49 48.59 57.03 48.22 56.88 C 48.02 56.79 47.85 56.73 
    47.7 56.73 C 47.61 56.73 47.36 56.73 46.94 57.2 A 19.29 19.29 0 0 0 46.1 58.22 C
    45.12 59.46 44.67 59.88 41.77 60.48 C 41.06 60.62 40.7 60.77 40.51 60.87 M 46.27
    57.42 A 0.75 0.75 0 0 1 45.53 56.78 A 3.85 3.85 0 0 1 45.49 56.41 C 43.59 56.37
    41.75 55.55 40.35 54.1 C 38.59 52.26 37.78 49.71 38.15 47.1 C 38.55 44.27 38.4
    41.77 38.32 40.43 C 38.3 40.06 38.28 39.79 38.28 39.6 C 38.28 39.37 38.29 38.74
    40.38 37.67 C 41.13 37.3 42.63 36.64 44.26 36.47 C 46.97 36.19 48.75 37.39 49.29
    39.86 C 50.73 46.53 49.4 49.48 48.43 51.64 C 48.25 52.04 48.08 52.42 47.95 52.78 L 
    47.83 53.11 C 47.31 54.48 46.87 55.67 47.01 56.55 A 0.75 0.75 0 0 1 46.38 57.41 L 
    46.27 57.42 M 39.78 39.81 L 39.81 40.34 C 39.89 41.74 40.05 44.33 39.63 47.31 C
    39.33 49.46 39.99 51.56 41.43 53.06 C 42.57 54.25 44.08 54.91 45.62 54.91 L 45.65 
    54.91 C 45.83 54.18 46.11 53.41 46.42 52.58 L 46.54 52.26 C 46.7 51.85 46.88 51.45 
    47.07 51.02 C 48 48.95 49.16 46.37 47.83 40.18 C 47.56 38.95 46.92 38.24 45.86
    38.01 C 43.69 37.53 40.46 39.16 39.78 39.81 L 39.78 39.81 M 44.29 39.49 C 44.26
    39.76 44.78 40.46 45.46 40.56 C 46.14 40.65 46.72 40.1 46.76 39.84 C 46.79 39.57
    46.27 39.28 45.59 39.18 C 44.91 39.09 44.33 39.23 44.29 39.49 M 45.62 40.82 L 45.43 
    40.8 C 45 40.74 44.58 40.48 44.28 40.09 C 44.18 39.96 44.01 39.69 44.05 39.46 C
    44.1 39.11 44.52 38.91 45.17 38.91 C 45.32 38.91 45.47 38.92 45.63 38.94 C 45.99
    38.99 46.32 39.09 46.56 39.23 C 46.99 39.47 47.02 39.73 47 39.87 C 46.95 40.25
    46.34 40.82 45.62 40.82 L 45.62 40.82 M 44.54 39.54 C 44.56 39.7 44.97 40.24 45.49 
    40.31 L 45.62 40.32 C 46.1 40.32 46.46 39.94 46.51 39.81 C 46.46 39.73 46.15 39.51 
    45.56 39.43 A 2.73 2.73 0 0 0 45.17 39.4 C 44.79 39.4 44.59 39.49 44.54 39.54 L
    44.54 39.54 M 64.98 38.95 C 65.02 39.22 64.5 39.92 63.82 40.02 C 63.14 40.11 62.56 
    39.56 62.52 39.3 C 62.48 39.03 63.01 38.74 63.68 38.65 C 64.36 38.55 64.95 38.69
    64.98 38.95 L 64.98 38.95 M 63.66 40.15 C 63.01 40.15 62.44 39.64 62.4 39.31 C
    62.34 38.92 62.99 38.61 63.67 38.52 C 63.82 38.5 63.96 38.49 64.1 38.49 C 64.68
    38.49 65.07 38.66 65.11 38.94 C 65.13 39.11 64.99 39.39 64.76 39.63 C 64.6 39.8
    64.28 40.08 63.83 40.14 L 63.66 40.15 L 63.66 40.15 M 64.1 38.74 C 63.97 38.74
    63.84 38.75 63.7 38.77 C 63.03 38.86 62.62 39.13 62.64 39.28 C 62.67 39.44 63.1
    39.9 63.66 39.9 L 63.8 39.89 C 64.17 39.84 64.45 39.6 64.58 39.46 C 64.79 39.24
    64.87 39.04 64.86 38.97 C 64.85 38.88 64.6 38.74 64.1 38.74 M 65.96 54.14 A 0.75
    0.75 0 0 1 65.34 52.97 C 66.93 50.59 66.64 48.17 66.36 45.82 C 66.24 44.82 66.12
    43.79 66.15 42.8 C 66.18 41.78 66.31 40.93 66.44 40.12 C 66.58 39.15 66.73 38.24
    66.67 37.16 A 0.75 0.75 0 1 1 68.16 37.08 C 68.23 38.32 68.07 39.35 67.91 40.35 C 
    67.8 41.12 67.67 41.91 67.64 42.84 C 67.62 43.72 67.73 44.65 67.85 45.64 C 68.15
    48.14 68.49 50.96 66.58 53.8 A 0.75 0.75 0 0 1 65.96 54.14 L 65.96 54.14" 
    stroke="#fff" stroke-width="0.26"/>
</svg>
