<svg xmlns="http://www.w3.org/2000/svg" viewBox="0 0 100 100" width="100" height="100">
  <path fill="#f37036" d="M 73.02 32.22 C 63.2 19.5 44.93 17.16 32.22 26.98 C 19.5
    36.8 17.16 55.07 26.98 67.78 C 36.8 80.5 55.07 82.84 67.79 73.02 C 80.5 63.2 82.84
    44.93 73.02 32.22 L 73.02 32.22" />
  <path fill="#fff" d="M 62.69 31.33 A 4.71 4.71 0 0 0 59.98 32.47 A 4.7 4.7 0 0 0
    59.26 38.78 A 4.7 4.7 0 0 0 65.48 40.05 L 65.49 40.05 L 65.49 40.05 L 65.56 40.12 A
    4.98 4.98 0 0 0 66.48 39.44 A 4.85 4.85 0 0 0 66.41 32.71 L 66.41 32.71 L 62.26
    36.83 L 62.19 36.75 L 66.33 32.63 A 4.71 4.71 0 0 0 62.69 31.33 L 62.69 31.33 M
    57.23 38.07 C 55.25 38.07 52 40.32 44.08 48.25 L 44.12 48.29 C 44.07 48.27 44.03
    48.27 44.03 48.27 L 41.05 51.23 A 0.49 0.49 0 0 0 41.48 52.05 L 46.6 50.96 A 0.14
    0.14 0 0 0 46.64 50.88 L 46.76 51 L 45.01 52.73 L 44.93 52.73 L 34.58 63.16 L 37.9 
    66.36 A 0.59 0.59 0 0 0 38.59 66.43 A 0.62 0.62 0 0 0 38.89 65.8 L 38.41 63.69 A
    0.25 0.25 0 0 1 38.41 63.4 A 54.98 54.98 0 0 0 50.94 55.15 L 48.81 53.03 L 48.85
    53.02 L 47.59 51.76 L 47.67 51.68 L 47.76 51.77 L 47.72 51.81 L 51.06 55.23 L 51.06 
    55.23 C 57.47 49.15 62.02 44.27 60.84 40.99 A 1.8 1.8 0 0 0 60.32 39.95 L 60.32
    39.95 A 1.77 1.77 0 0 0 60.1 39.81 C 60.06 39.77 60.02 39.73 59.98 39.69 L 59.95
    39.72 A 1.77 1.77 0 0 0 59.68 39.58 L 59.81 39.44 C 58.97 38.69 58.28 38.07 57.23 
    38.07 L 57.23 38.07 M 34.5 63.22 L 32.08 65.65 L 32.08 65.65 A 0.48 0.48 0 0 0
    31.87 66.18 A 0.49 0.49 0 0 0 32.3 66.55 L 38.24 66.96 L 34.5 63.22" />
  <path fill="#f37036" d="M 63.1 30.93 A 5.18 5.18 0 0 0 59.46 32.41 A 5.15 5.15 0 0 0 
    58.34 37.87 C 56.12 36.92 53.12 38.58 43.76 47.93 A 0.44 0.44 0 0 0 43.75 47.97 A
    0.58 0.58 0 0 0 43.69 48 L 40.73 50.98 A 0.92 0.92 0 0 0 40.56 52.07 A 0.94 0.94 0 
    0 0 41.36 52.54 L 41.51 52.44 L 45.46 51.6 L 43.57 53.5 A 0.41 0.41 0 0 0 43.54
    53.58 L 34.29 62.86 A 0.37 0.37 0 0 0 34.2 62.97 L 31.81 65.36 A 0.92 0.92 0 0 0
    31.62 66.32 A 0.94 0.94 0 0 0 32.39 66.91 L 38.31 67.32 A 0.47 0.47 0 0 0 38.55
    67.13 A 0.42 0.42 0 0 0 38.55 66.64 L 38.54 66.63 A 1.05 1.05 0 0 0 38.87 66.36 A
    1.05 1.05 0 0 0 39.06 65.48 L 38.6 63.52 A 59.4 59.4 0 0 0 50.94 55.61 A 0.51 0.51 
    0 0 0 51.06 55.66 C 51.18 55.65 51.29 55.6 51.38 55.52 C 57.73 49.5 61.46 45.38
    61.46 42.11 A 3.76 3.76 0 0 0 61.26 40.78 A 5.14 5.14 0 0 0 63.06 41.16 L 63.05
    41.17 A 5.26 5.26 0 0 0 65.48 40.49 A 0.36 0.36 0 0 0 65.49 40.49 A 0.39 0.39 0 0 0 
    65.77 40.46 A 4.41 4.41 0 0 0 66.74 39.69 A 5.1 5.1 0 0 0 68.27 36.05 A 5.1 5.1 0 0 
    0 66.75 32.41 A 0.44 0.44 0 0 0 66.69 32.37 A 5.18 5.18 0 0 0 63.1 30.93 L 63.1
    30.93 M 63.06 31.76 A 4.35 4.35 0 0 1 65.68 32.66 L 61.9 36.46 A 0.39 0.39 0 0 0
    61.86 36.51 A 0.39 0.39 0 0 0 61.75 36.76 A 0.39 0.39 0 0 0 61.9 37.07 L 61.9 37.07 
    L 64.76 39.93 A 4.24 4.24 0 0 1 60.06 39.03 C 58.84 37.81 58.49 35.98 59.14 34.4 C 
    59.79 32.81 61.33 31.77 63.06 31.76 L 63.06 31.76 M 66.4 33.37 A 4.16 4.16 0 0 1
    67.35 36.03 A 4.29 4.29 0 0 1 66.09 39.06 A 4.68 4.68 0 0 1 65.58 39.48 L 63.27
    37.2 L 62.82 36.75 L 62.94 36.63 L 66.4 33.37 L 66.4 33.37 M 66.23 35.33 A 0.36
    0.36 0 0 0 65.97 35.35 A 0.34 0.34 0 0 0 65.8 35.55 A 0.34 0.34 0 0 0 65.82 35.81 A 
    1.04 1.04 0 0 1 65.7 36.9 A 0.3 0.3 0 0 0 65.61 37.13 C 65.61 37.22 65.64 37.3 65.7 
    37.36 A 0.27 0.27 0 0 0 65.9 37.36 A 0.32 0.32 0 0 0 66.21 37.26 A 1.67 1.67 0 0 0 
    66.43 35.49 L 66.43 35.49 A 0.36 0.36 0 0 0 66.23 35.33 L 66.23 35.33 M 57.19 38.48 
    A 2.62 2.62 0 0 1 58.74 39.06 A 2.23 2.23 0 0 0 57.49 39.69 L 46.79 50.33 L 44.7
    48.23 C 50.24 42.71 53.63 39.83 55.74 38.89 A 2.62 2.62 0 0 1 57.19 38.48 L 57.19 
    38.48 M 59.05 39.87 A 1.36 1.36 0 0 1 60.01 40.27 A 1.31 1.31 0 0 1 60.42 41.26 A
    1.34 1.34 0 0 1 59.96 42.23 L 48.59 52.13 L 47.36 50.9 L 58.09 40.27 A 1.36 1.36 0 
    0 1 59.05 39.87 L 59.05 39.87 M 60.45 43.01 C 59.66 46.15 55.46 50.41 51.08 54.55 L 
    49.31 52.78 L 60.45 43.01 L 60.45 43.01 M 44.08 48.85 L 44.21 48.98 L 45.85 50.62 L 
    41.34 51.59 L 44.08 48.85 L 44.08 48.85 M 46.79 51.59 L 46.8 51.59 L 47.34 52.15 A 
    0.51 0.51 0 0 0 47.35 52.19 L 47.39 52.2 L 47.5 52.32 L 47.89 52.71 L 45.36 53.02 L 
    46.79 51.59 L 46.79 51.59 M 48.61 53.5 L 50.28 55.18 A 59.53 59.53 0 0 1 38.16
    62.98 A 0.67 0.67 0 0 0 37.8 63.76 L 38.29 65.87 A 0.15 0.15 0 0 1 38.29 66.04 A
    0.15 0.15 0 0 1 38.09 66.04 L 35.23 63.15 L 44.05 54.21 L 48.61 53.5 L 48.61 53.5 M 
    34.58 63.78 L 34.98 64.17 L 37.09 66.27 L 32.39 65.97 L 34.58 63.78 L 34.58 63.78" />
</svg>
