<svg xmlns="http://www.w3.org/2000/svg" viewBox="0 0 100 100" stroke-linecap="round">
  <circle
      cx="50" cy="50" r="50"
      fill="#454548" />
  <path fill="#aa910d" stroke="#000" d="M 29.32 82.52 C 29.81 73.01
    29.46 63.41 27.32 54.09 C 26.6 50.37 25.81 46.65 25.03 42.94 L 77.4 49.45 C 71.21 55.82
    67.65 64.25 65.2 72.66 C 63.71 77.44 62.32 82.25 60.65 86.97 C 50.07 86.99 39.41 85.79
    29.32 82.52" />
  <path fill="#dcbc00" d="M 63.34 56.2 C 67.9 53.91 72.47 51.63 77.04 49.35 C 72.16 54.35
    68.87 60.75 66.55 67.28 C 64.47 73.46 62.7 80.47 60.31 86.52 C 57.38 86.63 55.21 86.68
    52.01 86.2 C 56.4 77.82 56.79 67.16 61.68 58.99 C 62.27 58.08 62.78 57.13 63.33 56.2" />
  <path fill="#cbcfcc" stroke="#000" d="M 66.11 53.89 C 73.69 54.5 78.97
    63.46 75.86 70.4 C 73.31 77.26 63.87 80.28 57.92 75.95 C 56.06 73.31 52.87 73.4 50 73.07 C
    46.08 72.58 42.16 72.07 38.22 71.65 C 32.22 76.25 22.38 73.22 19.95 66.06 C 17.09 59.09
    22.37 50.2 30 49.8 C 34.55 49.54 39 50.79 43.51 51.11 L 66.11 53.89" />
  <path fill="#465d63" d="M 65.66 55.44 C 72.71 55.95 77.3 64.69 73.74 70.81 C 70.78 76.67
    62.07 78.3 57.33 73.66 C 52.31 69.22 52.95 60.06 59.08 56.83 L 62.25 55.6 L 65.66
    55.44" />
  <path fill="#c8d0d2" fill-rule="nonzero" d="M 68.22 59.95 C 69.11 57.03 70.41 60.52 68.22
    59.95 M 55.16 68.3 C 54.35 66.63 57.14 66.8 55.16 68.3 M 58.98 71.64 C 61.54 71.78 58.17
    74.6 58.98 71.64 M 59.22 71.88 C 59.07 72.82 60.36 71.67 59.22 71.88 M 59.16 72.4 C 58.95
    73.43 60.49 72.22 59.16 72.4 M 73.86 64.96 C 71.33 65.08 73.97 61.84 73.86 64.96 M 73.44
    64.39 C 73.63 63.32 72.67 64.54 73.44 64.39" />
  <path fill="#d1d1cd" d="M 66.25 63.75 C 69.47 63.16 65.28 56.51 63.39 59.41 C 61.04 61.53
    57.02 62.07 56.05 65.65 C 57.37 69.35 60.41 68.3 61.57 66.83 L 66.25 63.75" />
  <path fill="#be0003" d="M 60.65 64.28 C 62.97 68.22 54.56 68.28 57.26 64.15 C 58.08 63.11
    59.95 63.05 60.65 64.28 M 66.37 60.53 C 68.69 64.46 60.29 64.52 62.98 60.4 C 63.81 59.36
    65.68 59.3 66.37 60.53" />
  <path fill="#d1d1cd" d="M 71.13 68.64 C 74.35 68.05 70.17 61.4 68.27 64.3 C 65.92 66.43
    61.9 66.97 60.93 70.55 C 62.25 74.24 65.3 73.2 66.45 71.73 L 71.13 68.64" />
  <path fill="#be0003" d="M 65.52 69.18 C 67.84 73.11 59.43 73.18 62.13 69.05 C 62.96 68.01
    64.83 67.95 65.52 69.18 M 71.22 65.42 C 73.54 69.35 65.13 69.42 67.83 65.29 C 68.66 64.25
    70.53 64.19 71.22 65.42" />
  <path fill="#334249" stroke="#000" d="M 44.64 63.68 C 42.62 62.51
    38.23 67.84 42.66 65.81 C 43.15 65.02 45.2 64.77 44.64 63.68" />
  <path fill="#324148" stroke="#000" d="M 50.88 64.45 C 48.85 63.28
    44.47 68.61 48.91 66.57 C 49.39 65.79 51.44 65.54 50.88 64.45" />
  <path fill="#646464" d="M 55.52 55.57 C 53.67 52.4 48.38 54.01 45.11 52.88 C 40.5 50.37
    39.05 59.45 44.19 58.34 C 47.65 58.52 51.31 59.8 54.66 59.19 C 55.61 58.23 55.2 56.75
    55.52 55.57" />
  <path fill="#202c33" stroke="#000" d="M 29.7 63.52 C 27.97 67.67 34.4
    67.53 33.66 63.81 C 37.4 65.57 37.47 58.88 33.76 60.05 C 34.2 57.8 33.2 56.33 30.67 57.1 C
    29.32 57.91 30.72 60.91 28.02 59.72 C 25.97 60.09 26.06 64.35 29.7 63.52" />
  <path fill="#111618" d="M 28.58 61.52 C 30.83 61.3 34.36 62.6 35.73 61.5 C 34.6 60.44 31.9
    61.41 32.91 58.69 C 31.56 56.15 30.72 59.21 30.65 60.63 C 30.03 60.26 25.94 60.77 28.58
    61.52" />
  <path fill="gray" d="M 30.6 69.41 C 32.74 70.3 36.31 67.56 36.62 67.31 C 35.21 69.07 32.77
    69.75 30.6 69.41" />
  <path fill="#3b3b3b" d="M 38.25 59.81 C 36.75 56.75 33.26 54.95 29.92 55.01 C 32.9 54.32
    36.28 55.47 37.6 58.37 C 37.93 58.55 38.8 61.76 38.25 59.81" />
  <path fill="#fee32d" stroke="#000" d="M 54.84 18.63 C 59.47 19.4 63.31 14.86 68.07 16.35 A
    9.32 9.32 0 0 1 76.68 23.87 C 77.91 28.4 78.47 33.09 80.05 37.52 C 81.05 41.36 81.53 45.98
    78.8 49.24 C 74.53 51.06 70.57 53.44 67.08 56.48 A 22.89 22.89 0 0 1 52.45 60.3 C 45.85 60.01
    38.92 58.23 34.23 53.29 C 31.13 49.93 28.68 45.98 24.76 43.41 C 22.01 41.41 22.61 37.32 23.71
    34.52 C 25.32 30.61 28.34 27.47 29.81 23.47 C 31.8 19.12 34.45 13.77 39.74 13.08 A 14.29
    14.29 0 0 1 50.86 17.05 C 52 17.93 53.36 18.64 54.83 18.64" />
  <path fill="#ffdf26" d="M 64.91 16.86 C 69.06 15.71 73.72 17.89 75.18 22 C 77.51 26.87
    77.56 32.42 79.44 37.45 C 80.42 41.17 80.77 45.65 78.1 48.78 C 75.98 49.44 71.93 53.01
    71.11 51.46 C 72.8 47.63 68.69 43.28 67.8 41.32 C 74.56 37.53 75.77 27.08 70.74 21.43 C
    69.8 18.68 63.37 19.93 64.91 16.86" />
  <path fill="#f0cc00" d="M 56.12 19.47 C 58.65 20.03 63.53 15.47 64.22 17.81 C 60.67 20.26
    57.12 23.16 56.33 27.68 C 54.93 30.18 56.96 34.97 56.4 36.09 C 55.39 35.49 52.9 35.99
    53.41 34.26 C 53.58 29.23 54.61 24.26 56.12 19.47" />
  <path fill="#efcc00" d="M 30.22 47.25 C 27.72 44.47 22.8 42.74 23.38 38.21 C 23.66 32.82
    28.31 29.21 29.91 24.3 C 31.51 20.75 33.48 17.15 36.48 14.63 C 37.95 12.79 44.08 13.65
    39.87 15.63 A 13.76 13.76 0 0 0 32.53 24.92 C 31.55 28.71 32.48 32.62 32.53 36.42 C 31.04
    39.53 29.03 42.61 30.11 46.25 L 30.16 46.75 L 30.22 47.25" />
  <path fill="#fff" d="M 71.32 19.01 C 74.02 17.44 74.61 24.73 72.73 20.48 C 72.37 19.88
    71.61 19.66 71.32 19.01 M 79.65 42.6 C 79.66 44.07 75.67 48.05 78.16 47.63 C 79.51 46.37
    79.82 44.36 79.65 42.6 M 50.42 19.9 C 53.26 20.19 50.98 23.55 50.36 20.46 L 50.42 19.9" />
  <path fill="#fff" stroke="#000" d="M 66.25 19.79 C 71.32 20.64 73.42
    26.51 72.95 31.08 C 72.65 35.86 69.62 41.45 64.34 41.81 C 59.5 41.76 56.76 36.44 56.81
    32.12 C 56.63 27.14 59.06 21.34 64.21 19.89 L 66.25 19.79" />
  <path d="M 61.08 32.36 C 66.28 33.16 60.56 40.81 58.39 35.76 C 57.77 34.11 59.25 32 61.08
    32.36" />
  <path fill="#fff" stroke="#000" d="M 42.71 16.89 C 47.77 17.74 49.88
    23.62 49.4 28.18 C 49.1 32.97 46.08 38.56 40.8 38.91 C 35.95 38.86 33.22 33.55 33.27 29.22
    C 33.08 24.25 35.51 18.45 40.67 17 L 42.71 16.89" />
  <path d="M 44.69 30.34 C 49.89 31.15 44.17 38.8 42 33.75 C 41.37 32.09 42.86 29.98 44.69
    30.34" />
  <path fill="#f0cc00" stroke="#000" d="M 37.7 69.63 C 42.37 70.88 47.16
    72.29 52.05 71.73 C 56.11 72 57.7 77.7 54.77 80.58 C 51.31 84.41 45.78 83.75 41.37 82.87 C
    37.5 82.12 33.06 79.47 32.97 74.78 C 32.95 72.13 34.98 69.23 37.7 69.63" />
  <path fill="#fee32d" d="M 42.03 72.41 C 46.07 73.66 50.58 71.15 54.35 73.03 C 57.46 75.61
    55.68 81.15 51.93 81.86 C 48.28 83.02 44.4 82.23 40.82 81.32 C 36.93 80.45 35.02 72.92
    40.08 72.36 C 40.73 72.29 41.38 72.33 42.03 72.4" />
  <path fill="#fff" d="M 53 73.84 C 55.21 74.06 54.32 78.84 53.19 75.28 C 52.85 74.97 52.24
    74.1 53 73.84" />
  <path fill-opacity=".27" d="M 49.82 44.21 C 55.98 45.16 62.72 46.78 66.61 52.67 C 68.33 56.99
    63.81 60.38 60.6 60.95 C 52.67 63.41 44.42 62.13 37.2 58.97 C 34.42 57.52 31.26 55.52 30.45
    51.79 C 30.51 47.52 34.62 45.7 37.55 44.93 C 41.63 43.73 45.79 43.76 49.82 44.21" />
  <path fill="#fff" stroke="#000" d="M 62.63 58.49 L 65.98 57.05 L 63.41
    69.43 L 62.63 58.49 M 36.05 55.22 L 33.15 53.01 L 32.65 65.65 L 36.05 55.22" />
  <path fill="#fee32d" stroke="#000" d="M 51.96 35.94 C 58.35 37 65.15 38.68 69.8 46.03 C
    72 51.62 67.64 56.72 64.62 57.57 C 57.49 61.17 50.27 60.52 43.45 58.75 C 39.12 57.47 34.83
    55.16 31.5 50.55 C 28.82 45.91 32.35 39.61 35.53 38.73 C 40.97 35.47 46.6 35.48 51.96
    35.94" />
  <path fill="#e8c500" d="M 42.65 36.83 C 37.04 37.98 32.01 43.86 33.97 49.74 C 34.39 52.63
    38.59 55.88 39.57 56.41 C 35.3 54.53 30.59 50.78 31.13 45.58 C 31.9 40.1 37.9 37.72 42.65
    36.83" />
  <path fill="#f7db27" d="M 58.21 46.5 C 61.31 45.36 63.6 51.57 59.31 51.02 C 57.23 51.98
    51.64 49.16 55.16 46.79 L 58.21 46.5" />
  <path fill="#cdb100" d="M 53.69 48 C 55.54 44.75 64.01 46.98 61.04 50.59 C 59.51 49.29
    57.29 47.02 54.46 47.85 L 54.07 47.92 L 53.69 48" />
  <path fill="#f7db27" d="M 42.57 44.56 C 45.66 43.42 47.96 49.63 43.66 49.09 C 41.59 50.04
    36 47.23 39.52 44.85 L 42.57 44.56" />
  <path fill="#cdb100" d="M 38.05 46.07 C 39.9 42.81 48.37 45.04 45.4 48.66 C 43.86 47.36
    41.65 45.08 38.82 45.91 L 38.43 45.98 L 38.05 46.07" />
  <path fill="#fff" d="M 64.99 42.45 C 67.21 42.11 68.97 48.17 66.54 44.81 C 66.02 44.07
    64.68 43.55 64.99 42.44" />
</svg>