<?xml version="1.0" encoding="UTF-8" standalone="no"?>
<svg
   height="550"
   width="530"
   viewBox="-24.53835 -42.8135 93.92735 176.60569"
   version="1.1"
   id="svg7"
   sodipodi:docname="pyqt.svg"
   inkscape:version="1.3.2 (091e20e, 2023-11-25)"
   xmlns:inkscape="http://www.inkscape.org/namespaces/inkscape"
   xmlns:sodipodi="http://sodipodi.sourceforge.net/DTD/sodipodi-0.dtd"
   xmlns:xlink="http://www.w3.org/1999/xlink"
   xmlns="http://www.w3.org/2000/svg"
   xmlns:svg="http://www.w3.org/2000/svg">
  <sodipodi:namedview
     id="namedview7"
     pagecolor="#ffffff"
     bordercolor="#000000"
     borderopacity="0.25"
     inkscape:showpageshadow="2"
     inkscape:pageopacity="0.0"
     inkscape:pagecheckerboard="0"
     inkscape:deskcolor="#d1d1d1"
     inkscape:zoom="0.295"
     inkscape:cx="237.28814"
     inkscape:cy="257.62712"
     inkscape:window-width="1312"
     inkscape:window-height="449"
     inkscape:window-x="0"
     inkscape:window-y="38"
     inkscape:window-maximized="0"
     inkscape:current-layer="svg7" />
  <defs
     id="defs4">
    <linearGradient
       gradientUnits="userSpaceOnUse"
       xlink:href="#a"
       id="c"
       y2="131.853"
       x2="110.149"
       y1="77.07"
       x1="55.549" />
    <linearGradient
       id="a">
      <stop
         offset="0"
         stop-color="#387eb8"
         id="stop1" />
      <stop
         offset="1"
         stop-color="#366994"
         id="stop2" />
    </linearGradient>
    <linearGradient
       gradientUnits="userSpaceOnUse"
       xlink:href="#b"
       id="d"
       y2="168.101"
       x2="147.77699"
       y1="111.921"
       x1="89.137001" />
    <linearGradient
       id="b">
      <stop
         offset="0"
         stop-color="#ffe052"
         id="stop3" />
      <stop
         offset="1"
         stop-color="#ffc331"
         id="stop4" />
    </linearGradient>
  </defs>
  <g
     color="#000000"
     id="g5"
     transform="translate(-58.311866,-39.547623)">
    <path
       style="fill:url(#c);marker:none"
       d="m 99.75,67.469 c -28.032,0 -26.281,12.156 -26.281,12.156 L 73.5,92.219 h 26.75 V 96 H 62.875 c 0,0 -17.938,-2.034 -17.938,26.25 0,28.284 15.657,27.281 15.657,27.281 h 9.343 v -13.125 c 0,0 -0.503,-15.656 15.407,-15.656 h 26.531 c 0,0 14.906,0.241 14.906,-14.406 V 82.125 c 0,0 2.263,-14.656 -27.031,-14.656 z M 85,75.938 A 4.808,4.808 0 0 1 89.813,80.75 4.808,4.808 0 0 1 85,85.563 4.808,4.808 0 0 1 80.187,80.75 4.808,4.808 0 0 1 85,75.937 Z"
       overflow="visible"
       fill="url(#c)"
       transform="matrix(1.24012,0,0,1.24012,-55.728,-48.638)"
       id="path4" />
    <path
       style="fill:url(#d);marker:none"
       d="m 100.546,177.315 c 28.032,0 26.281,-12.156 26.281,-12.156 l -0.03,-12.594 h -26.75 v -3.781 h 37.374 c 0,0 17.938,2.034 17.938,-26.25 0,-28.285 -15.657,-27.282 -15.657,-27.282 h -9.343 v 13.125 c 0,0 0.503,15.657 -15.407,15.657 h -26.53 c 0,0 -14.907,-0.241 -14.907,14.406 v 24.219 c 0,0 -2.263,14.656 27.031,14.656 z m 14.75,-8.469 a 4.808,4.808 0 0 1 -4.812,-4.812 4.808,4.808 0 0 1 4.812,-4.813 4.808,4.808 0 0 1 4.813,4.813 4.808,4.808 0 0 1 -4.813,4.812 z"
       overflow="visible"
       fill="url(#d)"
       transform="matrix(1.24012,0,0,1.24012,-55.728,-48.638)"
       id="path5" />
  </g>
  <path
     d="m 50.085132,27.236377 -2.44,-2.244 0.004,-28.4630006 c 0.004,-28.0979994 0.013,-28.4879994 0.71,-30.3509994 1.491,-3.985 3.732999,-5.34 9.374,-5.67 3.384,-0.197 4.43,-0.056 25.536,3.424 l 22.008008,3.63 v 23.5069995 c 0,18.1109999 -0.098,23.8320005 -0.429,24.9210005 -0.52701,1.736 -2.26101,4.067 -3.60801,4.85 -0.667,0.387 -8.755998,1.882 -24.186998,4.47 -12.751,2.138 -23.486,3.95 -23.856001,4.028 -0.472,0.1 -1.398,-0.526 -3.111999,-2.102 z m 30.706,-7.788 c 0.758,0 0.798,-0.109 0.798,-2.184 0,-1.942 -0.072,-2.184 -0.656,-2.184 -1.245,0 -2.302,-0.753 -2.89,-2.058001 -0.325,-0.72 -0.53,-1.356 -0.454,-1.413 0.075,-0.058 0.85,-0.514 1.724,-1.014 4.335,-2.4819996 6.279,-8.0509997 6.291,-18.0269995 0.015,-11.9979995 -3.006,-17.6859995 -10.17,-19.1459995 -2.252,-0.46 -4.806,-0.213 -6.81,0.657 -2.995,1.299 -5.276,4.776 -6.398,9.753 -0.798,3.54 -0.788,13.2299994 0.017,16.96799939 1.182,5.48400001 3.97,9.54699961 7.317,10.66299961 1.24,0.413 1.413,0.618 1.934,2.288001 0.81,2.597 1.534,3.857 2.688,4.679 1.154,0.822 3.44,1.37 4.845,1.161 a 14.709,14.709 0 0 1 1.764,-0.143 z m -7.596,-12.5340006 c -1.025,-0.51 -2.255,-2.297 -2.683,-3.8960001 -1.4,-5.2299999 -1.283,-18.1759993 0.198,-21.8779993 0.673,-1.68 2.225,-3.02 3.501,-3.02 1.412,0 3.188,1.703 3.848,3.69 1.167,3.512 1.363,15.3039994 0.338,20.2599994 -0.816,3.94 -2.977,5.953 -5.202,4.844 z m 22.506,2.438 c 3.18,-0.706 3.36,-0.862 3.36,-2.903 0,-1.585 -0.078,-1.806 -0.588,-1.655 -2.015,0.599 -2.485,0.603 -3.121,0.026 -0.622,-0.5620001 -0.659,-1.0820001 -0.659,-9.28 v -8.6839994 h 4.032 v -3.944 l -2.016,-0.228 -2.016,-0.228 v -3.155 c 0,-1.736 -0.113,-3.225 -0.252,-3.31 -0.138,-0.084 -0.996,-0.206 -1.906,-0.271 l -1.655,-0.119 -0.576,2.352 a 320.445,320.445 0 0 0 -0.788,3.276 c -0.181,0.791 -0.38,0.924 -1.381,0.924 h -1.17 v 4.368 h 2.016 v 9.7579994 c 0,11.922 0.134,12.38 3.864,13.2 1.073,0.237 1.262,0.228 2.856,-0.126 z"
     fill="#7cc040"
     id="path6" />
  <path
     d="m 49.911132,26.915377 -1.923,-1.943 V -3.7076236 c 0,-20.7919994 0.107,-29.0359994 0.39,-29.9799994 0.498,-1.66 2.344,-3.823 3.974999,-4.655 0.697,-0.356 2.306001,-0.732 3.575001,-0.836 1.707,-0.14 2.107,-0.1 1.536,0.15 -1.662,0.73 -3.116,2.179 -4.008001,3.994 l -0.932,1.898 -0.094,30.9959994 c -0.052,17.0480006 -0.208,30.9960006 -0.346,30.9960006 -0.14,0 -1.117999,-0.873 -2.173999,-1.941 z m 23.877,-7.533 c -1.59,-0.422 -3.35,-2.35 -4.113,-4.503 -0.32,-0.906 -0.704,-1.959001 -0.85,-2.340001 -0.16,-0.414 -0.812,-0.854 -1.624,-1.098 -3.004,-0.9 -5.807,-4.9399996 -7.025,-10.1229996 -0.875,-3.722 -0.85,-14.9969994 0.04,-18.3269994 1.36,-5.091 3.946,-8.392 7.37,-9.41 2.207,-0.654 3.555,-0.616 1.68,0.049 -3.16,1.12 -5.486,4.167 -6.894,9.036 -0.703,2.433 -0.772,3.322 -0.75,9.7329995 0.022,6.0909999 0.122,7.40799989 0.734,9.6279999 1.377,5.001 3.45,7.875 6.754,9.3679996 1.517,0.686 1.78,0.954 2.1,2.148001 0.766,2.842 2.287,4.906 4.262,5.783 0.725,0.321 0.772,0.401 0.236,0.395 -0.37,-0.004 -1.234,-0.156 -1.92,-0.339 z m 15.896,-10.1170006 c -2.649,-0.928 -3.056,-2.821 -3.056,-14.199 0,-7.6729994 -0.054,-8.5079994 -0.561,-8.6059994 -0.391,-0.076 -0.686,-0.72 -0.97,-2.125 -0.224,-1.108 -0.34,-2.129 -0.258,-2.268 0.082,-0.138 0.518,-0.252 0.969,-0.252 0.791,0 0.82,0.083 0.82,2.352 v 2.352 h 1.979 l 0.103,9.8279994 c 0.113,10.91 0.199,11.364 2.386,12.698 0.84,0.512 0.928,0.652 0.404,0.638 -0.37,-0.01 -1.187,-0.198 -1.816,-0.418 z m -15.4,-3.174 c 1.895,-1.9780001 2.6,-5.70500001 2.6,-13.7419999 0,-7.6949995 -0.917,-12.0779995 -2.804,-13.3999995 -0.686,-0.48 -0.676,-0.494 0.332,-0.494 3.44,0 4.722,4.756 4.394,16.2959994 -0.182,6.417 -0.603,8.9489999 -1.789,10.759 -0.545,0.832 -1.842,1.505 -2.9,1.505 -0.694,0 -0.688,-0.031 0.166,-0.924 z m 21.92,-1.428 c 0.37,-0.158 1.126,-0.288 1.68,-0.288 0.86,0 0.91,0.042 0.336,0.288 -0.37,0.16 -1.125,0.29 -1.68,0.29 -0.86,0 -0.909,-0.043 -0.336,-0.29 z m -8.804,-23.2679994 c 1.469,-6.425 1.287,-5.964 2.353,-5.964 0.852,0 0.96,0.101 0.79,0.745 -0.106,0.41 -0.448,1.921 -0.759,3.36 -0.55,2.548 -0.59,2.615 -1.56,2.615 -0.86,0 -0.973,-0.103 -0.824,-0.756 z"
     fill="#016123"
     id="path7" />
</svg>
