<svg xmlns="http://www.w3.org/2000/svg" viewBox="0 0 100 100" width="100" height="100">
  <linearGradient id="c" x1="0" y1="0" x2="1" y2="1" gradientUnits="objectBoundingBox">
    <stop offset="0" stop-color="#387eb8"/>
    <stop offset="1" stop-color="#366994"/>
  </linearGradient>
  <linearGradient id="d" x1="0" y1="0" x2="1" y2="1" gradientUnits="objectBoundingBox">
    <stop offset="0" stop-color="#ffe052"/>
    <stop offset="1" stop-color="#ffc331"/>
  </linearGradient>
  <g transform="scale(1.12) translate(-2)">
    <g transform="translate(-11 -11)">
      <path fill="url(#c)" d="M 48.02 40.71 C 35.73 40.71 36.5 46.04 36.5 46.04 L 36.51
        51.56 L 48.24 51.56 L 48.24 53.22 L 31.85 53.22 C 31.85 53.22 23.98 52.33 23.98
        64.73 C 23.98 77.14 30.85 76.7 30.85 76.7 L 34.95 76.7 L 34.95 70.94 C 34.95
        70.94 34.73 64.08 41.7 64.08 L 53.34 64.08 C 53.34 64.08 59.88 64.18 59.88
        57.76 L 59.88 47.13 C 59.88 47.13 60.87 40.7 48.02 40.7 M 41.55 44.42 A 2.11
        2.11 0 1 1 41.55 48.64 A 2.11 2.11 0 0 1 41.55 44.42" />
      <path fill="url(#d)" d="M 48.37 88.88 C 60.67 88.88 59.9 83.55 59.9 83.55 L 59.89
        78.03 L 48.15 78.03 L 48.15 76.37 L 64.54 76.37 C 64.54 76.37 72.41 77.26 72.41
        64.86 C 72.41 52.45 65.54 52.89 65.54 52.89 L 61.45 52.89 L 61.45 58.65 C 61.45
        58.65 61.67 65.51 54.69 65.51 L 43.05 65.51 C 43.05 65.51 36.51 65.41 36.51
        71.84 L 36.51 82.46 C 36.51 82.46 35.52 88.88 48.37 88.88 M 54.84 85.17 A 2.11 
        2.11 0 1 1 54.83 80.95 A 2.11 2.11 0 0 1 54.83 85.17" />
      </g>
    <rect x="52" y="15" width="23" height="22" fill="#fff"/>
    <path fill="#7cc040" d="M 51.82 40.41 L 50.75 39.42 L 50.75 26.94 C 50.75 14.62
      50.75 14.44 51.06 13.63 C 51.71 11.88 52.69 11.29 55.17 11.14 C 56.65 11.05 57.11 
      11.12 66.37 12.64 L 76.02 14.23 L 76.02 24.54 C 76.02 32.49 75.98 35 75.83 35.48 
      C 75.6 36.23 74.84 37.26 74.25 37.6 Q 73.8 37.86 63.64 39.56 A 2431.14 2431.14 0 
      0 0 53.18 41.33 C 52.97 41.37 52.57 41.1 51.82 40.41 M 65.28 36.99 C 65.61 36.99 
      65.63 36.94 65.63 36.03 C 65.63 35.18 65.6 35.08 65.35 35.08 C 64.8 35.08 64.34 
      34.75 64.07 34.17 C 63.93 33.86 63.85 33.58 63.88 33.55 C 63.91 33.53 64.25 33.33 
      64.64 33.11 C 66.54 32.02 67.39 29.58 67.39 25.2 C 67.4 19.94 66.07 17.44 62.93 
      16.8 A 5.26 5.26 0 0 0 59.95 17.09 C 58.63 17.66 57.63 19.19 57.14 21.37 C 56.79 
      22.92 56.79 27.17 57.15 28.81 C 57.67 31.22 58.89 33 60.36 33.49 C 60.9 33.67
      60.97 33.76 61.21 34.49 C 61.56 35.63 61.88 36.19 62.38 36.55 A 3.51 3.51 0 0 0 
      64.51 37.05 A 6.58 6.58 0 0 1 65.28 36.99 M 61.95 31.49 C 61.5 31.27 60.96 30.48 
      60.77 29.78 C 60.16 27.49 60.21 21.81 60.86 20.19 C 61.15 19.45 61.84 18.87 62.39 
      18.87 C 63.02 18.87 63.8 19.61 64.08 20.48 C 64.6 22.02 64.68 27.19 64.23 29.37 C 
      63.87 31.1 62.93 31.98 61.95 31.49 M 71.82 32.56 C 73.22 32.26 73.3 32.19 73.3
      31.29 C 73.3 30.59 73.26 30.5 73.04 30.56 C 72.16 30.83 71.95 30.83 71.67 30.58 C 
      71.4 30.33 71.39 30.1 71.39 26.51 L 71.39 22.69 L 73.15 22.69 L 73.15 20.97 L
      72.27 20.87 L 71.39 20.76 L 71.39 19.38 C 71.39 18.62 71.33 17.97 71.27 17.93 C 
      71.21 17.9 70.83 17.84 70.44 17.81 L 69.71 17.76 L 69.46 18.79 L 69.11 20.23 C
      69.04 20.58 68.95 20.63 68.51 20.63 L 68 20.63 L 68 22.55 L 68.88 22.55 L 68.88 
      26.83 C 68.88 32.06 68.94 32.26 70.57 32.62 C 71.04 32.72 71.13 32.72 71.82
      32.56" />
    <path fill="#016123" d="M 51.74 40.26 L 50.89 39.41 L 50.89 26.84 C 50.89 17.71
      50.94 14.1 51.07 13.69 A 4.04 4.04 0 0 1 52.81 11.65 C 53.12 11.49 53.82 11.32
      54.38 11.28 C 55.12 11.22 55.3 11.23 55.05 11.34 A 3.68 3.68 0 0 0 53.29 13.1 L
      52.89 13.93 L 52.84 27.52 C 52.82 35 52.75 41.12 52.69 41.12 C 52.63 41.12 52.2
      40.73 51.74 40.26 M 62.21 36.96 C 61.51 36.78 60.74 35.93 60.41 34.99 C 60.27
      34.59 60.1 34.13 60.04 33.96 C 59.96 33.78 59.68 33.59 59.32 33.48 C 58 33.09
      56.78 31.31 56.24 29.04 C 55.86 27.41 55.87 22.46 56.26 21 C 56.86 18.76 57.99
      17.32 59.49 16.88 C 60.46 16.59 61.05 16.6 60.23 16.9 C 58.84 17.39 57.82 18.73
      57.2 20.86 C 56.89 21.93 56.86 22.32 56.88 25.13 C 56.89 27.8 56.93 28.37 57.2
      29.35 C 57.8 31.55 58.71 32.8 60.16 33.46 C 60.82 33.76 60.94 33.88 61.08 34.4 C 
      61.42 35.65 62.08 36.55 62.95 36.94 C 63.27 37.08 63.29 37.12 63.05 37.11 C 62.89 
      37.11 62.51 37.04 62.21 36.96 M 69.18 32.52 C 68.02 32.12 67.84 31.29 67.84 26.3 
      C 67.84 22.93 67.82 22.57 67.6 22.52 C 67.42 22.49 67.29 22.21 67.17 21.59 A 3.51
      3.51 0 0 1 67.06 20.6 C 67.09 20.54 67.29 20.48 67.48 20.48 C 67.83 20.48 67.84
      20.52 67.84 21.52 L 67.84 22.55 L 68.71 22.55 L 68.75 26.86 C 68.81 31.64 68.84
      31.84 69.8 32.43 C 70.17 32.65 70.21 32.72 69.98 32.71 A 3.51 3.51 0 0 1 69.18
      32.52 M 62.43 31.13 C 63.26 30.26 63.57 28.63 63.57 25.11 C 63.57 21.73 63.17
      19.81 62.34 19.23 C 62.04 19.02 62.04 19.01 62.49 19.01 C 63.99 19.01 64.56 21.1 
      64.41 26.16 C 64.33 28.98 64.15 30.09 63.63 30.88 A 1.67 1.67 0 0 1 62.36 31.54 C 
      62.05 31.54 62.05 31.52 62.43 31.13 M 72.04 30.51 A 2.19 2.19 0 0 1 72.78 30.38 C 
      73.16 30.38 73.18 30.4 72.93 30.51 A 2.19 2.19 0 0 1 72.19 30.63 C 71.81 30.63
      71.79 30.62 72.04 30.51 M 68.18 20.3 C 68.82 17.48 68.75 17.69 69.21 17.69 C
      69.59 17.69 69.64 17.73 69.56 18.01 C 69.51 18.19 69.36 18.86 69.23 19.48 C 68.99 
      20.6 68.96 20.63 68.54 20.63 C 68.17 20.63 68.11 20.59 68.18 20.3" />
  </g>
</svg>
