<svg xmlns="http://www.w3.org/2000/svg" viewBox="0 0 100 100" width="100" height="100">
  <circle
      cx="50" cy="50" r="50"
      fill="#454548" />
   <path fill="#fda703"
      d="M 43.05 38.03 C 40.04 38.21 38.09 39.89 36.64 42.19 L 36.64 38.51 L 33.87 38.51 L 33.87
61.55 L 36.64 61.55 L 36.64 55.1 L 38.53 55.28 C 41.57 55.61 43.44 54.58 44.44 53.93 C
45.44 53.27 47.45 51.19 48.09 47.73 C 49.31 40.03 45.21 38.13 43.05 38.03 L 43.05 38.03
M 64.93 38.54 L 59.87 50.88 L 53.79 38.54 L 50.78 38.54 L 58.42 54.45 C 56.11 60.09
53.73 60.02 50.49 59.33 L 50.49 61.77 C 56.43 62.73 58.25 60.07 59.68 57.43 C 60.24
56.44 60.74 55.43 61.18 54.4 L 67.8 38.54 L 64.93 38.54 M 30.73 38.98 L 14.61 47 L
30.73 55.06 L 30.73 52.58 L 19.72 47 L 30.73 41.49 L 30.73 38.98 M 69.27 39.02 L 69.27
41.52 L 80.28 47.04 L 69.27 52.61 L 69.27 55.1 L 85.39 47.04 L 69.27 39.02 M 42.11
40.73 C 44.76 40.73 45.52 43.76 45.28 46.78 C 44.62 51.97 41.3 53.86 36.64 52.62 L
36.64 45.51 C 37.95 43.04 40.44 40.73 42.11 40.73 L 42.11 40.73"/>
</svg>
