<svg xmlns="http://www.w3.org/2000/svg" viewBox="0 0 100 100" width="100" height="100">
  <circle
      cx="50" cy="50" r="50"
      fill="#454548" />
  <linearGradient id="a" gradientUnits="userSpaceOnUse" x1="70.252" y1="1237.476" x2="170.659"
    y2="1151.089" gradientTransform="matrix(.563 0 0 -.568 -29.215 707.817)">
    <stop offset="0" stop-color="#5A9FD4" /><stop offset="1" stop-color="#306998"/>
  </linearGradient>
  <linearGradient id="b" gradientUnits="userSpaceOnUse" x1="209.474" y1="1098.811"
    x2="173.62" y2="1149.537" gradientTransform="matrix(.563 0 0 -.568 -29.215 707.817)">
    <stop offset="0" stop-color="#FFD43B" /><stop offset="1" stop-color="#FFE873" />
  </linearGradient>
  <path fill="url(#a)" d="M 49.64 13.66 C 47.17 13.68 44.81 13.89 42.73 14.25 C
    36.61 15.34 35.49 17.6 35.49 21.78 L 35.49 27.29 L 49.96 27.29 L 49.96 29.13 L 30.06
    29.13 C 25.86 29.13 22.18 31.66 21.03 36.47 C 19.7 41.98 19.64 45.42 21.03 51.17 C
    22.05 55.45 24.51 58.51 28.72 58.51 L 33.69 58.51 L 33.69 51.89 C 33.69 47.12 37.82
    42.91 42.73 42.91 L 57.18 42.91 C 61.2 42.91 64.42 39.59 64.42 35.55 L 64.42 21.78 C
    64.42 17.86 61.11 14.91 57.18 14.26 C 54.69 13.84 52.12 13.65 49.64 13.66 L 49.64 13.66
    M 41.82 18.1 C 43.31 18.1 44.53 19.34 44.53 20.87 C 44.53 22.39 43.31 23.61 41.82 23.61
    C 40.32 23.61 39.1 22.39 39.1 20.87 C 39.1 19.34 40.32 18.1 41.82 18.1 L 41.82 18.1"
    transform="translate(0 7.26)" />
  <path fill="url(#b)" d="M 66.22 29.13
    L 66.22 35.55 C 66.22 40.53 62 44.73 57.18 44.73 L 42.73 44.73 C 38.77 44.73 35.49
    48.12 35.49 52.08 L 35.49 65.86 C 35.49 69.78 38.9 72.09 42.73 73.21 C 47.31 74.56 51.7
    74.8 57.18 73.21 C 60.82 72.15 64.41 70.03 64.41 65.86 L 64.41 60.34 L 49.96 60.34 L
    49.96 58.5 L 71.65 58.5 C 75.85 58.5 77.42 55.57 78.88 51.17 C 80.4 46.64 80.33 42.28
    78.88 36.46 C 77.85 32.28 75.86 29.13 71.65 29.13 L 66.22 29.13 L 66.22 29.13 M 58.09
    64.02 C 59.59 64.02 60.81 65.25 60.81 66.77 C 60.81 68.29 59.59 69.53 58.09 69.53 C
    56.6 69.53 55.38 68.29 55.38 66.77 C 55.38 65.25 56.6 64.02 58.09 64.02 L 58.09 64.02"
    transform="translate(0 7.26)" />
</svg>
