<svg xmlns="http://www.w3.org/2000/svg" viewBox="0 0 100 100" width="100" height="100">
  <path fill="rgb(61, 125, 253)" d="M 25.37 50 C 25.36 53.25 25.81 56.49 26.69 59.63
    C 27.58 62.7 28.89 65.64 30.59 68.39 C 30.73 68.62 30.83 68.87 30.89 
    69.13 C 30.94 69.32 30.94 69.52 30.89 69.71 C 30.83 69.87 30.73 70.01 
    30.59 70.12 L 30.18 70.42 L 27.75 71.79 C 26.51 70.05 25.42 68.21
    24.49 66.3 C 23.62 64.53 22.89 62.7 22.32 60.81 C 21.76 59.02 21.35
    57.18 21.09 55.33 C 20.57 51.55 20.57 47.73 21.09 43.96 C 21.35 42.1 
    21.76 40.27 22.32 38.47 C 22.89 36.59 23.62 34.76 24.49 32.98 C 25.42 
    31.27 26.48 29.62 27.66 28.04 L 30.1 29.44 L 30.51 29.74 C 30.64 29.86 
    30.74 30 30.8 30.15 C 30.85 30.34 30.85 30.54 30.8 30.73 C 30.74 30.99 
    30.64 31.24 30.51 31.47 C 27.1 37.13 25.33 43.51 25.37 50 L 25.37 50 M 
    35.29 59.63 C 35.28 59.08 35.39 58.53 35.61 58.02 C 35.82 57.53 36.13 
    57.08 36.52 56.7 C 37.14 56.12 37.93 55.72 38.8 55.56 C 39.66 55.41
    40.55 55.5 41.36 55.82 C 42.42 56.24 43.26 57.03 43.71 58.02 C 43.94 
    58.53 44.06 59.08 44.06 59.63 C 44.06 60.19 43.94 60.74 43.71 61.25 C 
    43.49 61.74 43.17 62.19 42.77 62.57 C 42.37 62.95 41.89 63.25 41.36
    63.45 C 40.25 63.87 39.01 63.87 37.9 63.45 C 37.38 63.25 36.91 62.95 
    36.52 62.57 C 36.12 62.18 35.8 61.72 35.59 61.22 C 35.38 60.71 35.28 
    60.18 35.29 59.63 L 35.29 59.63 M 66.97 46.68 L 65.39 49.26 L 60.26
    46.51 L 59.26 45.88 C 58.96 45.68 58.69 45.44 58.47 45.17 C 58.72
    45.84 58.82 46.55 58.76 47.26 L 58.76 52.74 L 55.83 52.74 L 55.83
    47.26 C 55.81 46.55 55.93 45.84 56.18 45.17 C 55.71 45.71 55.14 46.16 
    54.48 46.49 L 49.37 49.23 L 47.79 46.65 L 52.86 43.91 C 53.54 43.52
    54.28 43.25 55.06 43.11 C 54.28 43.01 53.52 42.75 52.86 42.34 L 47.61 
    39.57 L 49.19 36.99 L 54.33 39.73 L 55.3 40.39 C 55.59 40.61 55.86
    40.86 56.09 41.13 C 55.85 40.45 55.77 39.73 55.83 39.02 L 55.83 33.53 
    L 58.76 33.53 L 58.76 39.02 C 58.79 39.39 58.79 39.75 58.76 40.12 C
    58.71 40.46 58.61 40.79 58.47 41.11 C 58.96 40.57 59.54 40.11 60.2
    39.76 L 65.3 37.02 L 66.89 39.6 L 61.81 42.34 L 60.75 42.84 C 60.42
    42.97 60.06 43.07 59.7 43.11 C 60.06 43.17 60.41 43.26 60.75 43.38 C 
    61.12 43.52 61.48 43.7 61.81 43.91 L 66.97 46.68 M 74.51 50 C 74.52
    46.75 74.08 43.51 73.19 40.37 C 72.32 37.23 71.02 34.21 69.32 31.39 C 
    69.18 31.16 69.08 30.91 69.03 30.65 C 68.98 30.46 68.98 30.26 69.03
    30.07 C 69.09 29.91 69.19 29.77 69.32 29.66 L 69.73 29.36 L 72.26
    28.04 C 73.47 29.79 74.55 31.63 75.48 33.53 C 76.36 35.31 77.08 37.14 
    77.65 39.02 C 78.22 40.82 78.63 42.65 78.89 44.51 C 79.14 46.33 79.28 
    48.16 79.3 50 C 79.29 51.84 79.16 53.67 78.92 55.49 C 78.66 57.35
    78.25 59.18 77.68 60.98 C 77.11 62.86 76.39 64.7 75.51 66.47 C 74.58 
    68.37 73.5 70.21 72.28 71.96 L 69.82 70.59 L 69.41 70.28 C 69.27 70.17 
    69.17 70.03 69.12 69.87 C 69.07 69.68 69.07 69.49 69.12 69.3 C 69.17 
    69.04 69.27 68.79 69.41 68.56 C 71.09 65.77 72.38 62.79 73.25 59.69 C 
    74.12 56.52 74.55 53.27 74.51 50 L 74.51 50" />
</svg>
