<svg xmlns="http://www.w3.org/2000/svg" viewBox="0 0 100 100" width="100" height="100">
  <g transform="translate(-175 -23) scale(0.34)">
    <pattern id="a" width="1.5" height="1.5" patternUnits="userSpaceOnUse"
      patternTransform="rotate(45)">
      <line x1="0" y1="0" x2="0" y2="1.5" stroke="#fff" stroke-width="1"/>
    </pattern>
    <path fill="none" stroke="#fff" stroke-linejoin="round" stroke-width="1.5"
    d="M688.6 239.4 715 209l-31 7.3m31-7.3-26.4 15.3m0 30.5L715 270l-26.4-30.3m0 15-13 
      8-13.4 7.4-13.3-7.4-13.1-8-.3-15.2.3-15.2 13-8 13.4-7.3 13.4 7.3 13 8 .4 15.2zm
      -52.8-15.4L609.4 209l31 7.3m-31-7.3 26.4 15.3m0 30.5L609.4 270l26.4-30.3M609.4 
      270l39.5-7.3m28.8 7.7a15.5 15.5 0 1 1-31 0 15.5 15.5 0 0 1 31 0zm0-30.9a15.5 15.5 
      0 1 1-31 0 15.5 15.5 0 0 1 31 0zm26.4-15.7a15.5 15.5 0 1 1-31 0 15.5 15.5 0 0 1 
      31 0zm0 31a15.5 15.5 0 1 1-31 0 15.5 15.5 0 0 1 31 0zm-52.8 0a15.5 15.5 0 1 1-31 0
      15.5 15.5 0 0 1 31 0zm0-30.5a15.5 15.5 0 1 1-31 0 15.5 15.5 0 0 1 31 0zM609.4 
      270l52.8-91.4L715 270zm0-61 52.8 91.5L715 209zm121.1 61a15.5 15.5 0 1 1-31 0 15.5 
      15.5 0 0 1 31 0zm-15.5 0-26 16-26.8 14.7-26.7-14.7-26-15.8-.7-30.5.6-30.5 26.1
      -15.8 26.7-14.6 26.8 14.6 26 15.8.7 30.5zm-37.3 30.5a15.5 15.5 0 1 1-31 0 15.5
      15.5 0 0 1 31 0zm0-122a15.5 15.5 0 1 1-31 0 15.5 15.5 0 0 1 31 0zM625 270.2a15.5 
      15.5 0 1 1-31 0 15.5 15.5 0 0 1 31 0zm0-61a15.5 15.5 0 1 1-31 0 15.5 15.5 0 0 1 
      31 0zm105.6 0a15.5 15.5 0 1 1-31 0 15.5 15.5 0 0 1 31 0z"/>
    <path fill="#4ea8f1" stroke="#fff" stroke-width="1.5" d="M671.2 169.4c.2.4 5.9
      7.4 10.8 9 0 0-9.5 2.1-16.2-5.6m68.3-26s21.6 8 26.8 9c0 0-17.2 8.4-38.3-2.7 27.8 
      12 25.8 11.4 25.8 11.4s-20.8 4.2-37.5-7c14.9 6.8 25.2 12 25.2 12s-12.7 4-34.3
      -8.1c12 5.2 22.8 12.7 22.8 12.7s-19.1.7-33.4-9.4c11.3 6 18 12 18 12s-21.9.5
      -30.2-10.3c13 10.4 15.5 11.5 15.5 11.5s-14.8 1.6-23.9-9m-4-8.4c8.3 6.6 9.8 6 9.8 
      6-.3.2-7.3 2.3-10.5-2m6.7-6.3c10.5 6.8 12.4 6.3 12.4 6.3s-9.9 2.8-18.7-4.5m15.2
      -4.6s6.7 4.6 12.5 5.7c0 0-7 5-22-3.2m16.8-8.1c13.5 9 16.2 8.3 16.2 8.3s-11.5
      4.8-26.4-4.6m27.5-2.6s4.5 3 8.3 3.5c0 0-14.1 3.8-28.6-6.8m31.7-.2s4.3 2.4 7.6
      2.7c0 0-12.5 7.4-32.2-5.8m17.8-9.4s18.5 10.3 25.5 11c0 0-15.7 8-31.8-4.9m-38.2
      12.3s15.4-.2 15.2-23.5c0 0 8.6-2.2 15.3 1s13.5 3 15.3 2.2c0 0-4.2 8.2-18.8 5.6 0 
      0-2.3 7.9-11.2 8 0 0-5.1 9.3-16.2 11.4m-12.5 11.4c-.2.4-5.9 7.4-10.8 9 0 0 9.5 2 
      16.2-5.6m-13.3-6.2c-12.9 10.1-15.4 11.3-15.4 11.3s14.8 1.6 23.8-9m-63.4-22.1-25.8 
      9s16.1 8.4 37.3-2.7L577 164.5s20 4.2 36.6-7c-15 6.8-25.2 12-25.2 12s12.7 4 34.3
      -8.1c-12 5.2-22.9 12.7-22.9 12.7s19.2.7 34.2-9.8l-1.5.7c-10.5 5.7-17.3 11.7-17.3 
      11.7s22 .5 30.3-10.5m12.3-5.7c-8.3 6.6-9.7 6-9.7 6 .3.2 7.2 2.3 10.5-2m-6.7
      -6.3c-10.5 6.8-12.5 6.3-12.5 6.3s10 2.8 18.8-4.5m-15.2-4.6s-6.7 4.6-12.5 5.7c0 0 
      7 5 22-3.2m-16.8-8.1c-13.5 9-16.2 8.3-16.2 8.3s11.5 4.8 26.4-4.6m-27.6-2.6s-4.4 
      3-8.2 3.5c0 0 14.1 3.8 28.6-6.8m-31.7-.2s-4.3 2.4-7.6 2.7c0 0 12.5 7.4 32.2
      -5.8m-17.8-9.4s-16.7 9.7-25.5 11c0 0 15.7 8 31.8-4.9m38.1 12.3s-15.3-.2-15.2
      -23.5c0 0-8.5-2.2-15.2 1-6.8 3-13.5 3-15.3 2.2 0 0 4.2 8.2 18.8 5.6 0 0 2.3 7.9 
      11.2 8 0 0 5.1 9.3 16.2 11.4m-1-20 5 176 3.6-176zm.2-4h8.6q1.6.1 1.7 1.7v.6q-.2
      1.6-1.7 1.7h-8.6q-1.6-.1-1.8-1.7v-.6q.1-1.6 1.8-1.7zm13.5-6.8a9.2 9.2 0 1 1-18.4 
      0 9.2 9.2 0 0 1 18.4 0z"/>
    <path fill="#4ea8f1" stroke="#fff" stroke-width="2" d="M639.8 183.7c2.6.3
      13.6.9 15.7-4 .3-1-.8-1.9-1.5-2.5-1.5-1.2-3.6-1.5-5.5-2a22 22 0 0 0-6.6-.6q-3
      .2-5.4 1.5c-1.3.7-2 2.3-3.1 3.3-1.5 1.3-3.6 2-4.8 3.7-1 1.2-2 2.8-2 4.4 0 3.1 2
      6.2 4.1 8.5 2.2 2.2 5.4 3.3 8.4 4.4 4.4 1.5 9.2 1.8 13.8 2.7 5.2 1.1 10.7 1.2
      15.6 3.4 2.2 1 4.7 2 5.8 4.1.8 1.5.6 3.5 0 5-3.7 10.7-14.7 9.2-23 13a17 17 0 0 
      0-5.7 4.8c-1.3 1.8-2.7 4-2.6 6.2a13 13 0 0 0 3.7 7.8c1.4 1.5 3.5 2.4 5.4 3.4 2.8 
      1.5 6 2.5 8.8 4q2.2.8 3.9 2.2c.8.7 2.1 1.4 2 2.5-.1 1.3-1.9 1.7-2.9 2.4-1.8 1.4-4 
      2.4-5.8 4q-2.8 2-4.6 5a11 11 0 0 0-1.9 6q.3 2.5 1.9 4.5c4.3 6.3 10.7 7 11.6 9 .6 
      1 .2 2.5-.4 3.5-1.4 2.3-5 2.7-6.6 4.8-4 4 .7 9.8 5.1 11.2q1 0 1.3-.7c.5-2.6-5
      -3.8-4.7-6.4.3-3.4 5-4.5 7.2-7 .8-1 2-2 2.3-3.1.4-1.6.8-3.9-.5-5-5.1-4.8-8.6
      -7.3-9.8-8.7-.6-.8-1.5-1.9-1-2.8 1.6-3.7 9.5-5 13.1-8.9q2.5-2.5 3.3-6c.3-2 0
      -4.4-1-6.4s-3-3.6-5-5c-2.8-1.9-6.4-2.3-9.5-4-1.5-.8-3.8-1.2-4.5-2.9-1.8-6.5
      10.5-7.6 24-14.8q3.8-1.9 6.5-5.4 2.3-3.1 2.7-7 .3-3-1-5.8c-1-2.3-2.9-4.1-4.7
      -5.9q-3-3.1-6.8-5c-3.6-1.6-7.8-1.8-11.7-2.6-4.9-1-9.8-1.5-14.7-2.7-2.8-.7-5.8
      -1.1-8.4-2.6a9 9 0 0 1-3.5-3.2c-.6-1-1.3-2.5-.6-3.4.7-1 .6-1.3 3.6-1z"/>
    <path fill="#4ea8f1" stroke="#4ca8f2" stroke-width="2" d="M686 183.7c-2.6.3
      -13.6.9-15.6-4-.4-1 .7-1.9 1.4-2.5 1.5-1.2 3.6-1.5 5.6-2a22 22 0 0 1 6.6-.6q
      2.9.2 5.4 1.5c1.3.7 2 2.3 3 3.3 1.5 1.3 3.6 2 4.9 3.7 1 1.2 2 2.8 2 4.4-.1 3.1
      -2 6.2-4.2 8.5s-5.4 3.3-8.3 4.4c-4.5 1.5-9.3 1.8-13.9 2.7-5.2 1.1-10.7 1.2-15.5
      3.4-2.2 1-4.8 2-5.8 4.1a6 6 0 0 0 0 5c3.6 10.7 14.7 9.2 23 13a17 17 0 0 1 5.7
      4.8c1.3 1.8 2.6 4 2.5 6.2a13 13 0 0 1-3.7 7.8c-1.4 1.5-3.5 2.4-5.3 3.4-2.9 1.5
      -6 2.5-8.9 4q-2 .8-3.8 2.2c-.8.7-2.2 1.4-2 2.5 0 1.3 1.8 1.7 2.8 2.4 1.9 1.4 4
      2.4 5.8 4q2.9 2 4.7 5c1 1.8 1.9 3.9 1.8 6 0 1.6-1 3.2-1.9 4.5-4.3 6.3-10.6 7-11.6 
      9-.5 1-.1 2.5.5 3.5 1.4 2.3 4.9 2.7 6.6 4.8 4 4-.7 9.8-5.2 11.2-.4 0-1.1-.3-1.2
      -.7-.6-2.6 4.9-3.8 4.7-6.4-.3-3.4-5-4.5-7.2-7-.9-1-2-2-2.3-3.1-.5-1.6-.8-3.9.4
      -5 5.2-4.8 8.7-7.3 9.8-8.7.7-.8 1.5-1.9 1.1-2.8-1.6-3.7-9.6-5-13.2-8.9a12 12 0 0 
      1-3.2-6c-.4-2 0-4.4 1-6.4s3-3.6 5-5c2.8-1.9 6.4-2.3 9.4-4 1.6-.8 3.8-1.2 4.5-2.9 
      1.8-6.5-10.4-7.6-24-14.8a19 19 0 0 1-6.5-5.4q-2.2-3.1-2.7-7-.1-3 1-5.8c1.1-2.3 
      3-4.1 4.7-5.9q3-3.1 6.8-5c3.7-1.6 7.8-1.8 11.8-2.6 4.8-1 9.8-1.5 14.6-2.7 2.9
      -.7 5.9-1.1 8.4-2.6a9 9 0 0 0 3.6-3.2c.5-1 1.2-2.5.6-3.4-.7-1-.7-1.3-3.7-1z"/>
    <ellipse cx="648.2" cy="178.2" stroke="#fff" stroke-width=".8" rx=".8" ry=".2"/>
    <path fill="url(#a)" d="M676.5 167.5q-3-.3-6.4.6c-1.9.4-3.9.7-5.1 1.8q-.6.4-1 1c
      -.4.5-.3.3-.2.4q.6 1.5 2.5 2.3 1.9.9 4.4 1.2c3.2.4 6.6.2 7.8 0 1.6-.1 2.3-.2 3 0q
      .6.2 1 .6l.5.7q.6 1.2.2 2.4-.2 1-.8 2a10 10 0 0 1-3.8 3.5c-2.8 1.5-5.9 2-8.7
      2.6-4.9 1.2-9.9 1.8-14.7 2.7-4 .9-8 1-11.6 2.6q-3.6 1.8-6.5 4.8a20 20 0 0 0-4.5
      5.7q-1 2.5-1 5.3a14 14 0 0 0 2.6 6.6 18 18 0 0 0 6.3 5.2c6.6 3.5 13 5.6 17.6
      7.6q3.5 1.4 5.4 3.3 2 2 1.3 4.8v.1q-.8 1.6-2.3 2.2l-2.6 1.2c-3.2 1.7-6.8 2.2-9.4 
      4q-3.2 1.8-4.7 4.6-1.4 2.8-.9 6 .8 3 3 5.5c1.7 1.7 4.5 3 7.1 4.3 2.7 1.2 5.3 2.5 
      6.3 4.8q.4 1.1-.2 2.1l-1 1.5q-1 1.2-3.5 3.2-2.6 2-6.4 5.6-.6.5-.6 1.7c0 1.2.2
      1.7.4 2.4.2.9 1.2 1.7 2 2.8 1 1 2.7 2 4.3 3 1.5 1.1 3 2.5 3.2 4.5q0 1.5-1 2.4l
      -1.8 1.6q-1 .6-1.5 1.3c-.5.7-.5.6-.4 1h.3c2-.6 4-2.2 5.1-4.1q.9-1.5.9-3a4 4 0 0 
      0-1.3-2.6q-1.3-1.3-3.2-2.2a8 8 0 0 1-3.5-2.8c-.7-1.2-1.3-2.8-.6-4.3q.7-1.1 2
      -1.8l3-1.5q3.5-1.5 6.7-5.8a9 9 0 0 0 1.8-4q-.1-3-1.7-5.6c-1-1.8-2.8-3.3-4.5-4.8
      -1.7-1.4-3.8-2.4-5.8-3.9l-1.7-1c-.6-.4-1.4-1-1.5-2q0-1.4 1-2.1l1.3-1.2q2-1.4 4
      -2.3c3-1.5 6.1-2.5 8.9-4 1.9-1 3.9-1.8 5-3.2 2-2 3.5-4.7 3.6-7.3 0-1.8-1.1-3.9
      -2.4-5.6a16 16 0 0 0-5.4-4.6c-4-1.8-8.8-2.4-13.1-3.8a15 15 0 0 1-10.4-9.5 7 7 0 0 
      1 .1-5.7c1.3-2.5 4-3.6 6.2-4.6 5-2.2 10.7-2.3 15.7-3.4 4.7-1 9.5-1.2 13.8-2.7 3
      -1 6-2.2 8-4.2 2-2.2 3.8-5.1 3.9-8q-.1-1.9-1.8-3.8c-1-1.3-3-2-4.7-3.6-1.3-1.2-2
      -2.6-3-3.2q-2.2-1.2-5-1.3" transform="translate(7.5 8)"/>
    <ellipse cx="680" cy="178.2" stroke="#fff" stroke-width=".8" rx=".8" ry=".2"/>
    <rect width="15.7" height="5" x="654" y="133.7" fill="#4ea8f1" stroke="#fff" 
      stroke-width="1.4" rx="2.1" ry="2.1"/>
  </g>
</svg>
