<svg xmlns="http://www.w3.org/2000/svg" viewBox="0 0 100 100" width="100" height="100">
  <path style="fill-rule:evenodd;clip-rule:evenodd;" fill="#00b6e6" d="M 75.42 23.53
    L 77.01 25.63 C 77.43 26.18 77.33 26.97 76.78 27.39 L 75.08 28.68 C 75.39 29.49
    75.59 30.37 75.67 31.26 L 77.59 31.52 C 78.28 31.62 78.76 32.25 78.67 32.94 L 78.31 
    35.56 C 78.22 36.24 77.58 36.73 76.89 36.63 L 74.79 36.34 C 74.41 37.16 73.93 37.91 
    73.37 38.58 L 74.55 40.13 C 74.97 40.68 74.86 41.48 74.3 41.89 L 72.21 43.49 C
    71.65 43.9 70.86 43.79 70.44 43.25 L 69.16 41.56 C 68.33 41.86 67.47 42.06 66.57
    42.14 L 66.31 44.06 C 66.21 44.75 65.57 45.23 64.89 45.14 L 62.27 44.78 C 61.58
    44.69 61.11 44.05 61.2 43.36 L 61.49 41.26 C 60.67 40.89 59.92 40.41 59.25 39.85 L 
    57.7 41.02 C 57.15 41.44 56.35 41.33 55.93 40.78 L 54.34 38.68 C 53.92 38.13 54.03 
    37.34 54.58 36.92 L 56.27 35.64 C 55.97 34.81 55.77 33.95 55.69 33.05 L 53.76 32.79 
    C 53.08 32.7 52.59 32.06 52.69 31.37 L 53.05 28.76 C 53.14 28.07 53.78 27.59 54.47 
    27.68 L 56.57 27.97 C 56.94 27.16 57.42 26.4 57.98 25.73 L 56.81 24.18 C 56.39
    23.64 56.49 22.84 57.05 22.42 L 59.14 20.83 C 59.7 20.41 60.49 20.52 60.91 21.07 L 
    62.19 22.76 C 63.01 22.46 63.88 22.26 64.78 22.18 L 65.04 20.25 C 65.13 19.57 65.77 
    19.08 66.46 19.17 L 69.07 19.53 C 69.76 19.62 70.25 20.26 70.15 20.95 L 69.86 23.05 
    C 70.68 23.43 71.43 23.91 72.1 24.47 L 73.65 23.3 C 74.21 22.87 75 22.98 75.42
    23.53 L 75.42 23.53 L 75.42 23.53 M 30.47 60.42 L 30.47 50.28 L 35.7 50.28 C 36.67 
    50.28 37.41 50.36 37.92 50.53 C 38.43 50.7 38.84 51 39.15 51.45 C 39.47 51.91 39.63 
    52.46 39.63 53.1 C 39.63 53.66 39.5 54.15 39.26 54.56 C 39.02 54.97 38.69 55.3
    38.27 55.55 C 38.01 55.71 37.64 55.85 37.17 55.95 C 37.55 56.08 37.82 56.2 37.98
    56.33 C 38.1 56.41 38.27 56.59 38.48 56.86 C 38.7 57.13 38.84 57.35 38.92 57.5 L
    40.44 60.43 L 36.9 60.43 L 35.23 57.34 C 35.01 56.94 34.83 56.67 34.66 56.56 C
    34.44 56.4 34.18 56.32 33.9 56.32 L 33.62 56.32 L 33.62 60.43 L 30.47 60.43 L 30.47 
    60.42 M 41.53 78.08 L 35.67 78.08 L 34.83 80.84 L 29.56 80.84 L 35.84 64.12 L 41.5 
    64.12 L 47.76 80.84 L 42.36 80.84 L 41.53 78.08 L 41.53 78.08 M 40.43 74.46 L 38.61 
    68.45 L 36.77 74.46 L 40.43 74.46 L 40.43 74.46 M 48.98 64.12 L 57.58 64.12 C 59.45 
    64.12 60.85 64.57 61.78 65.46 C 62.71 66.35 63.18 67.62 63.18 69.26 C 63.18 70.95 
    62.67 72.28 61.65 73.23 C 60.64 74.18 59.08 74.65 57 74.65 L 54.16 74.65 L 54.16
    80.84 L 48.98 80.84 L 48.98 64.12 L 48.98 64.12 M 54.16 71.27 L 55.44 71.27 C 56.44 
    71.27 57.15 71.09 57.55 70.74 C 57.96 70.4 58.16 69.95 58.16 69.42 C 58.16 68.89
    57.98 68.45 57.63 68.08 C 57.28 67.72 56.62 67.54 55.65 67.54 L 54.16 67.54 L 54.16 
    71.27 L 54.16 71.27 M 65.27 64.12 L 70.45 64.12 L 70.45 80.84 L 65.27 80.84 L 65.27 
    64.12 L 65.27 64.12 M 33.62 54.4 L 34.94 54.4 C 35.08 54.4 35.36 54.35 35.77 54.26 
    C 35.98 54.21 36.15 54.11 36.28 53.94 C 36.42 53.76 36.48 53.57 36.48 53.35 C 36.48 
    53.02 36.37 52.76 36.16 52.59 C 35.96 52.41 35.57 52.33 35 52.33 L 33.62 52.33 L
    33.62 54.4 L 33.62 54.4 M 41.05 50.28 L 49.44 50.28 L 49.44 52.44 L 44.19 52.44 L 
    44.19 54.06 L 49.06 54.06 L 49.06 56.13 L 44.19 56.13 L 44.19 58.12 L 49.59 58.12 L 
    49.59 60.42 L 41.05 60.42 L 41.05 50.28 L 41.05 50.28 M 50.33 57.07 L 53.31 56.88 C 
    53.37 57.37 53.51 57.73 53.7 57.98 C 54.03 58.39 54.49 58.6 55.09 58.6 C 55.53 58.6 
    55.88 58.49 56.12 58.28 C 56.36 58.07 56.48 57.83 56.48 57.55 C 56.48 57.29 56.37 
    57.05 56.14 56.84 C 55.91 56.64 55.38 56.45 54.53 56.25 C 53.16 55.95 52.18 55.54 
    51.59 55.03 C 51 54.51 50.71 53.86 50.71 53.07 C 50.71 52.55 50.86 52.06 51.16
    51.59 C 51.47 51.13 51.92 50.76 52.53 50.5 C 53.14 50.24 53.97 50.11 55.03 50.11 C 
    56.32 50.11 57.31 50.35 57.99 50.83 C 58.66 51.32 59.07 52.08 59.2 53.14 L 56.25
    53.32 C 56.17 52.86 56.01 52.52 55.76 52.31 C 55.51 52.11 55.16 52 54.72 52 C 54.36 
    52 54.08 52.08 53.9 52.23 C 53.72 52.39 53.62 52.58 53.62 52.8 C 53.62 52.96 53.7 
    53.1 53.85 53.24 C 54 53.37 54.34 53.49 54.9 53.61 C 56.27 53.91 57.25 54.21 57.84 
    54.51 C 58.43 54.81 58.87 55.18 59.13 55.63 C 59.4 56.08 59.54 56.58 59.54 57.13 C 
    59.54 57.79 59.36 58.38 59 58.93 C 58.64 59.48 58.14 59.89 57.49 60.18 C 56.84
    60.46 56.03 60.6 55.05 60.6 C 53.33 60.6 52.13 60.27 51.47 59.61 C 50.8 58.93 50.43 
    58.09 50.33 57.07 L 50.33 57.07 M 59.99 50.28 L 69.53 50.28 L 69.53 52.79 L 66.33 
    52.79 L 66.33 60.42 L 63.2 60.42 L 63.2 52.79 L 59.99 52.79 L 59.99 50.28 L 59.99 
    50.28 M 49.44 26.21 C 48.32 26.12 47.18 26.13 46.06 26.24 C 42.59 26.57 39.23 27.83 
    36.45 29.99 C 33.24 32.48 30.8 36.21 29.86 41.14 L 29.56 42.69 L 28.03 42.96 C
    26.52 43.22 25.17 43.58 23.99 44.05 C 22.85 44.49 21.83 45.04 20.94 45.68 C 20.22 
    46.2 19.61 46.78 19.09 47.4 C 17.47 49.34 16.72 51.77 16.74 54.23 C 16.76 56.72
    17.57 59.24 19.07 61.31 C 19.63 62.08 20.27 62.79 21.01 63.4 C 21.76 64.03 22.6
    64.54 23.55 64.93 C 24.08 65.15 24.66 65.33 25.25 65.48 L 25.25 70.09 C 24.02 69.87 
    22.89 69.53 21.83 69.1 C 20.44 68.52 19.2 67.78 18.12 66.87 C 17.08 66 16.18 65.03 
    15.41 63.96 C 13.36 61.14 12.26 57.68 12.23 54.24 C 12.21 50.76 13.29 47.3 15.63
    44.49 C 16.38 43.58 17.27 42.75 18.29 42.01 C 19.48 41.15 20.84 40.42 22.38 39.83 C 
    23.43 39.42 24.56 39.07 25.76 38.8 C 27.11 33.42 29.99 29.29 33.7 26.41 C 37.17
    23.73 41.34 22.16 45.64 21.75 C 47.89 21.53 50.18 21.63 52.42 22.05 C 52.37 22.25 
    52.33 22.46 52.3 22.66 L 52.3 22.7 C 52.25 23.05 52.23 23.4 52.25 23.76 C 51.78
    23.94 51.34 24.2 50.94 24.5 L 50.92 24.51 C 50.32 24.96 49.82 25.54 49.44 26.21 L 
    49.44 26.21 M 81.97 38.01 C 82.31 38.32 82.65 38.65 82.97 39 C 83.63 39.71 84.25
    40.5 84.83 41.4 C 86.8 44.42 87.81 48.46 87.77 52.41 C 87.72 56.29 86.68 60.15
    84.54 62.99 C 83.14 64.84 81.36 66.36 79.21 67.55 C 77.74 68.38 76.09 69.06 74.29 
    69.61 L 74.29 64.85 C 75.26 64.49 76.16 64.08 76.99 63.62 C 78.61 62.72 79.93 61.62 
    80.92 60.29 C 82.46 58.25 83.21 55.35 83.24 52.38 C 83.28 49.26 82.52 46.14 81.04 
    43.86 C 80.61 43.2 80.14 42.61 79.65 42.08 C 79.46 41.88 79.27 41.69 79.07 41.51 C 
    79.11 41.2 79.12 40.89 79.1 40.57 C 79.57 40.39 80.01 40.14 80.41 39.83 L 80.43
    39.82 C 81.07 39.33 81.59 38.72 81.97 38.01 L 81.97 38.01 M 66.38 27.03 C 69.21
    27.42 71.19 30.03 70.81 32.86 C 70.42 35.7 67.81 37.68 64.97 37.3 C 62.14 36.91
    60.15 34.3 60.55 31.46 C 60.94 28.63 63.55 26.64 66.38 27.03 L 66.38 27.03 L 66.38 
    27.03" />
</svg>
