<svg xmlns="http://www.w3.org/2000/svg" viewBox="0 0 100 100" width="100" height="100">
  <path d="M 74.57 23.11 A 27.7 27.7 0 0 1 71.37 28.8 A 30.12 30.12 0 0 0 50.08 19.99 C 
  33.57 19.99 19.99 33.59 19.99 50.11 A 30.15 30.15 0 0 0 29.34 71.94 L 30.45 72.92 A 
  30.1 30.1 0 0 0 49.83 80.01 C 65.53 80.01 78.73 67.71 79.84 52.04 C 80.66 44.36 78.41 
  34.66 74.57 23.11 L 74.57 23.11 M 33.61 72.11 A 2.58 2.58 0 0 1 31.61 73.06 C 30.2
  73.06 29.04 71.9 29.04 70.49 C 29.04 69.07 30.2 67.91 31.61 67.91 C 32.2 67.91 32.78 
  68.11 33.23 68.49 C 34.33 69.38 34.5 71.01 33.61 72.11 M 74.45 63.09 C 67.02 72.99
  51.16 69.66 40.99 70.13 C 40.99 70.13 39.19 70.24 37.37 70.54 C 37.37 70.54 38.05
  70.25 38.94 69.91 C 46.07 67.43 49.45 66.95 53.79 64.72 C 61.96 60.56 70.03 51.46
  71.71 42 C 68.6 51.11 59.18 58.93 50.58 62.11 C 44.7 64.28 34.07 66.39 34.07 66.39 L 
  33.64 66.16 C 26.4 62.64 26.18 46.96 39.34 41.89 C 45.1 39.67 50.61 40.89 56.83 39.41 
  C 63.47 37.83 71.16 32.84 74.29 26.34 C 77.79 36.74 82 53.03 74.45 63.09 L 74.45
  63.09" fill="#77bc1f" />
</svg>
