<svg xmlns="http://www.w3.org/2000/svg" viewBox="0 0 100 100" width="100" height="100">
  <circle
      cx="50" cy="50" r="50"
      fill="#454548" />
  <radialGradient id="b" cx="9.36" cy="10.57" fx="9.36" fy="10.57" r="7.07"
    gradientTransform="matrix(73.03125 0 0 37.1875 29.797 56.535)">
    <stop offset="0" style="stop-color:#f2f2f2;stop-opacity:1" />
    <stop offset=".58" style="stop-color:#eee;stop-opacity:1" />
    <stop offset="1" style="stop-color:#e6e6e6;stop-opacity:1" />
  </radialGradient>
  <linearGradient id="a" gradientUnits="userSpaceOnUse" x1="2.59" y1="10.16" x2="15.41"
    y2="10.16" gradientTransform="scale(7.11111)"> 
    <stop offset="0" style="stop-color:#005ba1;stop-opacity:1" /> 
    <stop offset=".07" style="stop-color:#0060a9;stop-opacity:1" /> 
    <stop offset=".36" style="stop-color:#0071c8;stop-opacity:1" /> 
    <stop offset=".52" style="stop-color:#0078d4;stop-opacity:1" /> 
    <stop offset=".64" style="stop-color:#0074cd;stop-opacity:1" /> 
    <stop offset=".82" style="stop-color:#006abb;stop-opacity:1" /> 
    <stop offset="1" style="stop-color:#005ba1;stop-opacity:1" /> 
  </linearGradient>
  <path fill="url(#a)" d="M 50 33.92 C 35.25 33.92 23.29
    29.75 23.29 24.25 L 23.29 75.75 C 23.29 81.04 35.04 85.33 49.62 85.42 L 50 85.42 C
    64.75 85.42 76.71 81.25 76.71 75.75 L 76.71 24.25 C 76.71 29.63 64.75 33.92 50 33.92 L
    50 33.92" /> 
  <path fill="#e8e8e8" d="M 76.71 24.25 C 76.71 29.63 64.75 33.92 50 33.92 C 35.25 33.92 23.29
    29.75 23.29 24.25 C 23.29 18.75 35.25 14.58 50 14.58 C 64.75 14.58 76.71 18.75 76.71 24.25" />
  <path fill="#50e6ff" d="M 70.5 23.46 C 70.5 26.88 61.29 29.63 50 29.63 C 38.71 29.63 29.5 26.88
    29.5 23.46 C 29.5 20.04 38.71 17.33 50 17.33 C 61.29 17.33 70.5 20.08 70.5 23.46" /> 
  <path fill="#198ab3" d="M 50 25 A 48.16 48.16 0 0 0 33.79 27.38 A 47.59 47.59 0 0 0 50 29.63 A
    46.48 46.48 0 0 0 66.21 27.21 A 49.41 49.41 0 0 0 50 25" /> 
  <path fill="url(#b)"  d="M 66.25 60 L 66.25 45.83 L 62.5 45.83 L 62.5 63.04 L 72.75 63.04 L 72.75 60
    L 66.25 60 M 36.5 53.04 A 7.65 7.65 0 0 1 34.37 51.75 A 1.83 1.83 0 0 1 33.87 50.42 A 1.42 1.42
    0 0 1 34.5 49.17 A 2.84 2.84 0 0 1 36.25 48.67 A 6.76 6.76 0 0 1 40.42 49.87 L 40.42
    46.29 A 10.69 10.69 0 0 0 36.25 45.63 A 6.84 6.84 0 0 0 31.71 47.04 A 4.5 4.5 0 0 0
    29.96 50.75 C 29.96 52.87 31.29 54.54 34.13 55.79 C 35.05 56.18 35.91 56.69 36.71 57.29
    A 1.75 1.75 0 0 1 37.33 58.62 C 37.33 59.14 37.08 59.62 36.67 59.92 A 3.39 3.39 0 0 1
    34.79 60.38 A 6.91 6.91 0 0 1 30.25 58.62 L 30.25 62.5 A 9.03 9.03 0 0 0 34.71 63.5 C
    36.45 63.6 38.19 63.12 39.62 62.12 A 4.5 4.5 0 0 0 41 58.33 A 4.37 4.37 0 0 0 39.96
    55.42 A 10.09 10.09 0 0 0 36.5 53.04 L 36.5 53.04 M 58.33 59.67 A 9.75 9.75 0 0 0 59.71
    54.42 A 9.67 9.67 0 0 0 58.33 50 A 7.54 7.54 0 0 0 55.42 46.88 A 8.34 8.34 0 0 0 51.25
    45.79 A 8.8 8.8 0 0 0 46.75 46.92 A 7.74 7.74 0 0 0 43.71 50 A 10.24 10.24 0 0 0 42.63
    54.75 A 9.41 9.41 0 0 0 43.63 58.92 A 7.34 7.34 0 0 0 46.5 62 A 8.6 8.6 0 0 0 50.67
    63.25 L 54.25 67.42 L 59.29 67.42 L 54.17 62.83 A 7.46 7.46 0 0 0 58.33 59.67 L 58.33
    59.67 M 54.17 58.62 A 3.91 3.91 0 0 1 51 60.08 A 3.83 3.83 0 0 1 47.83 58.58 A 6.35
    6.35 0 0 1 46.62 54.42 A 6.39 6.39 0 0 1 47.83 50.25 A 4.16 4.16 0 0 1 51.08 48.71 A
    3.62 3.62 0 0 1 54.21 50.25 A 6.76 6.76 0 0 1 55.33 54.42 A 6.07 6.07 0 0 1 54.17 58.62
    L 54.17 58.62" />
</svg>
