<svg xmlns="http://www.w3.org/2000/svg" viewBox="0 0 100 100" width="100" height="100">
  <circle
      cx="50" cy="50" r="50"
      fill="#454548" />
   <path fill="#b3b3b3"
      d="M 21.69 54.67 C 21.29 54.6 20.29 54.35 19.45 54.12 L 17.93 53.7 L 18.71 52.27 L 19.49
      50.83 L 18.86 50.05 C 17.97 48.95 16.83 46.54 16.82 45.76 C 16.81 43.94 19.17 41.31
      22.07 39.89 C 24.06 38.91 25.64 38.89 27.62 39.82 L 29.11 40.52 L 29.55 39.9 C 29.78
      39.56 29.98 39.11 29.98 38.91 C 29.98 38.72 30.18 38.54 30.41 38.54 C 30.65 38.54 30.85
      38.61 30.85 38.68 C 30.85 38.85 29.11 43.24 29 43.35 C 28.95 43.4 28.48 43.18 27.94
      42.86 C 26.43 41.97 24.54 41.38 23.06 41.34 C 19.64 41.26 18.45 44.6 20.87 47.53 L
      21.72 48.56 L 24.04 46.68 C 26.64 44.58 26.94 44.53 28.97 45.93 C 31.25 47.51 31.29
      49.9 29.09 52.4 C 27.14 54.63 25.13 55.24 21.69 54.67 L 21.69 54.67 M 27.53 52.27 C
      28.66 51.38 28.58 49.73 27.35 48.43 C 25.81 46.79 25.33 46.86 22.62 49.13 C 19.92 51.38
      19.9 51.29 23.13 52.32 C 25.26 53.01 26.6 52.99 27.53 52.27 L 27.53 52.27 M 49.45 60.94
      C 48.67 60.65 46.6 59.8 44.82 59.02 C 40.02 56.93 39.34 56.89 37.91 58.63 C 37.58 59.03
      37.22 59.28 37.12 59.18 C 36.81 58.88 37.72 57.4 38.82 56.44 C 39.72 55.65 40.02 55.54
      41.01 55.65 C 41.64 55.72 43.73 56.45 45.66 57.27 C 50.01 59.12 51.29 59.51 52.95 59.51
      C 54.97 59.51 56.01 58.1 55.37 56.22 C 55.21 55.74 55.26 55.59 55.57 55.59 C 56.16
      55.59 56.46 57.79 56.04 59.06 C 55.86 59.6 55.33 60.37 54.87 60.76 C 54.17 61.34 53.73
      61.46 52.43 61.46 C 51.56 61.45 50.22 61.22 49.45 60.94 L 49.45 60.94 M 38.23 54.21 C
      36.45 53.38 34.84 51.79 33.91 49.93 C 32.42 46.96 32.88 45.05 35.69 42.48 C 38.06 40.31
      40 39.47 42.6 39.47 C 44.48 39.47 44.88 39.58 46.1 40.32 C 48.99 42.11 49.7 45.52 47.97
      49.23 C 45.93 53.59 41.62 55.78 38.23 54.21 L 38.23 54.21 M 44.21 52.14 C 45.55 51.48
      46.47 48.43 46.09 45.89 C 45.62 42.77 41.4 40.64 38.3 41.96 C 35.11 43.32 35.06 46.95
      38.19 50.21 C 40.38 52.5 42.26 53.1 44.21 52.14 M 50.28 54.78 C 50.28 54.65 50.77 54.41
      51.39 54.26 L 52.5 53.99 L 52.73 49.99 C 52.99 45.57 52.8 41.22 52.33 40.64 C 52.15
      40.43 51.63 40.18 51.15 40.07 C 49.19 39.64 50.49 39.34 54.28 39.34 C 58.06 39.34 59.26
      39.61 57.46 40.07 C 55.91 40.46 55.9 40.48 55.9 46.79 C 55.9 50.29 56.03 52.93 56.21
      53.27 C 56.46 53.74 56.84 53.84 58.29 53.84 C 61.28 53.84 62.31 53.13 63.12 50.51 C
      63.36 49.73 63.99 49.87 63.77 50.66 C 63.67 51.03 63.51 52.16 63.4 53.18 L 63.21 55.03
      L 56.75 55.03 C 53.19 55.03 50.28 54.92 50.28 54.78 L 50.28 54.78 "/>
   <path fill="#ca2727"
      d="M 64.97 54.59 C 64.97 54.36 65.2 54.12 65.57 53.94 C 66.08 53.71 66.41 53.21 67.6
      50.87 C 69.5 47.18 72.49 40.83 72.77 39.87 C 72.99 39.15 73.04 39.11 73.86 39.02 C 74.33
      38.96 74.72 38.93 74.73 38.95 C 74.74 38.96 75.39 40.39 76.19 42.13 C 76.98 43.87 78.56
      47.18 79.7 49.47 C 81.63 53.34 81.84 53.68 82.48 54 C 82.88 54.19 83.18 54.48 83.18
      54.65 C 83.18 54.93 82.84 54.96 79.93 54.96 C 77.01 54.96 76.68 54.93 76.68 54.64 C
      76.68 54.45 76.94 54.25 77.34 54.11 C 77.71 54 77.99 53.78 77.99 53.61 C 77.99 53.45
      77.6 52.42 77.13 51.31 L 76.27 49.28 L 69.78 49.28 L 69.15 50.65 C 67.99 53.22 67.97
      53.82 69.05 54.11 C 69.6 54.26 69.74 54.38 69.68 54.63 C 69.61 54.91 69.33 54.95 67.28
      54.95 C 65.09 54.97 64.97 54.95 64.97 54.59 L 64.97 54.59 M 75.62 48.23 C 75.73 48.03
      73.28 42.69 73.06 42.64 C 72.89 42.59 70.36 47.81 70.36 48.21 C 70.36 48.4 75.5 48.43
      75.62 48.23 L 75.62 48.23"/>
</svg>
