<svg xmlns="http://www.w3.org/2000/svg" viewBox="0 0 100 100" width="100" height="100">
  <linearGradient id="sqlite-original-a" x1="-15.615" x2="-6.741" y1="-9.108"
    y2="-9.108" gradientTransform="rotate(90 -90.486 64.634) scale(9.2712)" 
    gradientUnits="userSpaceOnUse">
    <stop stop-color="#95d7f4" offset="0" />
    <stop stop-color="#0f7fcc" offset=".92" />
    <stop stop-color="#0f7fcc" offset="1" />
  </linearGradient>
  <path d="M 52.42 66.49 C 52.39 66.15 52.38 65.93 52.38 65.93 C 52.38 65.93 51.34
    58.95 50.11 56.86 C 49.92 56.53 50.13 55.18 50.68 53.17 C 50.99 53.72 52.34 56.07 
    52.61 56.83 C 52.91 57.69 52.97 57.93 52.97 57.93 C 52.97 57.93 52.24 54.14 51.03 
    51.93 A 76.07 76.07 0 0 1 51.97 49 C 52.42 49.8 53.52 51.74 53.76 52.42 C 53.81
    52.55 53.85 52.67 53.89 52.78 C 53.9 52.72 53.91 52.65 53.92 52.59 C 53.65 51.41
    53.1 49.37 52.36 47.86 C 54.01 39.27 59.64 27.79 65.41 22.66 L 27.76 22.66 C 25.24 
    22.66 23.18 24.73 23.18 27.25 L 23.18 68.77 C 23.18 71.29 25.24 73.36 27.77 73.36 L 
    52.56 73.36 A 55.62 55.62 0 0 1 52.42 66.49" fill="#0b7fcc" />
  <path d="M 50.68 53.17 C 50.99 53.72 52.34 56.07 52.61 56.83 C 52.91 57.68 52.97
    57.93 52.97 57.93 C 52.97 57.93 52.24 54.14 51.03 51.93 A 77.13 77.13 0 0 1 51.97 
    48.99 C 52.38 49.73 53.34 51.42 53.68 52.21 L 53.72 51.76 C 53.42 50.59 52.95 49.06 
    52.36 47.86 C 53.88 39.95 58.77 29.59 64.04 24 L 27.76 24 A 3.25 3.25 0 0 0 24.51 
    27.25 L 24.51 65.74 C 32.73 62.58 42.64 59.7 51.16 59.83 C 50.85 58.61 50.49 57.5 
    50.11 56.86 C 49.92 56.53 50.13 55.18 50.68 53.17" fill="url(#sqlite-original-a)" />
  <path d="M 74.19 21.3 C 71.62 19 68.49 19.93 65.41 22.66 A 20.79 20.79 0 0 0 64.05 24 
    C 58.77 29.59 53.88 39.95 52.36 47.86 C 52.95 49.06 53.42 50.59 53.72 51.76 C 53.8 
    52.06 53.87 52.35 53.93 52.59 C 54.06 53.15 54.13 53.52 54.13 53.52 C 54.13 53.52 
    54.08 53.34 53.89 52.78 C 53.85 52.67 53.81 52.55 53.76 52.42 C 53.74 52.36 53.71 
    52.29 53.68 52.21 C 53.34 51.42 52.39 49.73 51.97 48.99 C 51.61 50.05 51.3 51.04
    51.03 51.93 C 52.24 54.14 52.97 57.93 52.97 57.93 C 52.97 57.93 52.91 57.68 52.61 
    56.83 C 52.34 56.07 50.99 53.72 50.68 53.17 C 50.13 55.18 49.92 56.53 50.11 56.86 C 
    50.49 57.5 50.85 58.61 51.17 59.83 C 51.88 62.58 52.38 65.93 52.38 65.93 C 52.38
    65.93 52.39 66.15 52.42 66.49 A 55.62 55.62 0 0 0 52.56 73.36 C 52.8 76.22 53.24
    78.68 53.81 80 L 54.2 79.79 C 53.36 77.19 53.03 73.79 53.17 69.87 C 53.4 63.88
    54.78 56.65 57.32 49.11 C 61.63 37.74 67.61 28.61 73.08 24.25 C 68.09 28.75 61.35 
    43.32 59.33 48.72 C 57.07 54.76 55.46 60.43 54.5 65.86 C 56.16 60.77 61.55 58.58
    61.55 58.58 C 61.55 58.58 64.19 55.32 67.28 50.67 C 65.43 51.09 62.39 51.81 61.38 
    52.24 C 59.88 52.87 59.47 53.08 59.47 53.08 C 59.47 53.08 64.33 50.12 68.5 48.78 C 
    74.24 39.75 80.49 26.92 74.19 21.3" fill="#003752" />
</svg>
