<svg xmlns="http://www.w3.org/2000/svg" viewBox="0 0 100 100" width="100" height="100">
  <linearGradient x1="55.1170996%" y1="58.6795405%" x2="63.6801778%"
    y2="39.5971572%" id="linearGradient-1">
    <stop stop-color="#FF9700" offset="0%" />
    <stop stop-color="#F48E00" offset="53%" />
    <stop stop-color="#D06F00" offset="100%" />
  </linearGradient>
  <path d="M 78.83 50.22 C 78.83 49.34 78.18 48.84 77.39 49.09 L 22.61 66.46 C 21.81
    66.71 21.16 67.63 21.16 68.51 L 21.16 86.26 C 21.16 87.14 21.81 87.65 22.61 87.39 L 
    77.39 70.02 C 78.18 69.77 78.83 68.85 78.83 67.97 L 78.83 50.22 L 78.83 50.22" 
    fill="url(#linearGradient-1)" />
  <path d="M 21.16 49.66 C 21.16 50.53 21.81 51.45 22.61 51.7 L 77.39 69.08 C 78.19
    69.33 78.84 68.82 78.84 67.95 L 78.84 50.19 C 78.84 49.31 78.19 48.4 77.39 48.14 L 
    22.61 30.77 C 21.81 30.52 21.16 31.02 21.16 31.9 L 21.16 49.66" fill="#FF9800" />
  <path d="M 78.83 13.74 C 78.83 12.86 78.18 12.35 77.39 12.61 L 22.61 29.98 C 21.81
    30.23 21.16 31.15 21.16 32.03 L 21.16 49.78 C 21.16 50.66 21.81 51.16 22.61 50.91 L 
    77.39 33.54 C 78.18 33.29 78.83 32.37 78.83 31.49 L 78.83 13.74" fill="#FF9800" />
</svg>
