<svg xmlns="http://www.w3.org/2000/svg" viewBox="0 0 100 100" width="100" height="100">
  <circle cx="50" cy="50" r="40" fill="#005F0F" />
  <path fill="#FFF" d="M 76.32 22.79 C 67.12 34.06 55.88 43.5 43.9 51.69 C 40 54.48
  35.7 56.96 32.71 60.78 C 31.56 62.79 31.29 65.62 33.24 67.25 C 36.5 70.32 41.57
  70.99 45.65 69.27 C 51.37 67.09 55.31 62.14 58.63 57.23 C 66.03 46.57 70.52 34.31
  76.32 22.79" />
  <path fill="#AEA99F" d="M 71.04 26.69 C 59.59 35.76 50.42 40.67 38.71 44.89 C 35.17
  46.4 31.38 48.32 29.74 52.03 C 28.05 55.54 28.6 60.44 30.54 63.69 C 30.4 62.33 31.13
  60.11 32.22 59.08 C 35.83 55.05 40.53 52.42 44.67 49.37 L 44.68 49.36 L 44.69 49.35 C
  54.26 42.78 63.24 35.26 71.04 26.69" />
</svg>
