<svg xmlns="http://www.w3.org/2000/svg" viewBox="0 0 100 100" width="100" height="100">
  <linearGradient id="c" x1="0" y1="0" x2="1" y2="1" gradientUnits="objectBoundingBox">
    <stop offset="0" stop-color="#387eb8"/>
    <stop offset="1" stop-color="#366994"/>
  </linearGradient>
  <linearGradient id="d" x1="0" y1="0" x2="1" y2="1" gradientUnits="objectBoundingBox">
    <stop offset="0" stop-color="#ffe052"/>
    <stop offset="1" stop-color="#ffc331"/>
  </linearGradient>
  <g transform="scale(1.2) translate(-12, -26)">
    <path fill="url(#c)" d="M 48.02 40.71 C 35.73 40.71 36.5 46.04 36.5 46.04 L 36.51
      51.56 L 48.24 51.56 L 48.24 53.22 L 31.85 53.22 C 31.85 53.22 23.98 52.33 23.98
      64.73 C 23.98 77.14 30.85 76.7 30.85 76.7 L 34.95 76.7 L 34.95 70.94 C 34.95
      70.94 34.73 64.08 41.7 64.08 L 53.34 64.08 C 53.34 64.08 59.88 64.18 59.88
      57.76 L 59.88 47.13 C 59.88 47.13 60.87 40.7 48.02 40.7 M 41.55 44.42 A 2.11
      2.11 0 1 1 41.55 48.64 A 2.11 2.11 0 0 1 41.55 44.42" />
    <path fill="url(#d)" d="M 48.37 88.88 C 60.67 88.88 59.9 83.55 59.9 83.55 L 59.89
      78.03 L 48.15 78.03 L 48.15 76.37 L 64.54 76.37 C 64.54 76.37 72.41 77.26 72.41
      64.86 C 72.41 52.45 65.54 52.89 65.54 52.89 L 61.45 52.89 L 61.45 58.65 C 61.45
      58.65 61.67 65.51 54.69 65.51 L 43.05 65.51 C 43.05 65.51 36.51 65.41 36.51
      71.84 L 36.51 82.46 C 36.51 82.46 35.52 88.88 48.37 88.88 M 54.84 85.17 A 2.11 
      2.11 0 1 1 54.83 80.95 A 2.11 2.11 0 0 1 54.83 85.17" />
  </g>
  <g transform=" scale(1.1) translate(8)">
    <path fill="#f0f1f3" d="M 65.35 19.69 Q 65.5 20.33 65.06 20.86 A 10.25 10.25 0 0 0
      63.3 23.21 Q 61.49 24 60.37 22.33 Q 60.2 21.65 60.23 20.86 A 2.05 2.05 0 0 0 59.2 
      19.69 Q 60.87 18.46 62.72 17.49 Q 63.6 17.26 64.48 17.35 L 65.35 19.69" />
    <path fill="#f3f4f4" d="M 54.22 24.38 Q 54.95 22.77 56.57 22.03 Q 57.44 21.54
      58.32 22.03 Q 59.35 23.15 59.64 24.67 Q 60.49 25.29 61.55 25.55 Q 60.37 25.81
      60.23 27.01 A 2.05 2.05 0 0 1 58.32 27.75 A 13.18 13.18 0 0 1 55.98 24.52 Q 55.1 
      24.29 54.22 24.38" />
    <path fill="#a5a5a7" d="M 65.94 21.15 Q 66.38 22.82 66.23 24.67 Q 63.3 24.08 65.06 
      26.43 Q 64.59 26.87 65.06 27.16 A 3.81 3.81 0 0 0 63.3 28.92 Q 62.6 28.92 61.84 
      28.77 A 3.81 3.81 0 0 1 61.99 27.31 Q 62.72 26.87 62.72 25.99 Q 62.28 25.02 62.72 
      24.08 Q 64.04 23.67 65.35 23.79 Q 65.94 22.56 65.94 21.15" />
    <path fill="#c5c6c6" d="M 59.2 19.69 A 2.05 2.05 0 0 1 60.23 20.86 Q 60.23 21.65 
      60.37 22.33 Q 61.49 24 63.3 23.21 A 10.25 10.25 0 0 1 65.06 20.86 Q 65.5 20.33
      65.35 19.69 A 1.76 1.76 0 0 1 65.94 21.15 Q 65.94 22.56 65.35 23.79 Q 64.04 23.67 
      62.72 24.08 Q 62.28 25.02 62.72 25.99 Q 62.72 26.87 61.99 27.31 A 3.81 3.81 0 0 0 
      61.84 28.77 L 61.55 28.77 L 59.2 28.63 A 4.1 4.1 0 0 1 58.32 29.8 Q 59 29.94 59.5 
      30.38 Q 58.35 31.26 57.74 32.58 Q 55.98 33.02 54.22 32.87 Q 55.19 32.52 56.27
      32.29 Q 57.09 31.2 57.44 29.94 Q 56.57 29.89 55.69 30.24 L 55.39 29.94 L 55.98
      29.06 Q 55.83 28.54 55.54 29.06 Q 55.89 26.14 53.05 26.14 A 5.57 5.57 0 0 1 54.22 
      24.38 Q 55.1 24.29 55.98 24.52 Q 56.92 26.34 58.32 27.75 Q 59.5 27.95 60.23 27.01 
      Q 60.37 25.81 61.55 25.55 Q 60.49 25.29 59.64 24.67 Q 59.35 23.15 58.32 22.03 Q 
      57.44 21.54 56.57 22.03 Q 57.8 20.74 59.2 19.69" />
    <path fill="#a0a1a4" d="M 52.76 27.31 Q 52.87 28.86 54.08 29.94 Q 54.37 30.68
      54.08 31.41 L 51.15 36.1 Q 50.18 29.68 48.95 36.1 Q 48.66 35.83 48.66 35.36 Q
      48.89 34.4 49.24 33.46 Q 49.68 31.26 49.97 29.06 L 50.27 32.29 Q 50.15 30.03
      51.44 28.19 Q 51.53 29.94 52.02 31.7 Q 52.05 29.36 52.76 27.31" />
    <path fill="#e4e5e5" d="M 53.05 26.14 Q 55.89 26.14 55.54 29.06 Q 55.83 28.54
      55.98 29.06 L 55.39 29.94 L 55.69 30.24 Q 56.57 29.89 57.44 29.94 Q 57.09 31.2
      56.27 32.29 Q 55.19 32.52 54.22 32.87 Q 52.67 34.28 51.88 36.24 A 12.01 12.01 0 0 
      1 55.69 35.51 A 12.3 12.3 0 0 1 54.52 38.44 Q 53.11 38.29 51.88 38.73 A 1.76 1.76 
      0 0 0 50.41 39.32 A 23.73 23.73 0 0 0 48.95 42.54 L 47.48 46.06 A 14.06 14.06 0 0 
      0 46.02 49.57 Q 45.11 51.04 44.85 52.8 Q 44.03 54.14 43.68 55.72 A 58.01 58.01 0 
      0 0 41.33 62.17 Q 40.92 59.24 42.65 56.6 Q 42.94 55.29 43.09 53.97 L 43.09 53.67 
      Q 43.59 52.77 43.68 51.62 Q 44.96 48.93 46.02 46.06 Q 46.4 45.91 46.31 45.47 Q
      47.28 43.95 48.07 42.25 A 33.4 33.4 0 0 1 49.83 38.44 L 48.95 36.1 Q 50.18 29.68 
      51.15 36.1 L 54.08 31.41 Q 54.37 30.68 54.08 29.94 A 4.1 4.1 0 0 1 52.76 27.31 A 
      2.05 2.05 0 0 1 53.05 26.14" />
    <path fill="#a7a8a9" d="M 61.55 28.77 A 3.52 3.52 0 0 1 60.37 29.5 Q 60.84 29.83 
      60.37 30.24 Q 61.05 30.59 61.25 31.26 A 2.93 2.93 0 0 1 59.06 33.75 Q 56.51 32.14 
      55.39 34.92 A 0.88 0.88 0 0 0 56.27 35.22 Q 56.86 37.06 55.39 38.44 Q 53.64 38.88 
      51.88 38.73 Q 53.11 38.29 54.52 38.44 A 12.3 12.3 0 0 0 55.69 35.51 Q 53.64 35.57 
      51.88 36.24 Q 52.67 34.28 54.22 32.87 Q 55.98 33.02 57.74 32.58 Q 58.35 31.29
      59.5 30.38 A 2.34 2.34 0 0 0 58.32 29.8 A 4.1 4.1 0 0 0 59.2 28.63 Q 60.37 28.65 
      61.55 28.77" />
    <path fill="#8c8c8e" d="M 49.24 33.46 Q 48.89 34.4 48.66 35.36 Q 48.66 35.83 48.95 
      36.1 L 49.83 38.44 A 33.4 33.4 0 0 0 48.07 42.25 Q 47.81 40.64 47.19 39.03 A
      15.82 15.82 0 0 0 46.31 45.47 Q 46.4 45.91 46.02 46.06 L 46.02 38.73 Q 47.69
      35.51 48.8 31.99 A 3.81 3.81 0 0 0 49.24 33.46" />
    <path fill="#616465" d="M 65.35 29.06 A 15.53 15.53 0 0 1 63.3 34.05 A 8.79 8.79 0 
      0 0 59.5 39.32 Q 58.09 40.2 56.57 40.78 Q 55.39 41.78 56.27 42.83 L 55.83 44.01 A 
      11.72 11.72 0 0 0 53.64 46.2 Q 52.11 46.32 50.71 46.94 A 8.2 8.2 0 0 0 50.27 48.4 
      L 49.97 47.23 Q 49.68 48.11 48.95 48.69 Q 49.8 49.19 50.71 49.43 Q 49.86 50.74
      48.95 51.92 A 2.93 2.93 0 0 1 47.19 52.21 Q 47.86 51.39 48.66 50.6 L 48.36 50.3 L 
      49.53 49.43 Q 47.78 49.16 46.02 49.57 Q 46.52 47.7 47.48 46.06 L 48.36 46.06 Q
      50.47 46.23 52.46 45.62 Q 53.37 44.3 54.22 42.83 Q 54.63 42.48 55.1 42.39 A 9.96 
      9.96 0 0 0 53.34 41.52 Q 54.22 39.26 56.57 38.73 Q 57.36 37.71 58.32 36.83 Q
      57.56 36.51 56.86 36.1 Q 57.44 35.04 58.32 34.19 Q 61.78 34.87 63.01 31.55 Q
      62.48 31.41 62.13 30.97 Q 63.22 29.12 65.35 29.06" />
    <path fill="#494a4d" d="M 63.3 34.05 Q 61.81 37.21 60.52 40.49 Q 59.06 43.24 56.27 
      44.59 L 51.59 51.33 Q 50.12 52 48.36 52.65 Q 47.89 52.97 48.36 53.38 Q 46.52
      53.62 46.6 55.43 Q 45.14 55.37 43.68 55.72 Q 44.03 54.14 44.85 52.8 Q 46.02 52.44 
      47.19 52.21 Q 48.1 52.36 48.95 51.92 Q 49.86 50.72 50.71 49.43 Q 49.8 49.19 48.95 
      48.69 Q 49.68 48.11 49.97 47.23 L 50.27 48.4 A 8.2 8.2 0 0 1 50.71 46.94 Q 52.11 
      46.35 53.64 46.2 A 11.72 11.72 0 0 1 55.83 44.01 L 56.27 42.83 Q 55.39 41.78
      56.57 40.78 Q 58.09 40.2 59.5 39.32 A 8.79 8.79 0 0 1 63.3 34.05" />
    <path fill="#bbbbbc" d="M 48.07 42.25 A 25.49 25.49 0 0 1 46.31 45.47 A 15.82
      15.82 0 0 1 47.19 39.03 Q 47.81 40.64 48.07 42.25" />
    <path fill="#9a9b9c" d="M 49.83 45.76 Q 50.71 43.8 51.88 41.96 Q 52.76 41.43 53.64 
      42.1 Q 52.23 43.77 51 45.62 Q 50.41 45.85 49.83 45.76" />
    <path fill="#bbbbbc" d="M 51.88 41.96 A 35.74 35.74 0 0 0 49.83 45.76 Q 48.95
      45.62 48.36 46.06 L 47.48 46.06 L 48.95 42.54 Q 50.41 42.13 51.88 41.96" />
    <path fill="#818383" d="M 66.23 24.67 Q 66.23 27.01 65.35 29.06 Q 63.22 29.12 
      62.13 30.97 Q 62.48 31.41 63.01 31.55 Q 61.78 34.87 58.32 34.19 Q 57.44 35.07
      56.86 36.1 Q 57.56 36.54 58.32 36.83 Q 57.36 37.71 56.57 38.73 Q 54.22 39.26
      53.34 41.52 A 9.96 9.96 0 0 1 55.1 42.39 Q 54.63 42.48 54.22 42.83 Q 53.37 44.3 
      52.46 45.62 A 11.13 11.13 0 0 1 48.36 46.06 Q 48.95 45.62 49.83 45.76 Q 50.41
      45.85 51 45.62 Q 52.23 43.77 53.64 42.1 Q 52.76 41.43 51.88 41.96 Q 50.41 42.13 
      48.95 42.54 A 23.73 23.73 0 0 1 50.41 39.32 A 1.76 1.76 0 0 1 51.88 38.73 Q 53.64 
      38.88 55.39 38.44 Q 56.86 37.06 56.27 35.22 A 0.88 0.88 0 0 1 55.39 34.92 Q 56.51 
      32.14 59.06 33.75 A 2.93 2.93 0 0 0 61.25 31.26 A 1.76 1.76 0 0 0 60.37 30.24 Q 
      60.84 29.8 60.37 29.5 A 3.52 3.52 0 0 0 61.55 28.77 L 61.84 28.77 Q 62.6 28.92
      63.3 28.92 A 3.81 3.81 0 0 1 65.06 27.16 Q 64.59 26.84 65.06 26.43 Q 63.3 24.08 
      66.23 24.67" />
    <path fill="#35383a" d="M 56.27 44.59 L 57.74 44.59 Q 56.57 45.32 55.98 46.64 L
      56.57 47.23 A 17.58 17.58 0 0 0 55.69 49.28 L 53.34 49.87 Q 52.46 50.57 51.88
      51.48 L 52.17 51.77 L 51.29 52.65 A 6.74 6.74 0 0 1 52.76 53.23 A 22.27 22.27 0 0 
      1 50.71 55.43 L 48.66 55.87 Q 49.07 56.02 49.24 56.31 Q 47.4 56.6 47.19 58.51 Q 
      48.95 58.74 50.41 57.78 Q 50.24 58.57 49.83 59.24 A 8.2 8.2 0 0 1 44.85 61.29 Q 
      44.76 61.88 45.14 62.17 Q 44.55 62.61 43.68 62.46 Q 42.03 62.38 43.68 61.73 Q
      43.82 61.12 43.38 60.41 L 44.26 58.95 L 46.02 58.36 Q 46.37 56.87 47.19 55.58 Q 
      46.9 55.37 46.6 55.43 Q 46.52 53.62 48.36 53.38 Q 47.89 52.94 48.36 52.65 Q 50.12 
      52 51.59 51.33 L 56.27 44.59" />
    <path fill="#464646" d="M 45.73 39.32 Q 44.96 42.83 43.97 46.35 L 42.36 47.81 A
      10.84 10.84 0 0 0 42.21 52.94 Q 41.33 53.64 41.62 54.55 L 40.31 55.14 Q 40.31
      57.1 40.16 58.95 L 38.99 58.95 L 38.99 60.12 A 2.93 2.93 0 0 1 38.69 58.36 A 2.05 
      2.05 0 0 0 39.43 57.78 Q 39.43 55.49 40.31 53.38 L 40.6 53.67 Q 41.71 50.25 41.92 
      46.64 L 45.14 39.61 Q 45.35 39.26 45.73 39.32" />
    <path fill="#939495" d="M 47.19 52.21 Q 46.02 52.44 44.85 52.8 Q 45.11 51.04 46.02 
      49.57 Q 47.78 49.16 49.53 49.43 L 48.36 50.3 L 48.66 50.6 L 47.19 52.21" />
    <path fill="#2b2c2e" d="M 41.92 46.64 Q 41.71 50.25 40.6 53.67 L 40.31 53.38 Q
      39.43 55.49 39.43 57.78 A 2.05 2.05 0 0 1 38.69 58.36 A 29.3 29.3 0 0 1 41.92
      46.64" />
    <path fill="#1b2128" d="M 50.71 55.43 Q 51.79 54.41 52.76 53.23 A 6.74 6.74 0 0 0 
      51.29 52.65 L 52.17 51.77 L 51.88 51.48 Q 52.46 50.6 53.34 49.87 L 55.69 49.28 Q 
      56.04 48.22 56.57 47.23 L 55.98 46.64 Q 56.57 45.32 57.74 44.59 Q 58.32 43.92
      58.32 44.89 L 57.59 47.23 A 54.2 54.2 0 0 1 52.17 54.99 A 2.64 2.64 0 0 1 50.71 
      55.43" />
    <path fill="#626363" d="M 46.02 38.73 L 46.02 46.06 Q 44.96 48.93 43.68 51.62 Q
      43.59 52.77 43.09 53.67 Q 43 52.53 42.65 53.67 Q 40.89 58.24 39.28 62.76 L 39.28 
      62.17 Q 38.99 61.17 38.99 60.12 L 38.99 58.95 L 40.16 58.95 Q 40.28 57.1 40.31
      55.14 L 41.62 54.55 Q 41.33 53.64 42.21 52.94 Q 41.68 50.39 42.36 47.81 L 43.97 
      46.35 Q 44.96 42.83 45.73 39.32 Q 45.67 38.88 46.02 38.73" />
    <path fill="#8c8c8c" d="M 43.68 51.62 A 3.52 3.52 0 0 0 42.94 52.8 Q 41.42 50.36 
      43.24 48.11 L 44.26 50.01 A 2.34 2.34 0 0 0 43.68 51.62" />
    <path fill="#6d6f70" d="M 46.6 55.43 A 3.22 3.22 0 0 0 45.43 57.48 Q 44.64 57.63 
      43.97 58.07 L 42.8 57.78 Q 43.15 56.69 43.68 55.72 Q 45.14 55.37 46.6 55.43" />
    <path fill="#151a22" d="M 50.41 57.78 A 4.69 4.69 0 0 1 47.19 58.51 Q 47.4 56.6
      49.24 56.31 Q 50.47 56.16 51.59 56.31 L 50.41 57.78" />
    <path fill="#515354" d="M 46.6 55.43 Q 46.9 55.37 47.19 55.58 Q 46.37 56.87 46.02 
      58.36 L 44.26 58.95 L 43.38 60.41 Q 43.82 61.12 43.68 61.73 Q 42.03 62.38 43.68 
      62.46 Q 43.53 62.84 43.09 62.76 Q 41.95 62.9 41.04 62.46 Q 41.33 62.46 41.33
      62.17 Q 41.98 59.97 42.8 57.78 L 43.97 58.07 Q 44.64 57.63 45.43 57.48 Q 45.64
      56.25 46.6 55.43" />
    <path fill="#121723" d="M 49.83 59.24 A 7.03 7.03 0 0 1 45.43 63.64 Q 44.47 63.78 
      43.68 63.34 A 9.96 9.96 0 0 0 46.02 62.9 Q 45.58 62.43 45.14 62.17 Q 44.76 61.88 
      44.85 61.29 Q 47.72 61.12 49.83 59.24" />
    <path fill="#afb0b0" d="M 43.09 53.97 Q 42.97 55.29 42.65 56.6 Q 40.92 59.24 41.33 
      62.17 Q 41.33 62.46 41.04 62.46 A 3.22 3.22 0 0 0 40.16 64.37 Q 40.16 64.72 40.45 
      64.81 Q 40.45 65.1 40.16 65.1 Q 39.22 67.27 37.82 69.2 L 37.82 68.03 Q 40.36 61 
      43.09 53.97" />
    <path fill="#303133" d="M 43.09 53.67 L 43.09 53.97 Q 40.36 61 37.82 68.03 L 38.11 
      66.27 Q 38.75 64.6 39.28 62.76 Q 40.89 58.24 42.65 53.67 Q 43 52.53 43.09 53.67" />
    <path fill="#dadadb" d="M 41.04 62.46 Q 41.95 62.9 43.09 62.76 L 43.68 63.34 Q 42.
      36 63.58 41.04 64.07 Q 41.74 64.31 42.5 64.22 L 41.04 64.81 L 40.45 64.81 Q 40.16 
      64.72 40.16 64.37 Q 40.28 63.2 41.04 62.46" />
    <path fill="#929393" d="M 45.14 62.17 Q 45.58 62.46 46.02 62.9 A 9.96 9.96 0 0 1 
      43.68 63.34 L 43.09 62.76 Q 43.53 62.84 43.68 62.46 Q 44.55 62.61 45.14 62.17" />
    <path fill="#d8dae0" d="M 39.28 62.17 L 39.28 62.76 Q 38.75 64.6 38.11 66.27 Q
      36.35 65.1 34.3 64.37 Q 35.94 64.6 37.52 64.95 Q 36.2 64.07 35.18 62.9 Q 36.44
      63.14 37.38 64.22 L 37.52 63.93 A 13.77 13.77 0 0 1 35.77 61.14 Q 35.91 60.56
      36.35 60.85 L 37.38 62.46 Q 37.67 62.99 37.82 62.46 A 5.86 5.86 0 0 1 36.5 59.24 
      L 37.67 61 L 37.96 58.95 Q 38.26 60.79 39.28 62.17" />
    <path fill="#9399a5" d="M 43.68 63.34 Q 44.47 63.78 45.43 63.64 Q 45.87 63.58
      46.31 63.78 A 24.32 24.32 0 0 0 42.5 64.22 A 3.81 3.81 0 0 1 41.04 64.07 Q 42.36 
      63.58 43.68 63.34" />
    <path fill="#97a4be" d="M 42.5 64.22 Q 43.97 64.22 45.43 64.66 Q 43.24 64.89 41.04 
      64.81 L 42.5 64.22" />
    <path fill="#90a0bc" d="M 42.21 65.69 L 42.21 65.39 Q 44.11 65.3 46.02 65.54 A
      5.57 5.57 0 0 1 42.21 65.69" />
    <path fill="#9eaac2" d="M 42.21 66.27 Q 44.2 66.92 46.31 67.3 Q 44.67 67.44 43.09 
      67.3 L 46.02 68.47 A 10.84 10.84 0 0 1 41.92 67.44 Q 41.51 67.44 41.33 67.74 L
      40.16 67.3 L 41.92 67 L 41.33 66.71 Q 41.86 66.62 42.21 66.27" />
    <path fill="#a5afc6" d="M 41.62 67.74 Q 48.71 71.25 41.33 68.32 L 40.75 68.47 Q
      41.89 68.91 41.92 69.79 A 3.52 3.52 0 0 0 38.99 68.91 A 3.81 3.81 0 0 1 40.45
      68.47 L 39.57 68.18 Q 40.69 68.09 41.62 67.74" />
    <path fill="#43454b" d="M 37.82 68.03 L 37.82 69.2 L 36.64 71.84 A 10.84 10.84 0 0 
      1 37.82 68.03" />
    <path fill="#575b5e" d="M 36.64 71.84 Q 36.64 72.72 36.35 73.6 Q 36.09 74.3 35.47 
      74.77 Q 35.82 73.19 36.64 71.84" />
    <path fill="#d9dbdd" d="M 40.16 65.1 Q 41.07 65.54 42.21 65.39 L 42.21 65.69 Q
      39.93 65.74 42.21 66.27 Q 41.86 66.62 41.33 66.71 L 41.92 67 L 40.16 67.3 L 41.33 
      67.74 L 41.62 67.74 Q 40.69 68.09 39.57 68.18 L 40.45 68.47 A 3.81 3.81 0 0 0
      38.99 68.91 Q 37.23 74.62 35.62 80.33 L 33.86 82.68 Q 33.54 81.45 34.01 80.33 Q 
      34.71 79.78 35.03 78.87 A 26.07 26.07 0 0 1 36.35 73.6 Q 36.64 72.72 36.64 71.84 
      L 37.82 69.2 Q 39.22 67.27 40.16 65.1" />
    <path fill="#a5a6a9" d="M 36.35 73.6 A 26.07 26.07 0 0 0 35.03 78.87 Q 34.74 79.78 
      34.01 80.33 Q 34.42 77.43 35.47 74.77 Q 36.09 74.3 36.35 73.6" />
  </g>
</svg>
