<svg xmlns="http://www.w3.org/2000/svg" viewBox="0 0 100 100" width="100" height="100">

  <filter id="f">
    <feDropShadow dx=".5" dy=".5" stdDeviation=".5" flood-opacity=".5"/>
  </filter>
  <g stroke="#fff" stroke-linejoin="round" stroke-width=".35" filter="url(#f)" 
    transform="translate(-25 -25) scale(1.5)">
  <path fill="#31508d" d="M 39.56 41.03 L 50.11 46.88 L 60.07 41.77 L 49.54 35.93
    L 39.56 41.03" />
  <path fill="#6483c0" d="M 50.11 46.88 L 50.11 55.09 L 60.07 49.99 L 60.07 41.77
    L 50.11 46.88" />
  <path fill="#4b6aa7" d="M 39.56 41.03 L 50.11 46.88 L 50.11 55.09 L 39.56 49.25
    L 39.56 41.03" />
  <path fill="#62004e" d="M 54.43 49.27 L 64.96 55.13 L 74.92 50.02 L 64.4 44.18
    L 54.43 49.27" />
  <path fill="#952781" d="M 64.96 55.13 L 64.96 63.34 L 74.92 58.24 L 74.92 50.02
    L 64.96 55.13" />
  <path fill="#7c0e68" d="M 54.43 49.27 L 64.96 55.13 L 64.96 63.34 L 54.43 57.5
    L 54.43 49.27" />
  <path fill="#a54800" d="M 25.08 48.12 L 35.62 53.96 L 45.58 48.87 L 35.05 43.03
    L 25.08 48.12" />
  <path fill="#d87b30" d="M 35.62 53.97 L 35.62 62.18 L 45.58 57.07 L 45.58 48.87
    L 35.62 53.97" />
  <path fill="#bf6217" d="M 25.08 48.12 L 35.62 53.96 L 35.62 62.18 L 25.08 56.34
    L 25.08 48.12" />
  <path fill="#ada100" d="M 40.33 50.01 L 50.88 55.85 L 60.84 50.75 L 50.32 44.91
    L 40.33 50.01" />
  <path fill="#e0d400" d="M 50.88 55.85 L 50.88 64.07 L 60.84 58.97 L 60.84 50.75
    L 50.88 55.85" />
  <path fill="#c7bb00" d="M 40.33 50.01 L 50.88 55.85 L 50.88 64.07 L 40.35 58.23
    L 40.33 50.01" />
  </g>
</svg>
