<svg xmlns="http://www.w3.org/2000/svg" viewBox="0 0 100 100" width="100" height="100">
  <circle
      cx="50" cy="50" r="50"
      fill="#454548" />
  <linearGradient id="a" x1="38.88" x2="63.72" y1="6.5" y2="95.94" 
    gradientTransform="rotate(.104) scale(1.21905)" gradientUnits="userSpaceOnUse">
    <stop offset=".28" stop-color="#07c3f2" /> <stop offset=".94" stop-color="#087cfa" />
  </linearGradient>
  <linearGradient id="b" x1="46.63" x2="88.66" y1="17.85" y2="79.48"
    gradientTransform="rotate(.104) scale(1.21905)" gradientUnits="userSpaceOnUse">
    <stop offset=".14" stop-color="#fcf84a" /> <stop offset=".37" stop-color="#07c3f2" />
  </linearGradient>
  <linearGradient id="c" x1="88.27" x2="93.79" y1="25.47" y2="45.02"
    gradientTransform="rotate(.104) scale(1.21905)" gradientUnits="userSpaceOnUse">
    <stop offset=".28" stop-color="#07c3f2" /> <stop offset=".94" stop-color="#087cfa" />
  </linearGradient>
  <path fill="url(#a)" d="M 24.96 77.69 L 15.71 22.9 L 32.81 15.81 L 43.72 22.29 L 53.72 16.9 
    L 74.56 24.9 L 62.87 84.29 L 24.96 77.69" />
  <path fill="url(#b)" d="M 84.29 38.94 L 75.44 17.08 L 59.38 15.71 L 34.59 39.53 L 41.26 
    70.22 L 53.72 78.96 L 84.29 60.82 L 76.79 46.76 L 84.29 38.94" />
  <path fill="url(#c)" d="M 70.55 35.68 L 76.79 46.76 L 84.29 38.94 L 78.78 25.32 L 70.55 
    35.68" />
  <path d="M 28.57 28.57 L 71.43 28.57 L 71.43 71.43 L 28.57 71.43 L 28.57 28.57" />
  <path fill="#fff" d="M 33.91 63.33 L 49.99 63.33 L 49.99 66.01 L 33.91 66.01 L 33.91 63.33 
    M 49.13 33.91 L 46.74 43.28 L 44 33.91 L 41.28 33.91 L 38.54 43.29 L 36.15 33.91 L 32.4 
    33.91 L 36.99 49.99 L 40.01 49.99 L 42.63 40.68 L 45.23 49.99 L 48.29 49.99 L 52.87 33.91 
    L 49.13 33.91 M 53.54 47.69 L 55.63 45.19 A 7.4 7.4 0 0 0 60.45 47.14 C 61.88 47.14 62.78 
    46.57 62.78 45.62 L 62.78 45.58 C 62.78 44.68 62.22 44.22 59.53 43.53 C 56.28 42.7 54.19 
    41.8 54.19 38.6 L 54.19 38.55 C 54.19 35.63 56.53 33.69 59.83 33.69 A 9.29 9.29 0 0 1
    65.81 35.74 L 63.97 38.41 A 7.55 7.55 0 0 0 59.78 36.83 C 58.42 36.83 57.71 37.45 57.71 
    38.26 L 57.71 38.31 C 57.71 39.36 58.42 39.73 61.19 40.45 C 64.46 41.31 66.3 42.48 66.3 
    45.29 L 66.3 45.34 C 66.3 48.54 63.86 50.34 60.38 50.34 A 10.24 10.24 0 0 1 53.54 47.76" />
</svg>
